<svg width="18" height="15" viewBox="0 0 18 15" fill="none" xmlns="http://www.w3.org/2000/svg">
<path id="Vector" d="M0.482143 5.625H17.5179C17.783 5.625 18 5.7832 18 5.97656V13.5938C18 14.3701 17.1362 15 16.0714 15H1.92857C0.863839 15 0 14.3701 0 13.5938V5.97656C0 5.7832 0.216964 5.625 0.482143 5.625ZM18 4.33594V3.28125C18 2.50488 17.1362 1.875 16.0714 1.875H14.1429V0.351562C14.1429 0.158203 13.9259 0 13.6607 0H12.0536C11.7884 0 11.5714 0.158203 11.5714 0.351562V1.875H6.42857V0.351562C6.42857 0.158203 6.21161 0 5.94643 0H4.33929C4.07411 0 3.85714 0.158203 3.85714 0.351562V1.875H1.92857C0.863839 1.875 0 2.50488 0 3.28125V4.33594C0 4.5293 0.216964 4.6875 0.482143 4.6875H17.5179C17.783 4.6875 18 4.5293 18 4.33594Z" fill="white"/>
</svg>
