<svg width="32" height="32" viewBox="0 0 32 32" fill="none" xmlns="http://www.w3.org/2000/svg">
<path d="M14.6667 4C8.06674 4 2.66675 9.40964 2.66675 16.0723C2.66675 22.0964 7.05874 27.0964 12.7947 28V19.5663H9.74674V16.0723H12.7947V13.4096C12.7947 10.3855 14.5827 8.72289 17.3307 8.72289C18.6387 8.72289 20.0067 8.95181 20.0067 8.95181V11.9277H18.4947C17.0067 11.9277 16.5387 12.8554 16.5387 13.8072V16.0723H19.8747L19.3347 19.5663H16.5387V28C19.3665 27.5516 21.9414 26.103 23.7986 23.9157C25.6559 21.7284 26.6731 18.9466 26.6667 16.0723C26.6667 9.40964 21.2667 4 14.6667 4Z" fill="#2324A9"/>
</svg>
