<svg width="168" height="164" viewBox="0 0 168 164" fill="none" xmlns="http://www.w3.org/2000/svg">
<g filter="url(#filter0_d)">
<path d="M106.072 21.4233H61.928L64.688 13.3865H103.312L106.072 21.4233Z" fill="#C4C4C4"/>
<path d="M158.48 21.4236H9.52C6.47139 21.4236 4 23.8224 4 26.7814V117.811C4 120.769 6.47139 123.169 9.52 123.169H158.48C161.528 123.169 164 120.769 164 117.811V26.7814C164 23.8224 161.528 21.4236 158.48 21.4236Z" fill="#2324A9"/>
<path d="M84 72.2915H4V117.81C4 119.231 4.58157 120.593 5.61676 121.598C6.65198 122.603 8.056 123.168 9.52 123.168H84V72.2915Z" fill="#EAE2DD"/>
<path d="M84 72.2915H164V117.81C164 119.231 163.418 120.593 162.384 121.598C161.348 122.603 159.944 123.168 158.48 123.168H84V72.2915Z" fill="#FFAE10"/>
<path d="M84 72.2921H164V26.7737C164 26.0704 163.857 25.3741 163.579 24.7245C163.302 24.0749 162.895 23.4848 162.383 22.9878C161.87 22.491 161.261 22.097 160.591 21.8286C159.922 21.5602 159.205 21.4226 158.48 21.4236H84V72.2921Z" fill="#EAE2DD"/>
<path d="M108.128 51.4854V46.4746H111.844V47.3223H109.14V48.4331H111.656V49.2773H109.14V50.6411H111.939V51.4854H108.128ZM113.156 46.4746H116.666V51.4854H115.655V47.3223H114.147V49.4619C114.147 50.0749 114.127 50.5033 114.086 50.7471C114.045 50.9886 113.945 51.1777 113.785 51.3145C113.628 51.4489 113.381 51.5161 113.043 51.5161C112.925 51.5161 112.71 51.5047 112.397 51.4819V50.6992L112.623 50.7026C112.835 50.7026 112.977 50.6742 113.05 50.6172C113.123 50.5602 113.16 50.4201 113.16 50.1968L113.156 49.3354V46.4746ZM117.712 51.4854V46.4746H121.428V47.3223H118.724V48.4331H121.24V49.2773H118.724V50.6411H121.523V51.4854H117.712ZM122.398 46.4746H123.41V48.6074C123.636 48.5846 123.788 48.5265 123.868 48.4331C123.948 48.3397 124.071 48.0799 124.237 47.6538C124.447 47.1115 124.658 46.7743 124.87 46.6421C125.079 46.5099 125.418 46.4438 125.885 46.4438C125.907 46.4438 125.956 46.4427 126.032 46.4404V47.189L125.888 47.1855C125.681 47.1855 125.529 47.2118 125.433 47.2642C125.338 47.3143 125.26 47.3918 125.201 47.4966C125.142 47.6014 125.054 47.8167 124.938 48.1426C124.876 48.3158 124.809 48.4604 124.736 48.5767C124.666 48.6929 124.539 48.8022 124.357 48.9048C124.582 48.9686 124.768 49.0973 124.914 49.291C125.062 49.4847 125.224 49.7581 125.399 50.1113L126.083 51.4854H124.893L124.295 50.1899C124.286 50.1717 124.267 50.1364 124.237 50.084C124.226 50.0658 124.184 49.9871 124.111 49.8481C123.981 49.6021 123.874 49.4482 123.789 49.3867C123.707 49.3252 123.581 49.2933 123.41 49.291V51.4854H122.398V46.4746ZM127.959 51.4854V47.3223H126.473V46.4746H130.454V47.3223H128.971V51.4854H127.959ZM131.111 51.4854V46.4746H132.734C133.349 46.4746 133.751 46.4997 133.937 46.5498C134.224 46.625 134.465 46.7891 134.659 47.042C134.852 47.2926 134.949 47.6174 134.949 48.0161C134.949 48.3237 134.893 48.5824 134.782 48.792C134.67 49.0016 134.528 49.1668 134.354 49.2876C134.183 49.4061 134.009 49.4847 133.831 49.5234C133.59 49.5713 133.24 49.5952 132.782 49.5952H132.122V51.4854H131.111ZM132.122 47.3223V48.7441H132.676C133.075 48.7441 133.342 48.7179 133.476 48.6655C133.61 48.6131 133.715 48.5311 133.79 48.4194C133.868 48.3078 133.907 48.1779 133.907 48.0298C133.907 47.8475 133.853 47.6971 133.746 47.5786C133.639 47.4601 133.503 47.3861 133.339 47.3564C133.218 47.3337 132.976 47.3223 132.611 47.3223H132.122ZM135.479 49.0107C135.479 48.5003 135.555 48.0719 135.708 47.7256C135.822 47.4704 135.977 47.2414 136.173 47.0386C136.371 46.8358 136.587 46.6854 136.822 46.5874C137.134 46.4552 137.494 46.3892 137.902 46.3892C138.641 46.3892 139.231 46.6182 139.673 47.0762C140.117 47.5342 140.339 48.1711 140.339 48.9868C140.339 49.7957 140.119 50.4292 139.68 50.8872C139.24 51.3429 138.652 51.5708 137.916 51.5708C137.171 51.5708 136.578 51.3441 136.139 50.8906C135.699 50.4349 135.479 49.8083 135.479 49.0107ZM136.521 48.9766C136.521 49.5439 136.652 49.9746 136.914 50.2686C137.176 50.5602 137.509 50.7061 137.912 50.7061C138.316 50.7061 138.646 50.5614 138.904 50.272C139.163 49.9803 139.293 49.5439 139.293 48.9629C139.293 48.3887 139.167 47.9603 138.914 47.6777C138.663 47.3952 138.329 47.2539 137.912 47.2539C137.495 47.2539 137.159 47.3975 136.904 47.6846C136.649 47.9694 136.521 48.4001 136.521 48.9766ZM141.136 51.4854V46.4746H142.147V48.4468H144.13V46.4746H145.141V51.4854H144.13V49.2944H142.147V51.4854H141.136ZM146.194 51.4854V46.4746H147.206V48.4468H149.188V46.4746H150.2V51.4854H149.188V49.2944H147.206V51.4854H146.194ZM151.263 46.4746H152.21V49.8105L154.24 46.4746H155.248V51.4854H154.302V48.2144L152.275 51.4854H151.263V46.4746ZM156.294 46.4746H157.241V49.8105L159.271 46.4746H160.28V51.4854H159.333V48.2144L157.306 51.4854H156.294V46.4746ZM158.892 45.2271H159.36C159.333 45.5369 159.224 45.7808 159.032 45.9585C158.843 46.134 158.597 46.2217 158.294 46.2217C157.991 46.2217 157.744 46.134 157.552 45.9585C157.363 45.7808 157.255 45.5369 157.227 45.2271H157.696C157.712 45.3888 157.769 45.5119 157.867 45.5962C157.965 45.6782 158.107 45.7192 158.294 45.7192C158.481 45.7192 158.623 45.6782 158.721 45.5962C158.819 45.5119 158.876 45.3888 158.892 45.2271ZM111.334 59.6431L112.315 59.9541C112.165 60.501 111.914 60.9077 111.563 61.1743C111.215 61.4386 110.772 61.5708 110.234 61.5708C109.568 61.5708 109.022 61.3441 108.593 60.8906C108.165 60.4349 107.951 59.8128 107.951 59.0244C107.951 58.1904 108.166 57.5433 108.597 57.083C109.027 56.6204 109.593 56.3892 110.295 56.3892C110.908 56.3892 111.406 56.5703 111.789 56.9326C112.017 57.1468 112.188 57.4544 112.302 57.8555L111.3 58.0947C111.241 57.835 111.117 57.6299 110.928 57.4795C110.741 57.3291 110.513 57.2539 110.244 57.2539C109.873 57.2539 109.571 57.3872 109.338 57.6538C109.108 57.9204 108.993 58.3522 108.993 58.9492C108.993 59.5827 109.107 60.0339 109.335 60.3027C109.563 60.5716 109.859 60.7061 110.224 60.7061C110.492 60.7061 110.724 60.6206 110.917 60.4497C111.111 60.2788 111.25 60.0099 111.334 59.6431ZM112.582 56.4746H113.713L114.882 59.0757L115.88 56.4746H116.936L115.245 60.2822C115.06 60.6947 114.872 61.0091 114.681 61.2256C114.489 61.4398 114.242 61.5469 113.939 61.5469C113.64 61.5469 113.407 61.5275 113.238 61.4888V60.7368C113.382 60.7459 113.512 60.7505 113.628 60.7505C113.863 60.7505 114.03 60.7083 114.13 60.624C114.233 60.5374 114.331 60.3529 114.424 60.0703L112.582 56.4746ZM117.494 56.4746H120.956V60.6445H121.397V62.5791H120.556V61.4854H117.401V62.5791H116.56V60.6445H116.984C117.192 60.2161 117.328 59.7194 117.394 59.1543C117.46 58.5869 117.494 57.8703 117.494 57.0044V56.4746ZM118.457 57.3154C118.457 58.8376 118.32 59.9473 118.044 60.6445H119.948V57.3154H118.457Z" fill="#002E64"/>
<path d="M118.704 107.786L111.864 110.962C110.62 111.517 109.565 112.405 108.822 113.522C108.08 114.638 107.681 115.938 107.672 117.267V123.161H140.8V117.252C140.791 115.921 140.391 114.622 139.646 113.505C138.902 112.388 137.846 111.501 136.601 110.946L129.76 107.771L118.704 107.786Z" fill="#43A3F9"/>
<path d="M55.7281 144.592H112.272C113.545 144.592 114.766 145.083 115.666 145.957C116.566 146.831 117.072 148.016 117.072 149.251V155.3H50.8961V149.275C50.8929 148.658 51.0157 148.047 51.2576 147.478C51.4993 146.907 51.8552 146.39 52.3047 145.954C52.7541 145.519 53.2882 145.174 53.8758 144.94C54.4635 144.706 55.093 144.588 55.7281 144.592Z" fill="#E9E9E9"/>
<path d="M106.072 123.169H91.808C92.2487 124.381 92.3834 125.677 92.201 126.951C92.0185 128.224 91.524 129.436 90.7592 130.485C89.9944 131.535 88.9814 132.39 87.8053 132.981C86.6292 133.572 85.3243 133.88 84 133.88C82.6757 133.88 81.3708 133.572 80.1947 132.981C79.0185 132.39 78.0056 131.535 77.2407 130.485C76.4758 129.436 75.9814 128.224 75.799 126.951C75.6165 125.677 75.7513 124.381 76.192 123.169H61.928L59.2 144.592H108.8L106.072 123.169Z" fill="#CBCBCB"/>
<path d="M124.224 89.5147C126.417 89.5147 128.522 90.3605 130.073 91.8662C131.624 93.3719 132.496 95.4141 132.496 97.5437V102.902C132.496 105.031 131.624 107.073 130.073 108.579C128.522 110.085 126.417 110.931 124.224 110.931C123.137 110.932 122.06 110.725 121.056 110.321C120.051 109.918 119.139 109.327 118.37 108.582C117.601 107.836 116.991 106.95 116.574 105.976C116.158 105.001 115.944 103.957 115.944 102.902V97.5437C115.944 96.4886 116.158 95.4438 116.574 94.4693C116.991 93.4946 117.601 92.6092 118.37 91.8635C119.139 91.1178 120.051 90.5266 121.056 90.1236C122.06 89.7205 123.137 89.5136 124.224 89.5147Z" fill="#FDC9A6"/>
<path d="M115.87 99.4244L121.39 96.7454L132.422 99.4244V96.7454C132.355 94.6582 131.454 92.6783 129.91 91.2248C128.364 89.7713 126.297 88.9585 124.146 88.9585C121.994 88.9585 119.927 89.7713 118.383 91.2248C116.838 92.6783 115.937 94.6582 115.87 96.7454V99.4244Z" fill="#C97F4C"/>
<path d="M142.728 80.2744H153.768V90.9824H142.728V80.2744Z" fill="#2324A9"/>
<path d="M65.9279 80.2744H76.9679V90.9824H65.9279V80.2744Z" fill="#2324A9"/>
<path d="M65.9279 92.6985H76.9679V103.274H65.9279V92.6985Z" fill="#FFAE10"/>
<path d="M83.928 26.634C91.5053 26.634 97.648 20.6718 97.648 13.317C97.648 5.96222 91.5053 0 83.928 0C76.3506 0 70.208 5.96222 70.208 13.317C70.208 20.6718 76.3506 26.634 83.928 26.634Z" fill="#E9E9E9"/>
<path d="M84 18.7451C87.0486 18.7451 89.52 16.3462 89.52 13.3872C89.52 10.4281 87.0486 8.0293 84 8.0293C80.9514 8.0293 78.48 10.4281 78.48 13.3872C78.48 16.3462 80.9514 18.7451 84 18.7451Z" fill="#2324A9"/>
<path d="M84 16.0658C85.5243 16.0658 86.76 14.8665 86.76 13.3869C86.76 11.9074 85.5243 10.708 84 10.708C82.4757 10.708 81.24 11.9074 81.24 13.3869C81.24 14.8665 82.4757 16.0658 84 16.0658Z" fill="#EBAB08"/>
<path d="M34.128 108.213C34.9322 107.955 35.6312 107.455 36.1243 106.787C36.6174 106.119 36.8792 105.315 36.872 104.493V101.17H43.6159V104.493C43.6096 105.506 44.0116 106.482 44.7359 107.211C45.1766 107.667 45.726 108.011 46.3359 108.213H34.128Z" fill="#FEDFC5"/>
<path d="M43.616 101.023V103.104L42.08 104.051C41.5261 104.38 40.8893 104.554 40.24 104.554C39.5907 104.554 38.954 104.38 38.4 104.051L36.864 103.143V101.023H43.616Z" fill="#FECBAA"/>
<path d="M46.8319 89.3669V97.3106C46.8327 97.9 46.677 98.4797 46.3799 98.9938C46.0829 99.5078 45.6545 99.9391 45.1359 100.246L42.0799 102.047C41.5268 102.374 40.8916 102.547 40.2439 102.547C39.5962 102.547 38.9609 102.374 38.4079 102.047L35.3519 100.246C34.8344 99.9379 34.4067 99.5065 34.1099 98.9926C33.813 98.4788 33.6567 97.8997 33.6559 97.3106V89.3669C33.6559 88.3187 34.0849 87.3134 34.8486 86.5722C35.6122 85.8309 36.6479 85.4146 37.7279 85.4146H42.7599C43.8399 85.4146 44.8756 85.8309 45.6392 86.5722C46.4029 87.3134 46.8319 88.3187 46.8319 89.3669Z" fill="#FEDFC5"/>
<path d="M42.7601 85.4146H40.2081C41.2881 85.4146 42.3238 85.8309 43.0874 86.5722C43.8511 87.3134 44.2801 88.3187 44.2801 89.3669V97.3105C44.2809 97.9 44.1252 98.4797 43.8281 98.9938C43.5311 99.5078 43.1027 99.9391 42.5841 100.246L39.5281 102.047C39.3498 102.153 39.1624 102.244 38.9681 102.319C39.4732 102.51 40.017 102.585 40.5569 102.538C41.0969 102.49 41.6182 102.323 42.0801 102.047L45.1361 100.246C45.6547 99.9391 46.0831 99.5078 46.3801 98.9938C46.6771 98.4797 46.8329 97.9 46.832 97.3105V89.3669C46.832 88.3187 46.4031 87.3134 45.6394 86.5722C44.8758 85.8309 43.8401 85.4146 42.7601 85.4146Z" fill="#FECBAA"/>
<path d="M46.832 89.3669V93.0553L38.576 90.4773C38.4237 90.4301 38.2633 90.4125 38.104 90.4259C37.9446 90.4392 37.7896 90.4831 37.648 90.555L33.6479 92.5739V89.3669C33.6479 88.8473 33.7536 88.3327 33.9587 87.8527C34.1638 87.3726 34.4645 86.9366 34.8434 86.5694C35.2224 86.2023 35.6723 85.9114 36.1673 85.7132C36.6622 85.515 37.1925 85.4135 37.728 85.4146H42.76C43.84 85.4146 44.8757 85.8309 45.6393 86.5722C46.403 87.3134 46.832 88.3187 46.832 89.3669Z" fill="#C97F4C"/>
<path d="M42.76 85.4146H40.208C41.2879 85.4146 42.3237 85.8309 43.0873 86.5722C43.8509 87.3134 44.28 88.3187 44.28 89.3669V92.2633L46.832 93.0398V89.3514C46.8277 88.3058 46.3969 87.3046 45.6336 86.5667C44.8705 85.8288 43.8372 85.4146 42.76 85.4146Z" fill="#AA6344"/>
<path d="M27.6399 122.687C27.3386 122.687 27.0496 122.571 26.8365 122.364C26.6236 122.157 26.5039 121.877 26.5039 121.584V116.009C26.5033 114.467 27.0009 112.963 27.9265 111.71C28.8521 110.456 30.1591 109.516 31.6639 109.021L34.1279 108.244C34.6687 108.067 35.1649 107.781 35.5839 107.406C38.551 108.448 41.8102 108.39 44.7359 107.242C45.1783 107.696 45.7272 108.04 46.3359 108.244L48.7999 109.021C50.3061 109.514 51.615 110.454 52.5421 111.708C53.4691 112.962 53.9678 114.466 53.9679 116.009V122.687H27.6399Z" fill="#43A3F9"/>
<path d="M40.088 108.135L37.192 118.028C37.1555 118.154 37.1525 118.287 37.1833 118.415C37.2141 118.542 37.2776 118.66 37.368 118.758L39.52 121.088C39.5948 121.163 39.6848 121.224 39.7845 121.266C39.8842 121.307 39.9916 121.329 40.1001 121.329C40.2086 121.329 40.316 121.307 40.4157 121.266C40.5154 121.224 40.6054 121.163 40.68 121.088L43.08 118.758C43.1815 118.657 43.253 118.532 43.2868 118.395C43.3206 118.259 43.3155 118.116 43.272 117.982L40.088 108.135Z" fill="#83D9FF"/>
<path d="M102.046 37.7567L101.862 40.5129H93.8596V40.0448C93.9954 40.036 94.1765 40.0183 94.4031 39.992C94.6295 39.9613 94.7767 39.9304 94.8446 39.8997C94.9895 39.8338 95.0892 39.748 95.1435 39.6426C95.2024 39.537 95.2318 39.403 95.2318 39.2402V32.5145C95.2318 32.3694 95.2069 32.2419 95.1571 32.132C95.1073 32.0178 95.0031 31.9254 94.8446 31.855C94.7223 31.798 94.5571 31.7473 94.3487 31.7034C94.1449 31.6594 93.9819 31.6331 93.8596 31.6243V31.1561H101.319V33.4113H100.809C100.719 33.0772 100.522 32.7232 100.218 32.3496C99.9194 31.9716 99.6341 31.765 99.3623 31.7298C99.2219 31.7122 99.0543 31.699 98.8596 31.6903C98.6648 31.6814 98.4429 31.677 98.1938 31.677H96.6788V35.396H97.7658C98.1145 35.396 98.3682 35.3653 98.5267 35.3037C98.6897 35.2378 98.8324 35.1301 98.9546 34.9806C99.0543 34.8531 99.138 34.6839 99.206 34.4729C99.2785 34.2575 99.3261 34.0552 99.3487 33.8663H99.8582V37.5259H99.3487C99.3306 37.3149 99.2808 37.0928 99.1993 36.8599C99.1223 36.6225 99.0408 36.451 98.9546 36.3456C98.8142 36.1741 98.6535 36.062 98.4723 36.0092C98.2957 35.9565 98.0603 35.9301 97.7658 35.9301H96.6788V38.7391C96.6788 39.0205 96.6992 39.2425 96.74 39.4051C96.7807 39.5678 96.86 39.6908 96.9778 39.7745C97.0955 39.858 97.2563 39.9129 97.4601 39.9392C97.664 39.9613 97.9538 39.9722 98.3297 39.9722C98.4792 39.9722 98.6761 39.9722 98.9207 39.9722C99.1653 39.9722 99.3713 39.9634 99.5389 39.9459C99.711 39.9283 99.8876 39.8975 100.069 39.8536C100.254 39.8052 100.386 39.7415 100.463 39.6623C100.671 39.4512 100.889 39.1325 101.115 38.7061C101.346 38.2754 101.493 37.9589 101.557 37.7567H102.046ZM112.019 40.5129H108.004V40.0448C108.357 40.0228 108.649 39.9788 108.88 39.9129C109.115 39.8469 109.233 39.7656 109.233 39.6689C109.233 39.6293 109.229 39.581 109.22 39.5238C109.211 39.4667 109.197 39.4161 109.179 39.3721L108.377 37.2752H105.001C104.874 37.583 104.77 37.8512 104.688 38.0798C104.611 38.3083 104.541 38.5193 104.478 38.7128C104.419 38.9018 104.378 39.0557 104.355 39.1743C104.333 39.293 104.321 39.3898 104.321 39.4645C104.321 39.6403 104.464 39.7766 104.75 39.8733C105.035 39.97 105.356 40.0272 105.714 40.0448V40.5129H102.086V40.0448C102.204 40.036 102.351 40.0118 102.528 39.9722C102.705 39.9283 102.85 39.8711 102.963 39.8008C103.144 39.6821 103.284 39.5589 103.384 39.4316C103.484 39.2997 103.581 39.1194 103.676 38.8908C104.161 37.7171 104.695 36.3984 105.279 34.9345C105.864 33.4706 106.384 32.1672 106.842 31.0243H107.385L110.599 39.0952C110.667 39.2667 110.744 39.4051 110.83 39.5107C110.916 39.6161 111.036 39.7194 111.19 39.8206C111.294 39.8822 111.43 39.9348 111.597 39.9788C111.765 40.0183 111.905 40.0404 112.019 40.0448V40.5129ZM108.133 36.6885L106.672 33.0618L105.239 36.6885H108.133ZM118.364 36.2202C118.568 36.4401 118.717 36.6818 118.812 36.9456C118.912 37.2049 118.961 37.5083 118.961 37.8556C118.961 38.6819 118.647 39.3634 118.017 39.8997C117.388 40.4359 116.606 40.7041 115.673 40.7041C115.243 40.7041 114.813 40.6404 114.383 40.5129C113.952 40.381 113.581 40.2228 113.268 40.0381L112.976 40.5196H112.433L112.338 37.3149H112.888C113.001 37.7105 113.133 38.0687 113.282 38.3897C113.436 38.7061 113.638 39.0029 113.887 39.2799C114.122 39.5393 114.396 39.7459 114.709 39.8997C115.026 40.0535 115.393 40.1305 115.809 40.1305C116.122 40.1305 116.394 40.0909 116.625 40.0118C116.86 39.9327 117.05 39.8206 117.195 39.6755C117.34 39.5305 117.447 39.3612 117.514 39.1678C117.587 38.9699 117.623 38.7435 117.623 38.4886C117.623 38.1149 117.514 37.7676 117.297 37.4467C117.08 37.1214 116.756 36.8753 116.326 36.7082C116.031 36.5939 115.694 36.4686 115.313 36.3324C114.933 36.1917 114.605 36.0598 114.328 35.9367C113.785 35.6994 113.361 35.3895 113.058 35.007C112.759 34.6202 112.61 34.1168 112.61 33.4969C112.61 33.1409 112.684 32.809 112.834 32.5013C112.983 32.1935 113.196 31.9188 113.472 31.677C113.735 31.4484 114.045 31.2704 114.403 31.1429C114.761 31.011 115.134 30.9451 115.524 30.9451C115.968 30.9451 116.364 31.011 116.713 31.1429C117.066 31.2748 117.388 31.4286 117.678 31.6045L117.956 31.1561H118.5L118.554 34.2618H118.004C117.904 33.9058 117.791 33.5651 117.664 33.2398C117.542 32.9144 117.381 32.6199 117.182 32.3563C116.987 32.1013 116.749 31.899 116.468 31.7496C116.187 31.5957 115.843 31.5188 115.436 31.5188C115.005 31.5188 114.639 31.6529 114.335 31.921C114.032 32.1891 113.88 32.5166 113.88 32.9035C113.88 33.308 113.977 33.6442 114.172 33.9124C114.367 34.1761 114.65 34.3937 115.021 34.5651C115.352 34.7191 115.676 34.8531 115.993 34.9675C116.314 35.0773 116.625 35.196 116.923 35.3235C117.195 35.4377 117.456 35.5675 117.705 35.7126C117.958 35.8576 118.178 36.0269 118.364 36.2202ZM128.438 31.6243C128.362 31.6287 128.239 31.6594 128.072 31.7166C127.904 31.7694 127.784 31.8221 127.711 31.8748C127.535 31.9804 127.414 32.0616 127.352 32.1188C127.288 32.176 127.165 32.3254 126.984 32.5673C126.632 33.0507 126.305 33.5409 126.006 34.0377C125.708 34.5344 125.333 35.1652 124.886 35.9301C124.718 36.2114 124.606 36.4379 124.553 36.6092C124.499 36.7808 124.471 37.0291 124.471 37.3545V39.1413C124.471 39.2997 124.503 39.4381 124.566 39.5568C124.634 39.6711 124.748 39.7634 124.905 39.8338C125.001 39.8689 125.171 39.9129 125.416 39.9657C125.66 40.0139 125.857 40.0404 126.006 40.0448V40.5129H121.496V40.0448C121.622 40.036 121.812 40.0206 122.066 39.9986C122.32 39.9722 122.496 39.9392 122.596 39.8997C122.759 39.8338 122.87 39.7436 122.929 39.6293C122.992 39.5151 123.024 39.3744 123.024 39.2073V36.9325C123.024 36.8621 122.979 36.7346 122.888 36.5499C122.802 36.3609 122.698 36.1521 122.575 35.9236C122.304 35.4137 122.002 34.8619 121.672 34.2685C121.341 33.675 121.054 33.1673 120.809 32.7453C120.66 32.4947 120.526 32.3056 120.408 32.1782C120.296 32.0507 120.163 31.9386 120.014 31.8419C119.906 31.7759 119.774 31.7254 119.62 31.6903C119.471 31.655 119.335 31.6331 119.213 31.6243V31.1561H123.323V31.6243C122.861 31.6331 122.534 31.6638 122.344 31.7166C122.154 31.7694 122.059 31.8441 122.059 31.9408C122.059 31.9671 122.073 32.0134 122.1 32.0793C122.127 32.1453 122.166 32.2288 122.216 32.3298C122.275 32.4442 122.344 32.576 122.427 32.7255C122.508 32.8706 122.584 33.0112 122.657 33.1475C122.87 33.5387 123.087 33.93 123.309 34.3212C123.532 34.7081 123.821 35.2136 124.179 35.8378C124.89 34.7256 125.431 33.8596 125.803 33.2398C126.179 32.6155 126.366 32.2419 126.366 32.1188C126.366 32.0178 126.328 31.9364 126.25 31.8748C126.174 31.8133 126.072 31.765 125.945 31.7298C125.813 31.6947 125.671 31.6726 125.518 31.6638C125.363 31.6507 125.221 31.6375 125.089 31.6243V31.1561H128.438V31.6243ZM132.983 40.7306C132.408 40.7306 131.855 40.6206 131.325 40.4008C130.8 40.181 130.334 39.8645 129.926 39.4512C129.523 39.0381 129.201 38.5348 128.961 37.9412C128.721 37.3434 128.602 36.6708 128.602 35.9236C128.602 35.1762 128.719 34.4992 128.954 33.8926C129.191 33.2815 129.516 32.7562 129.933 32.3166C130.345 31.8815 130.832 31.5451 131.394 31.3078C131.955 31.0704 132.555 30.9517 133.194 30.9517C133.67 30.9517 134.1 31.0089 134.485 31.1231C134.87 31.2374 135.236 31.3979 135.585 31.6045L135.863 31.1561H136.407L136.468 34.4927H135.911C135.839 34.1673 135.73 33.8156 135.585 33.4376C135.44 33.0551 135.271 32.732 135.076 32.4683C134.858 32.1693 134.601 31.9364 134.301 31.7694C134.002 31.5979 133.66 31.5122 133.275 31.5122C132.836 31.5122 132.427 31.6067 132.045 31.7957C131.67 31.9848 131.344 32.2639 131.068 32.6331C130.805 32.9893 130.598 33.442 130.449 33.9915C130.3 34.541 130.225 35.1543 130.225 35.8312C130.225 36.4291 130.303 36.9786 130.456 37.4797C130.614 37.9765 130.838 38.4139 131.128 38.7919C131.418 39.1655 131.76 39.4579 132.154 39.6689C132.553 39.8799 132.997 39.9853 133.486 39.9853C133.853 39.9853 134.19 39.9304 134.499 39.8206C134.806 39.7063 135.074 39.5568 135.3 39.3721C135.526 39.1788 135.725 38.9589 135.898 38.7128C136.07 38.4666 136.21 38.1985 136.319 37.9083L136.828 38.1457C136.439 39.0732 135.922 39.737 135.28 40.137C134.636 40.5327 133.871 40.7306 132.983 40.7306ZM145.463 32.2639C145.889 32.6947 146.221 33.2156 146.461 33.8267C146.701 34.4334 146.822 35.1059 146.822 35.8444C146.822 36.5873 146.699 37.2621 146.454 37.8688C146.21 38.4754 145.87 38.9919 145.435 39.4183C145.014 39.8403 144.525 40.1656 143.969 40.3942C143.411 40.6229 142.817 40.7371 142.189 40.7371C141.518 40.7371 140.897 40.6162 140.327 40.3745C139.761 40.1283 139.274 39.7876 138.866 39.3524C138.459 38.9259 138.137 38.4095 137.901 37.8028C137.671 37.1917 137.555 36.539 137.555 35.8444C137.555 35.0839 137.678 34.4069 137.922 33.8135C138.167 33.2156 138.504 32.699 138.934 32.2639C139.36 31.8331 139.854 31.5033 140.415 31.2748C140.981 31.0462 141.572 30.9319 142.189 30.9319C142.827 30.9319 143.43 31.0484 143.995 31.2814C144.561 31.5144 145.05 31.8419 145.463 32.2639ZM144.451 38.8975C144.704 38.4974 144.888 38.0445 145.001 37.539C145.119 37.0335 145.178 36.4686 145.178 35.8444C145.178 35.2025 145.112 34.6135 144.981 34.0772C144.853 33.5409 144.665 33.0837 144.416 32.7057C144.168 32.3321 143.855 32.0419 143.479 31.8353C143.104 31.6243 142.672 31.5188 142.189 31.5188C141.645 31.5188 141.183 31.6396 140.802 31.8815C140.422 32.1232 140.111 32.4463 139.871 32.8507C139.645 33.2376 139.476 33.6904 139.362 34.2091C139.253 34.7279 139.199 35.273 139.199 35.8444C139.199 36.4775 139.258 37.0489 139.376 37.5588C139.493 38.0687 139.679 38.5216 139.933 38.9172C140.177 39.3041 140.486 39.6073 140.857 39.8271C141.228 40.0425 141.672 40.1502 142.189 40.1502C142.672 40.1502 143.11 40.0404 143.499 39.8206C143.889 39.6008 144.206 39.293 144.451 38.8975ZM157.922 31.6243C157.795 31.6287 157.6 31.6638 157.338 31.7298C157.075 31.7957 156.887 31.8639 156.774 31.9343C156.611 32.0441 156.5 32.2551 156.441 32.5673C156.387 32.8793 156.359 33.275 156.359 33.7541V40.6052H155.768L149.926 32.9497V37.7765C149.926 38.3171 149.961 38.7326 150.028 39.0227C150.101 39.3128 150.209 39.5194 150.354 39.6426C150.458 39.7392 150.674 39.8294 150.999 39.9129C151.325 39.9964 151.541 40.0404 151.645 40.0448V40.5129H147.692V40.0448C147.813 40.036 148.02 39.9942 148.31 39.9195C148.599 39.8403 148.78 39.77 148.853 39.7085C149.011 39.5854 149.12 39.3986 149.179 39.148C149.238 38.893 149.267 38.46 149.267 37.849V33.2398C149.267 33.0376 149.231 32.8353 149.158 32.6331C149.086 32.431 148.989 32.2749 148.866 32.165C148.704 32.0199 148.481 31.8969 148.201 31.7957C147.925 31.6903 147.7 31.6331 147.528 31.6243V31.1561H150.279L155.701 38.2908V33.8398C155.701 33.2947 155.665 32.8771 155.592 32.587C155.52 32.2925 155.416 32.0969 155.28 32.0001C155.152 31.9166 154.944 31.8353 154.654 31.7562C154.369 31.677 154.152 31.6331 154.002 31.6243V31.1561H157.922V31.6243Z" fill="#FF1D25"/>
<path d="M98.9121 45.1143C98.4893 45.5796 98.256 46.1787 98.2561 46.7993C98.2561 48.2202 98.4561 49.6335 98.4721 51.0545C98.4478 52.3567 98.1512 53.6407 97.6001 54.8282C97.4321 55.1621 97.2561 55.4883 97.0721 55.8144L96.5521 55.7135C96.3448 55.6661 96.1622 55.5475 96.0381 55.3794C95.9141 55.2114 95.857 55.0054 95.8776 54.7997C95.8981 54.5939 95.9948 54.4024 96.1497 54.2606C96.3046 54.1187 96.5073 54.0362 96.7201 54.0285H96.9121L96.4801 50.5575C96.4139 49.8144 96.1866 49.0933 95.8129 48.4416C95.4392 47.7898 94.9278 47.2222 94.3121 46.776C94.1026 46.6254 93.8835 46.4879 93.6561 46.3644V58.703H96.5841C96.8044 59.8386 97.4516 60.8542 98.4001 61.5527C98.6221 61.6981 98.8058 61.8924 98.9361 62.1196C99.071 61.8956 99.2538 61.7023 99.4721 61.5527C100.412 60.8503 101.05 59.8351 101.264 58.703H104.192V46.3877C103.966 46.513 103.747 46.6504 103.536 46.7993C102.923 47.2476 102.413 47.8157 102.039 48.467C101.666 49.1184 101.437 49.8384 101.368 50.5808L100.944 54.0517H101.136C101.349 54.0595 101.552 54.142 101.706 54.2839C101.861 54.4257 101.958 54.6172 101.979 54.823C101.999 55.0287 101.942 55.2347 101.818 55.4027C101.694 55.5708 101.511 55.6894 101.304 55.7367L100.776 55.8377C100.592 55.5116 100.416 55.1854 100.248 54.8515C99.697 53.6639 99.4003 52.38 99.3761 51.0778C99.3761 49.6568 99.5761 48.2358 99.6001 46.8226C99.6001 46.202 99.367 45.6029 98.9441 45.1376L98.9121 45.1143ZM94.5281 48.1426C95.1115 48.8003 95.4817 49.6107 95.5921 50.4721L95.9361 53.3374C95.7124 53.4461 95.5151 53.6 95.3579 53.7889C95.2006 53.9777 95.0867 54.197 95.0241 54.4322H94.5281V48.1426ZM103.328 48.1426V54.4322H102.832C102.769 54.197 102.656 53.9777 102.498 53.7889C102.341 53.6 102.144 53.4461 101.92 53.3374L102.264 50.4721C102.378 49.6118 102.748 48.8023 103.328 48.1426ZM98.9521 53.8964C99.1843 54.635 99.5067 55.344 99.9121 56.0085C99.5341 56.1195 99.1995 56.3387 98.9521 56.6375C98.7014 56.3422 98.368 56.1238 97.9921 56.0085C98.3942 55.3424 98.7163 54.6338 98.9521 53.8964ZM94.5681 55.2864H95.0641C95.1439 55.5732 95.2984 55.8353 95.5127 56.0475C95.7271 56.2596 95.9941 56.4147 96.2881 56.4977L96.7121 56.5909C96.5965 56.9955 96.5374 57.4133 96.5361 57.8333H94.5681V55.3097V55.2864ZM102.832 55.2864H103.328V57.8333H101.36C101.359 57.4133 101.3 56.9955 101.184 56.5909L101.608 56.4977C101.904 56.4175 102.172 56.2633 102.387 56.0507C102.602 55.8381 102.755 55.5746 102.832 55.2864ZM97.5681 56.785C97.8297 56.8189 98.0696 56.9439 98.2432 57.1367C98.4169 57.3296 98.5125 57.5772 98.5121 57.8333H97.4161C97.4063 57.4883 97.4439 57.1436 97.5281 56.8083L97.5681 56.785ZM100.328 56.785C100.428 57.126 100.479 57.4787 100.48 57.8333H99.3841C99.3894 57.5873 99.4824 57.3507 99.6472 57.1638C99.812 56.977 100.038 56.8513 100.288 56.8083L100.328 56.785ZM97.5121 58.6874H98.5121V60.4734C98.0104 59.9858 97.6515 59.3774 97.4721 58.7107L97.5121 58.6874ZM99.3841 58.6874H100.384C100.226 59.3604 99.8798 59.9782 99.3841 60.4734V58.6874Z" fill="white"/>
<path d="M35.32 60.0241C36.1941 59.7405 36.9542 59.1973 37.4926 58.4712C38.0311 57.7452 38.3205 56.8731 38.32 55.9786V52.3601H45.696V55.9786C45.7009 56.8729 45.9933 57.7436 46.5325 58.4688C47.0719 59.1941 47.831 59.7378 48.704 60.0241H35.32Z" fill="#FEDFC5"/>
<path d="M49.232 39.4305V48.1428C49.2323 48.7881 49.0618 49.4226 48.7368 49.9856C48.4117 50.5485 47.9432 51.021 47.376 51.3576L44 53.3221C43.3964 53.6755 42.7049 53.8623 42 53.8623C41.2951 53.8623 40.6036 53.6755 40 53.3221L36.656 51.342C36.0916 51.007 35.6252 50.5368 35.3016 49.9766C34.9781 49.4165 34.8081 48.7851 34.808 48.1428V39.4305C34.8069 38.8619 34.9214 38.2986 35.1449 37.773C35.3683 37.2473 35.6965 36.7696 36.1103 36.3672C36.5242 35.9647 37.0158 35.6455 37.5569 35.4276C38.0981 35.2097 38.6781 35.0977 39.264 35.0977H44.8C45.979 35.1038 47.1075 35.5632 47.9382 36.3754C48.7689 37.1876 49.2341 38.2861 49.232 39.4305Z" fill="#FEDFC5"/>
<path d="M44.8001 35.0977H41.9841C43.1666 35.0997 44.3 35.5571 45.1354 36.3694C45.9709 37.1818 46.4401 38.2827 46.4401 39.4305V48.1428C46.4404 48.7881 46.2699 49.4226 45.9449 49.9856C45.6198 50.5485 45.1513 51.021 44.5841 51.3576L41.2321 53.3376C41.0378 53.4514 40.8344 53.55 40.6241 53.6327C41.1745 53.8318 41.7641 53.9073 42.3488 53.8535C42.9335 53.7997 43.4981 53.618 44.0001 53.3221L47.3441 51.342C47.9149 51.0106 48.3884 50.5422 48.719 49.982C49.0496 49.4218 49.2263 48.7885 49.2321 48.1428V39.4305C49.2342 38.2861 48.769 37.1876 47.9383 36.3754C47.1076 35.5632 45.9791 35.1038 44.8001 35.0977Z" fill="#FECBAA"/>
<path d="M49.232 39.4305V43.4839L40.184 40.6496C40.0192 40.5963 39.845 40.5757 39.6719 40.5891C39.4987 40.6025 39.3301 40.6494 39.176 40.7273L34.808 42.9481V39.4305C34.8069 38.8619 34.9214 38.2986 35.1449 37.773C35.3683 37.2473 35.6965 36.7696 36.1103 36.3672C36.5242 35.9648 37.0158 35.6455 37.5569 35.4276C38.0981 35.2097 38.6781 35.0977 39.264 35.0977H44.8C45.979 35.1038 47.1075 35.5632 47.9382 36.3754C48.7689 37.1876 49.2341 38.2862 49.232 39.4305Z" fill="#C97F4C"/>
<path d="M44.7999 35.0977H41.9839C43.1666 35.0997 44.2999 35.5571 45.1354 36.3694C45.9707 37.1818 46.4399 38.2827 46.4399 39.4305V42.5987L49.2319 43.4839V39.4305C49.2341 38.2862 48.7689 37.1876 47.9381 36.3754C47.1074 35.5632 45.979 35.1038 44.7999 35.0977Z" fill="#AA6344"/>
<path d="M42.032 55.3801H36.432C35.31 55.3819 34.2026 55.6287 33.192 56.1023C32.3697 56.4515 31.6085 56.923 30.936 57.5C29.864 58.5716 29.704 58.7269 28.944 60.6836C28 63.0675 28.376 72.2147 28.376 72.2147H42.032V55.3801Z" fill="#33658A"/>
<path d="M42.032 55.3801H47.672C48.7806 55.3878 49.8736 55.6343 50.872 56.1023C51.6944 56.4515 52.4555 56.923 53.128 57.5C54.24 58.5716 54.4 58.7269 55.2 60.6836C56.128 63.0675 55.728 72.2147 55.728 72.2147H42.032V55.3801Z" fill="#33658A"/>
<path d="M43.808 54.324H39.984V56.8398H43.808V54.324Z" fill="#FEDFC5"/>
<path d="M46.6721 56.8396H36.84V64.659H46.6721V56.8396Z" fill="#C8D4D9"/>
<path d="M40.8 60.0471L39.984 63.0677L42.032 69.1632V60.6838L41.352 60.4198L40.8 60.0471Z" fill="#FF6B6B"/>
<path d="M40.7999 60.0464L41.0319 60.4036C41.0862 60.49 41.1626 60.5612 41.2537 60.6102C41.345 60.6593 41.4477 60.6844 41.5519 60.6831H42.0319V57.8955L40.2559 59.2233L40.7999 60.0464Z" fill="#E86262"/>
<path d="M38.528 53.9047C38.4404 53.8339 38.33 53.7952 38.216 53.7952C38.1021 53.7952 37.9917 53.8339 37.904 53.9047L36.84 55.3567L38.752 60.2642L42.032 57.8726V56.5525L38.528 53.9047Z" fill="#DCE9ED"/>
<path d="M37.232 55.3801H36.984C36.2507 55.315 35.5114 55.3596 34.792 55.5121L34.384 55.6441C34.184 55.7062 34.08 56.0323 34.048 56.2342L33.6 58.7346C33.5903 58.7961 33.5954 58.8589 33.6149 58.9181C33.6342 58.9774 33.6675 59.0315 33.712 59.0762L35.312 60.6292C35.3505 60.666 35.3787 60.7117 35.3941 60.7619C35.4095 60.8122 35.4115 60.8653 35.4 60.9165L34.944 62.7956C34.9307 62.8548 34.9309 62.9162 34.9447 62.9751C34.9585 63.0342 34.9856 63.0896 35.024 63.1373L42.032 72.2146V69.1086C42.0397 69.0649 42.0397 69.0204 42.032 68.9766L37.88 55.8537C37.8377 55.7184 37.752 55.5995 37.6356 55.5144C37.5191 55.4292 37.3779 55.3822 37.232 55.3801Z" fill="#2F5C7E"/>
<path d="M43.2561 60.0471L44.0721 63.0677L42.0161 69.1632V60.6838L42.7041 60.4198L43.2561 60.0471Z" fill="#FF6B6B"/>
<path d="M43.2561 60.0464L43.0161 60.4036C42.9632 60.4894 42.8881 60.5604 42.7984 60.6093C42.7086 60.6584 42.6072 60.6838 42.5041 60.6831H42.0161V57.8955L43.7921 59.2233L43.2561 60.0464Z" fill="#E86262"/>
<path d="M45.5199 53.9052C45.6087 53.8339 45.7205 53.7949 45.8359 53.7949C45.9512 53.7949 46.063 53.8339 46.1519 53.9052L47.1999 55.3805L45.2879 60.288L42.0079 57.8964V56.5763L45.5199 53.9052Z" fill="#DCE9ED"/>
<path d="M46.824 55.3799H47.072C47.8027 55.3144 48.5393 55.3589 49.256 55.5119L49.664 55.6439C49.864 55.706 49.968 56.0321 50.008 56.234L50.448 58.7343C50.4594 58.7952 50.4559 58.8578 50.4378 58.9171C50.4197 58.9765 50.3876 59.0309 50.344 59.076L48.744 60.629C48.7049 60.6652 48.6767 60.7111 48.6627 60.7618C48.6486 60.8124 48.649 60.8659 48.664 60.9163L49.112 62.7954C49.1271 62.8539 49.1285 62.9151 49.1159 62.9741C49.1035 63.0333 49.0776 63.0889 49.04 63.1371L42.016 72.2144V69.1084C42.0083 69.0647 42.0083 69.02 42.016 68.9764L46.144 55.838C46.1907 55.7004 46.2824 55.5812 46.4051 55.4986C46.5278 55.4159 46.6748 55.3742 46.824 55.3799Z" fill="#2F5C7E"/>
<path d="M57.0321 57.3594H55.4961L52.0001 65.6446L52.8001 66.3357L53.5201 65.6446L56.3121 59.1531L59.0961 65.6446L59.8401 66.3357L60.5761 65.6446L57.0321 57.3594Z" fill="#FDB659"/>
<path d="M72.8001 57.3594H71.2481L67.7441 65.6446L68.5041 66.3357L69.2321 65.6446L72.0001 59.1531L74.7841 65.6446L75.5281 66.3357L76.2641 65.6446L72.8001 57.3594Z" fill="#FDB659"/>
<path d="M53.424 56.6848H62.72V58.067H53.424V56.6848Z" fill="#FFD396"/>
<path d="M53.416 56.6848H74.864V58.067H53.416V56.6848Z" fill="#FDB659"/>
<path d="M64.144 53.6562H63.432V71.2129H64.856V53.6562H64.144Z" fill="#FDB659"/>
<path d="M57.6 72.2925V71.019H70.4V72.2925H57.6Z" fill="#FDB659"/>
<path d="M51.9999 65.645C51.9978 66.0998 52.0883 66.5504 52.2664 66.9709C52.4445 67.3916 52.7065 67.7739 53.0374 68.0957C53.3683 68.4176 53.7615 68.6728 54.1944 68.8465C54.6273 69.0203 55.0915 69.1092 55.5599 69.1082H56.9759C57.443 69.1092 57.9058 69.0209 58.3376 68.848C58.7695 68.6753 59.1621 68.4214 59.4927 68.1012C59.8234 67.7809 60.0858 67.4006 60.2648 66.9817C60.4438 66.563 60.5359 66.114 60.5359 65.6605L51.9999 65.645Z" fill="#FDB659"/>
<path d="M67.7439 65.645C67.7418 66.0998 67.8323 66.5504 68.0104 66.9709C68.1885 67.3916 68.4505 67.7739 68.7814 68.0957C69.1123 68.4176 69.5055 68.6728 69.9384 68.8465C70.3714 69.0203 70.8355 69.1092 71.3039 69.1082H72.7279C73.6699 69.1082 74.5734 68.745 75.2395 68.0984C75.9056 67.4519 76.2799 66.5749 76.2799 65.6605L67.7439 65.645Z" fill="#FDB659"/>
</g>
<defs>
<filter id="filter0_d" x="0" y="0" width="168" height="163.3" filterUnits="userSpaceOnUse" color-interpolation-filters="sRGB">
<feFlood flood-opacity="0" result="BackgroundImageFix"/>
<feColorMatrix in="SourceAlpha" type="matrix" values="0 0 0 0 0 0 0 0 0 0 0 0 0 0 0 0 0 0 127 0"/>
<feOffset dy="4"/>
<feGaussianBlur stdDeviation="2"/>
<feColorMatrix type="matrix" values="0 0 0 0 0.992157 0 0 0 0 0.713726 0 0 0 0 0.34902 0 0 0 0.15 0"/>
<feBlend mode="normal" in2="BackgroundImageFix" result="effect1_dropShadow"/>
<feBlend mode="normal" in="SourceGraphic" in2="effect1_dropShadow" result="shape"/>
</filter>
</defs>
</svg>
