<svg width="89" height="92" viewBox="0 0 89 92" fill="none" xmlns="http://www.w3.org/2000/svg">
<path opacity="0.3" d="M44.5 79.2002C53.8962 79.2002 61.5133 77.6242 61.5133 75.6802C61.5133 73.7361 53.8962 72.1602 44.5 72.1602C35.1038 72.1602 27.4866 73.7361 27.4866 75.6802C27.4866 77.6242 35.1038 79.2002 44.5 79.2002Z" fill="black"/>
<path d="M27.2142 53.6803L25.4542 51.9203C21.0654 46.9981 18.6611 40.6214 18.7075 34.027C18.6611 27.4325 21.0654 21.0558 25.4542 16.1336C26.0408 15.547 26.6275 14.667 27.2142 14.0803C32.161 9.73244 38.5216 7.33447 45.1075 7.33447C51.6934 7.33447 58.0541 9.73244 63.0008 14.0803L64.7608 15.8403C69.1496 20.7625 71.5539 27.1392 71.5075 33.7336C71.5539 40.3281 69.1496 46.7048 64.7608 51.627L63.0008 53.387L45.1075 71.5736L27.2142 53.6803Z" fill="#FFAE10"/>
<path d="M44.4999 8.80028C50.7708 8.7906 56.8263 11.0875 61.5133 15.2536L63.2732 17.0136C67.5292 21.6457 69.84 27.7376 69.7266 34.027C69.7363 40.2979 67.4394 46.3533 63.2732 51.0403L61.5133 52.8003L44.4999 71.0375L27.4866 52.507L25.7266 50.747C21.4706 46.1149 19.1599 40.023 19.2732 33.7336C19.2636 27.4627 21.5605 21.4073 25.7266 16.7203C26.3825 16.321 26.9756 15.8267 27.4866 15.2536C32.1736 11.0875 38.229 8.7906 44.4999 8.80028ZM44.4999 5.86695C37.5377 5.83722 30.8253 8.45926 25.7266 13.2003C24.9035 13.7305 24.2034 14.4306 23.6732 15.2536C18.9795 20.3818 16.365 27.075 16.3399 34.027C16.3102 40.9892 18.9322 47.7016 23.6732 52.8003C24.2822 53.5563 24.9706 54.2447 25.7266 54.8536L42.4466 73.0909L44.4999 75.1442L46.5532 73.0909L63.2732 54.8536C64.0293 54.2447 64.7177 53.5563 65.3266 52.8003C70.0203 47.6721 72.6349 40.9789 72.6599 34.027C72.6896 27.0647 70.0676 20.3523 65.3266 15.2536C64.7177 14.4976 64.0293 13.8092 63.2732 13.2003C58.1746 8.45926 51.4622 5.83722 44.4999 5.86695Z" fill="white"/>
<path d="M53.9905 48.1724L53.9545 33.0884L46.5385 45.5084H43.9465L36.5305 33.3764V48.1724H31.0585V22.9724H35.8825L45.3145 38.6324L54.6025 22.9724H59.4265L59.4625 48.1724H53.9905Z" fill="white"/>
</svg>
