<svg xmlns="http://www.w3.org/2000/svg" viewBox="0 0 368.24 606.81"><defs><style>.cls-1{fill:#3f3f6d;}.cls-2{fill:#363563;}.cls-3{fill:#7cc2a5;}.cls-4{fill:#f58869;}.cls-5{fill:#6b6889;}.cls-6{fill:#6cc19a;}.cls-7{fill:#ef8067;}.cls-8{fill:#341e14;}.cls-9{fill:#301e16;}.cls-10{fill:#f26b55;}.cls-11{fill:#f58b6d;}.cls-12{fill:#fffaf1;}.cls-13{fill:#473123;}.cls-14{fill:#b0d235;}.cls-15{fill:#35345c;}.cls-16{fill:#78c0e9;}.cls-17{fill:#3e3e66;}.cls-18{fill:#3c3c68;}.cls-19{fill:#8c7ebb;}.cls-20{fill:#ffc525;}.cls-21{fill:none;stroke:#341e14;stroke-miterlimit:10;}.cls-22{fill:#fff;}.cls-23{fill:#2a2c2d;}.cls-24{fill:#f2655a;}</style></defs><title>Ресурс 9</title><g id="Шар_2" data-name="Шар 2"><g id="Усиновлення"><rect class="cls-1" x="197.92" y="229.17" width="95.16" height="74.14"/><rect class="cls-1" x="187.99" y="316.19" width="101.58" height="20.92"/><path class="cls-1" d="M102.8,252.11c-.06-.1-.14-.19-.21-.29l-7.24,7.24c15.88,11.75,63,.45,77.49,13.68,3.78.35,8.41.25,11.48-1.6A180.62,180.62,0,0,0,175.87,251C162.21,256.3,114.36,261,102.8,252.11Z"/><path class="cls-2" d="M173,250.26l-70.15,1.35-.21.21c.07.1.15.19.21.29,11.56,8.88,59.41,4.19,73.07-1.13-.41-.85-.83-1.7-1.25-2.55A10.34,10.34,0,0,1,173,250.26Z"/><path class="cls-1" d="M93.8,260.61s49.74,18.5,74.88,12.61c1.16.24,2.11-.67,4.16-.48-14.49-13.23-61.61-1.93-77.49-13.68Z"/><g id="жінка"><path class="cls-3" d="M93.09,196.43a12.33,12.33,0,0,0-3.71-.82c-6.87-.39-29.9-1.58-32.73.12a27.7,27.7,0,0,0-11.48,4.64A7.26,7.26,0,0,0,43.68,202c-2.39,3.44-11.25,16.18-20.38,29.8a123.4,123.4,0,0,1,8.35,13.64A36.52,36.52,0,0,0,36.53,253l.95-1.09s-.14.69-.34,1.77a20.9,20.9,0,0,0,4.51,3.73,20.9,20.9,0,0,1-4.51-3.73C36.45,257.2,35,264.87,35,265.6c22.26,3.46,46,4.45,67.8-1.92.78-.73,1.59-1.42,2.44-2.07,2.58-2,5.76-5.88,5.76-13.21,0,0-2.09-14.39-4.19-21.61a1.49,1.49,0,0,1,1.72-1.88c13.72,2.75,78.74,15.71,83.8,14.82,0,0,1-18.67,7.67-24.33C200,215.4,157.43,221.61,93.09,196.43Z"/><path class="cls-4" d="M195.94,219.65c28.67,4.57,28.73,4.27,32.55,4.48a3.67,3.67,0,0,0,2.07-.51c1.85-1.09,6.12-3.57,7.63-4l1.45-.4a95.54,95.54,0,0,1,12.08-2.6,1.81,1.81,0,0,1,2,1.8h0a.63.63,0,0,1-.42.59L247.69,221l8.66-1a1.14,1.14,0,0,1,1.28,1.13h0a.74.74,0,0,1-.58.72l-12.42,2.69h10.48a.82.82,0,0,1,.76,1.12l0,.09a1.68,1.68,0,0,1-1.44,1.05l-11,.74s9.12,1,9.31,1.06,0,.26-.06.56a2,2,0,0,1-1.92,1.52c-2.4.06-7.12.3-8.46,1.36a34.1,34.1,0,0,1-9,2.65,4.73,4.73,0,0,1-.52,0c-3.45,0-40.71.06-41.19,0Z"/><path class="cls-5" d="M19.4,330.16S8.74,349.79,9.33,368.85c0,.73.06,1.45.06,2.18,0,4,.76,21.61,10.67,43.78L32.49,448a58.61,58.61,0,0,1,3.73,19.55c.25,14.5.86,40.67,2,50.69a56.42,56.42,0,0,1,.35,6.23,46.39,46.39,0,0,0,1.27,10,86.74,86.74,0,0,1,2.24,19.19v23.88H52.73S56,556.75,59.4,533.32c3.52-24,7.26-50.89,8-61.18a20.11,20.11,0,0,0,0-4c-1.26-6.27-5.32-82.64-7-95.75-.13-1,1.83-1.42,1.83-1.42l-1.06-.52c.83-.17-.83,1.09-.77,1.94.63,9.86,5.13,63.17,7.66,84.91a72.18,72.18,0,0,1,.25,17.5l-6.25,55.5c-.4,3.56-1.59,7.72-1,11.5l2.34,35.67h12s24-215.33,24-220.33-2.67-23.34-4-24.34S19.4,330.16,19.4,330.16Z"/><path class="cls-4" d="M44.23,578.06s.12,11.34,0,12.09h8s-1-12.09-.47-12.09Z"/><path class="cls-4" d="M64.83,578.06s.12,11.34,0,12.09H73s-1-12.09-.48-12.09Z"/><path class="cls-6" d="M97.67,270.13a26.63,26.63,0,0,1,5.11-6.45C81,270.05,57.24,269.06,35,265.6a204.57,204.57,0,0,1-2.7,31.48c17.8-13.9,40.73-12.46,61.44-18.37A65,65,0,0,1,97.67,270.13Z"/><path class="cls-3" d="M32.28,297.08c-2.19,12.76-6.15,26.09-13.3,33.66l76.77,2.66s-12.38-27-2-54.69C73,284.62,50.08,283.18,32.28,297.08Z"/><path class="cls-4" d="M84.16,178.51c-9.69-.34-19-5.72-26.5-12.25l3.11,25.6a22,22,0,0,1,.14,3.24c-.18,5.12-.15,22.1,7.56,30.5a10.93,10.93,0,0,0,2.73,2.17c6.13.49,10.21-2.61,13.48-7.26a7.91,7.91,0,0,0,0-2.91l-3.56-20.19a18.35,18.35,0,0,1,.25-7.56Z"/><path class="cls-7" d="M85,175.16s-25.5-11.5-28-14.5l.68,5.6c7.48,6.53,16.81,11.91,26.5,12.25Z"/><path class="cls-7" d="M71.2,227.77A9.46,9.46,0,0,0,76.64,229c3-.26,6.38-2,8-8.07,0-.14.05-.27.08-.41C81.41,225.16,77.33,228.26,71.2,227.77Z"/><path class="cls-8" d="M108.87,55.44A19.26,19.26,0,0,0,97,37.4l-6.16-2.57a8.28,8.28,0,0,0-4-.6A39.9,39.9,0,0,0,82,35a11.13,11.13,0,0,0-6.8,4.81l-1.3,2a9.18,9.18,0,0,0-1.48,5v4.13a202.67,202.67,0,0,0,36.41,10.14Z"/><path class="cls-9" d="M106.4,68.85a5,5,0,0,0,2.35-4.17l0-3.61A202.67,202.67,0,0,1,72.38,50.93v.22a2.06,2.06,0,0,1-1.93,2.06l-1.15.08c11.42,5.8,22.22,12.92,34.76,17Z"/><path class="cls-8" d="M116.4,92.49a12.74,12.74,0,0,0-1.7-4.78c-2.61-4.36-9.45-15.63-11.32-17l.68-.43c-12.54-4.1-23.34-11.22-34.76-17-2.72.17-6.76.38-10.06.34a14.57,14.57,0,0,0-8.56,2.69c-8.23,5.81-24.49,20.76-25.39,48.58a22.79,22.79,0,0,0,2.84,11.74l18.68,33.83L52,115.3s31.75-9.83,32.75-30.16c0,0,12.92,11.6,18.92,13.27,0,0,3.33-1,9,25C112.71,123.43,117.91,103.44,116.4,92.49Z"/><path class="cls-10" d="M48.9,130.51s-2.55-5.32-5.82-8.39a4.67,4.67,0,0,0-2-1.09,7.07,7.07,0,0,0-2.54-.26,1.46,1.46,0,0,0-1.27,1.59c.23,2.35,1.14,8.49,4.66,13.1a3.68,3.68,0,0,0,2.66,1.43l1.28.11Z"/><path class="cls-11" d="M84.81,85.14s1,7.75-34.5,28.5c0,0-5.61,9.81-4.64,30.32a26,26,0,0,0,10.4,19.61c5,3.74,12.63,7.86,24.08,11.56a15.52,15.52,0,0,0,4.78.76h0a14.14,14.14,0,0,0,9.55-3.71,88.54,88.54,0,0,0,19.29-25.72,18,18,0,0,0,1.69-10.35,139.77,139.77,0,0,0-3.9-19.22s-3.25-17-5.25-19.5Z"/><path class="cls-8" d="M65.23,119.16s1.34-1,3.09-2.09a13.91,13.91,0,0,1,9.82-1.82,34.56,34.56,0,0,1,6.09,1.66,11.88,11.88,0,0,0,.66-3.13,2.77,2.77,0,0,0-2.14-2.8,33.91,33.91,0,0,0-6.41-.81,9.23,9.23,0,0,0-6.72,2.51C67.47,114.73,64.93,117.55,65.23,119.16Z"/><path class="cls-8" d="M107.33,107.41c-2.91-.12-7.62.17-10.85,2.75a11.61,11.61,0,0,0,1.75,4.5,15.21,15.21,0,0,1,11.75-4.5h0A2.75,2.75,0,0,0,107.33,107.41Z"/><ellipse class="cls-12" cx="77.16" cy="130.01" rx="6.18" ry="6.99"/><ellipse class="cls-12" cx="102.66" cy="127.27" rx="6.18" ry="6.99"/><circle class="cls-13" cx="78.41" cy="131.21" r="3.81"/><circle class="cls-13" cx="104.16" cy="128.21" r="3.81"/><path class="cls-10" d="M90.48,136.76l4.89,6.7a1.72,1.72,0,0,1-.26,2.29,13,13,0,0,1-7.77,3,1.09,1.09,0,0,1-1.06-1.48l1.54-4.18A18.07,18.07,0,0,0,88.9,138h0a1.34,1.34,0,0,1,1.34-1.26Z"/><path class="cls-4" d="M28,294.45s7.51,8.62,11.21,12.54a12.06,12.06,0,0,0,3.71,2.69c4.64,2.2,13,4.32,17.53,7.13,1.12.71,4.78,6.27,4.33,7.51-1.11,3.1-3.24,8.31-5.45,8.8,0,0-6.07,1.59-13.52-6.16a10,10,0,0,1-.88-1.07l-7.84-11a7.59,7.59,0,0,0-1.82-1.8L19,301.78Z"/><path class="cls-3" d="M23.3,231.76c-9,13.38-18.18,27.6-21.79,34.69A13.19,13.19,0,0,0,.1,274.1a16.92,16.92,0,0,0,2.55,7L17,306.4l14.33-12-12.16-19c-.69-1.63,4-7.72,5.5-8.67L36.53,253a36.52,36.52,0,0,1-4.88-7.59A123.4,123.4,0,0,0,23.3,231.76Z"/><path class="cls-14" d="M43.77,590.15l-2.53,8a1.43,1.43,0,0,0,1.36,1.87H65.65l.14-.7A2.69,2.69,0,0,0,64,596.23c-3.26-1-9-3.12-11.69-6.08Z"/><path class="cls-14" d="M64.61,590.15l-2.54,8a1.44,1.44,0,0,0,1.37,1.87h23l.15-.7a2.7,2.7,0,0,0-1.84-3.13c-3.25-1-9-3.12-11.68-6.08Z"/><path class="cls-10" d="M78.41,164.11s9,6.67,17.28-1.67C95.69,162.44,84.89,166.28,78.41,164.11Z"/><path class="cls-3" d="M34.15,298.63c8.67-5,17.75-9.73,27.73-11.27C67,286.58,72,285.22,77,284.15c5.21-1.1,10.65-1.14,15.6-3.22,1.76-.74,1-3.64-.79-2.9-5.2,2.19-11,2.22-16.48,3.42s-10.69,2.17-16,3.27a42.08,42.08,0,0,0-5.39,1.92c-2.51.87-5.17,1.18-7.67,2.12-4.84,1.83-9.15,4.73-13.62,7.28a1.5,1.5,0,0,0,1.52,2.59Z"/><path class="cls-3" d="M37.17,266c1.81-.35,4.18.49,5.94.91s2.68-2.45.79-2.9c-2.37-.56-5.09-1.38-7.53-.91-1.89.37-1.09,3.26.8,2.9Z"/><path class="cls-3" d="M37.61,266.05c2.17,1.13,3.79.81,6.2.91,3,.13,6,1,9,1.33a138.67,138.67,0,0,0,22.4,1c6.65-.29,14.21-.3,20.61-2.31,1.28-.4,2.28-1,3.49-1.51.65-.26,2.36-.5,2.88-.93a2.28,2.28,0,0,0,1-2.68c-.37-1.89-3.26-1.09-2.89.8-.3-1.5-3.24.55-3.88.83-3.1,1.32-6.36,1.58-9.7,1.92a163.07,163.07,0,0,1-17.25,1,146.72,146.72,0,0,1-15-.95c-2.8-.29-5.47-1-8.24-1.34-2.19-.3-5.12.38-7.13-.67-1.71-.89-3.23,1.7-1.52,2.59Z"/><path class="cls-3" d="M27,235.3l.15-1.06c.25-1-.73-2.31-1.84-1.85l1,.65-2.95-.4c0,1.62,0,4.12,1.47,5.24,1.94,1.51,4.81.08,6.9.82l-1.1-1.44c0,.47-4.37,1.35-4.26,1.34l.76,2.79a12.63,12.63,0,0,1,4.22-1.12l-1.06-2.56A7.41,7.41,0,0,1,27.57,239c-1.55.49-1.36,3.05.4,2.95.86,0,2.57.26,3.24-.11,1.11-.59.76-.91-1.05-.3-1.51.51-1.38,3.1.4,3a16.64,16.64,0,0,1,2.82-.12l-.76-2.8a17.59,17.59,0,0,1-6.57,1.28v3a25.76,25.76,0,0,1,5.62-.12q3.9,1.35,1.43-.54a11.32,11.32,0,0,1-2.39.52l.8,2.89a11.41,11.41,0,0,1,2.67-.26l-.4-3a44.71,44.71,0,0,1-4.9,1,1.5,1.5,0,0,0,.4,2.94c2.32-.05,6.53-.69,8.6.41l.35-2.74c-3.4.64-4.75-.06-6.32,3.26a1.52,1.52,0,0,0,1.29,2.26,5.58,5.58,0,0,0,4.24-1.15l-2-2-1.13,1.77L37,252.23c.69-4,4.17-7.52,3.46-11.75a1.47,1.47,0,0,0-1.05-1,10.14,10.14,0,0,0-3.3-.14l1.29,2.26-.33.27L35.22,240c.07-.46-4.81-.11-5.17-.25-3.3-1.29-1.93-3.11-2.39-5.36a2.55,2.55,0,0,0-1.05-2c-.06,0-1.67-.83-1.11,0-1.11-1.56-3.72-.06-2.59,1.51.3.42.84.64,1.1,1a4.26,4.26,0,0,0,.78.14,14,14,0,0,0,0,2.33c.11,1.8.45,4.16,2.26,5.08,2,1,6.33.6,8.5.29,1.25-.18,2.37-.49,2.58-1.9a1.52,1.52,0,0,0-1.84-1.85,2.06,2.06,0,0,0-1.46,1.1,1.52,1.52,0,0,0,1.3,2.26c1.5,0,1.34.17.91,1.59a18.75,18.75,0,0,1-1.36,2.82,17.09,17.09,0,0,0-1.55,4.72,1.51,1.51,0,0,0,2.74,1.16L38,250.81c.76-1.2-.83-3-2-2.05a2.66,2.66,0,0,1-2.73.74l1.3,2.25c.67-1.42.8-1.34,2.38-1.54.74-.09,1.41-.2,2.15-.34a1.51,1.51,0,0,0,.36-2.74c-2.81-1.49-7-.89-10.11-.82l.4,2.95a47.69,47.69,0,0,0,4.9-1c1.54-.53,1.37-3-.4-2.95a22.45,22.45,0,0,0-3.47.37c-1.9.36-1.08,3.21.8,2.89s6.33-1.13,5.15-4-8.44-2-10.61-1.77c-1.87.22-2,3.11,0,3a21.72,21.72,0,0,0,8.08-1.69c1.41-.63.64-2.8-.75-2.79a16.64,16.64,0,0,0-2.82.12l.4,2.94c1.76-.59,4.23-1.53,4.16-3.72a1.48,1.48,0,0,0-.74-1.3c-2-.88-4.3-.59-6.41-.46l.4,2.94a11.14,11.14,0,0,0,4-2.06,1.51,1.51,0,0,0-1.06-2.56,20.74,20.74,0,0,0-5.74,1.53c-1.34.57-.68,3,.76,2.8,2.2-.29,7.5-1.15,7.26-4.34a1.57,1.57,0,0,0-1.1-1.45c-2.42-.86-6.23,1.13-6.17-3.17a1.5,1.5,0,0,0-2.94-.4c-.46,1.78.61,3.91,2.71,3l-1.84-1.84A7.32,7.32,0,0,0,24,235.3c-.05,1.93,2.95,1.93,3,0Z"/></g><g id="чоловік"><path class="cls-15" d="M216.77,585.31v10.5H175v-2.64a3.15,3.15,0,0,1,2.57-3.09L203,585.31Z"/><polygon class="cls-11" points="202.9 583.77 203.02 585.31 215.65 585.31 215.65 583.77 202.9 583.77"/><polygon class="cls-11" points="258.56 580.54 258.67 583.4 269.11 583.4 269.11 580.54 258.56 580.54"/><path class="cls-16" d="M186,337s1.19,214.79,16.32,246.79h13.87S218,400.65,228,393.15s20.88,54.5,20.88,54.5l8.31,132.87,13.25.5S282,404.65,291.52,385.15c0,0,3.5-40.5,0-43C291.52,342.15,190,334.31,186,337Z"/><path class="cls-2" d="M166.08,271.92l3,1.5a12.68,12.68,0,0,1-1.63-1.19C166.59,272.06,166.08,271.92,166.08,271.92Z"/><path class="cls-1" d="M241.58,330.92c-19.44,4.86-37-.67-54.49-6.49,0,.26,0,.53-.06.8-.43,5-1.11,11-1.95,12.47l108,5.72s-4-8-3-10.5c0,0,.67-.91,1.59-2.22a51.42,51.42,0,0,0-7.09-1.78C269.58,325.92,256.58,327.92,241.58,330.92Z"/><path class="cls-17" d="M204.58,295.92c24.28-2.42,45.93-17.3,62.32-35.6-6.36,2.92-13,5.46-19.32,8.6C232.58,276.92,217.58,283.92,204.58,295.92Z"/><path class="cls-17" d="M256.19,229.17c-19.11,10.62-38.34,20.82-53.61,36.75C228.9,269,243.83,249.35,256.19,229.17Z"/><path class="cls-18" d="M368.11,277.94c-2.09-9.74-12.69-47.31-58.6-99.46a12.27,12.27,0,0,0-2.26-2c-7.78-5.29-48.63-30.47-99.24-12.57a5.83,5.83,0,0,0-2.54,1.78c-2.61,3.14-9.37,12.22-15.18,28.14,1.8,19.82,4.86,39.53-9.71,54.09a15.85,15.85,0,0,1-5.08,3.3A181.26,181.26,0,0,1,184,271.37a6.85,6.85,0,0,0,2.13-1.95c2.88-4.16,3.71.3,3.94,4a20.93,20.93,0,0,1-.64,6.5c-1.61,6.14-5.26,22.13-3,33.62a42.51,42.51,0,0,1,.74,10.85c17.5,5.82,35,11.35,54.49,6.49,15-3,28-5,43-2a51.42,51.42,0,0,1,7.09,1.78c2.07-2.93,5.41-7.89,5.41-9.28,0,0-7.75-45.51,6.3-90.79a2.85,2.85,0,0,1,3.19-2c2.65.46,6.76,1.72,9,5.25l25.53,32.62a1.87,1.87,0,0,1-.72,2.85L305.26,285c5.87,5.88,10.7,13.46,11.84,21.77,14.23-4.23,40.37-13.18,49.84-24.17A5.37,5.37,0,0,0,368.11,277.94ZM256.19,229.17c3.61-5.89,7-11.82,10.39-17.25-3.39,5.43-6.78,11.36-10.39,17.25a314.75,314.75,0,0,0,28.39-17.25,314.75,314.75,0,0,1-28.39,17.25c-12.36,20.18-27.29,39.85-53.61,36.75C217.85,250,237.08,239.79,256.19,229.17Zm10.71,31.15c-16.39,18.3-38,33.18-62.32,35.6,13-12,28-19,43-27,6.28-3.14,13-5.68,19.32-8.6a149.6,149.6,0,0,0,10.68-13.4,149.6,149.6,0,0,1-10.68,13.4c7.82-3.6,15.17-7.78,20.68-14.4C282.07,252.54,274.72,256.72,266.9,260.32Z"/><path class="cls-2" d="M190.29,193.83a153.44,153.44,0,0,0-7.21,28.09s-3.33,19.23-8.84,26.75q.64,1.28,1.26,2.55a15.85,15.85,0,0,0,5.08-3.3C195.15,233.36,192.09,213.65,190.29,193.83Z"/><path class="cls-15" d="M269.77,583v10.5H228v-2.64a3.15,3.15,0,0,1,2.57-3.09l27.1-4.77Z"/><path class="cls-4" d="M303.15,290.92l-4.06-1.83a13.52,13.52,0,0,0-6.67-1.12l-7.93.7-.64.31a1,1,0,0,0,0,1.7l.64.32-2.26,1.73a1.44,1.44,0,0,0,.39,2.49l2.2.78-1.37,1.2a1,1,0,0,0,.36,1.63l2,.59-.81,1.52c-.31,1.42.21,2.06,1.66,2.06h1.86l-.11.51a1,1,0,0,0,.95,1.16h4.53a2,2,0,0,1,2,1.95V311s4.33,2.33,8.67-4.67Z"/><path class="cls-1" d="M305.26,285l-3.18,1.41s-3.5,16,5.5,23c0,0,3.8-.94,9.52-2.64C316,298.47,311.13,290.89,305.26,285Z"/><path class="cls-7" d="M232.22,171.81a13.38,13.38,0,0,0,.76,4.78c1.6,4.42,5.85,12.64,15.91,15.21a24.63,24.63,0,0,0,7.19-.6C247.24,186,238.82,179.53,232.22,171.81Z"/><path class="cls-4" d="M274.89,164.63s3.34-23.27,5.66-36.11c-8.65,10.74-17.34,21.1-31.88,20.34-5.66-.57-11.32-2.42-17-4.64l2.71,13.16s-1.61,8.16-2.12,13.28c0,.38,0,.77-.05,1.15,6.6,7.72,15,14.14,23.86,19.39C263.43,189.53,273.92,183.78,274.89,164.63Z"/><path class="cls-10" d="M280.55,128.52c.79-4.35,1.46-7.51,1.84-8.14l-15.68,15.31s-16.32,12.75-36.82-.2l1.79,8.73c5.67,2.22,11.87,6.07,17.53,6.64C263.75,151.62,271.9,139.26,280.55,128.52Z"/><path class="cls-10" d="M210.31,68.88l-.61-.31a1.4,1.4,0,0,0-2,1.36C208,74,209.2,82.15,213,86c0,0,3.53-8.17-.61-15.17A5,5,0,0,0,210.31,68.88Z"/><path class="cls-10" d="M288.4,62.39l-2.34,21.67h.08a4.22,4.22,0,0,0,3.63-2,27.89,27.89,0,0,0,4-15S294.06,63.73,288.4,62.39Z"/><path class="cls-4" d="M287.06,79.19h-3.33c1.33-18-4.67-40-4.67-40-8,0-16.66-10-16.66-10-4,8.67-42.67,14.67-42.67,14.67L218.5,82.52l-4.77-.66c-2,3-2.49,22.54-2.62,32.38.94,6.45,25.29,27,25.29,27,1.7,2.14,11.89,1.54,19,.83a27.7,27.7,0,0,0,15.15-6.26c10.56-8.91,15.85-21.23,15.85-21.23l.66-2.67C287.73,109.19,287.06,79.19,287.06,79.19Z"/><ellipse class="cls-12" cx="267.06" cy="71.03" rx="7.67" ry="11.5"/><ellipse class="cls-12" cx="235.06" cy="69.69" rx="7.67" ry="11.5"/><circle class="cls-13" cx="266.71" cy="71.03" r="3.98"/><circle class="cls-13" cx="234.04" cy="71.03" r="3.98"/><path class="cls-8" d="M220.88,54.78c1,0,15.66-9,22.66-9.33,0,0,1.67,5,1.67,6.66,0,0-21.33,2.34-23,4.34Z"/><path class="cls-8" d="M255,44.28s-2,3.5-1.83,6.67a50.85,50.85,0,0,1,23.33,4.66l1-1.66S261.54,44,255,44.28Z"/><path class="cls-10" d="M246,77.79l-1.5,12.83a16.27,16.27,0,0,1-1.25,4.55c-.86,2-1.66,5.3.78,7.74,0,0,1.5,2.25,8.25,0,0,0,2.25-.25,1.5-4.75,0,0-2.59-15.12-3.14-21.12a1.89,1.89,0,0,0-1.87-1.72h0A2.78,2.78,0,0,0,246,77.79Z"/><path class="cls-10" d="M238,116.76s8,8.81,20.45.65C258.41,117.41,241.41,118.51,238,116.76Z"/><path class="cls-8" d="M218.9,82.54s0-36.27,2-38.27c0,0,33.85-5,40.85-14,0,0,6.33,10,17.33,9l4.67,40h3.33s6.84-55.1,4.34-59.6c0,0-3.5-8.5-19-9,0,0-3.86-14.95-48.55-9.32A21.5,21.5,0,0,0,217.71,3c-8.76,4-29,17.73-13.81,55.87l9.83,23Z"/><path class="cls-1" d="M305.68,287.7c2.69,1.27,4,4.64,5.49,7.1,1.64,2.78,4.86,6.44,4.56,9.8-.16,1.92,2.84,1.91,3,0,.36-4.12-3-7.94-5-11.31-1.75-3-3.28-6.63-6.57-8.18-1.74-.82-3.26,1.77-1.51,2.59Z"/><path class="cls-18" d="M259.43,228c6.31.44,9.86-2.43,14.22-6.5,1.88-1.76,3.94-3.5,5.89-5.18,2.5-2.16,5.84-2.79,8.36-5,1.46-1.28-.67-3.39-2.12-2.13-2.1,1.84-4.75,2.31-7,3.88-1.7,1.2-3.15,2.86-4.78,4.16-4.85,3.87-7.58,8.24-14.58,7.75-1.93-.13-1.92,2.87,0,3Z"/><path class="cls-18" d="M258.55,229.53a14.72,14.72,0,0,0,6.78-2.55c.82-.62,1.42-1.46,2.25-2.1a30.18,30.18,0,0,1,4.22-2.2c2.27-1.24,4-3.19,6.08-4.67,2.51-1.74,5.21-3.14,7.65-5,1.53-1.14,0-3.75-1.51-2.59-4,3-8.19,5.75-12.22,8.64-1.9,1.37-4.23,1.89-6.12,3.3-2.93,2.17-4.11,3.59-7.92,4.26-1.9.33-1.1,3.22.79,2.89Z"/><path class="cls-18" d="M268.53,210.27c-3.67,2-6.19,5.82-7.92,9.53-.81,1.73,1.73,3.26,2.59,1.51L266,215.6l-2.59-1.51c-1.34,2.88-3.42,5.06-4.58,8-1.33,3.37-2.73,6.69-2.77,10.34h3c-.06-5.54,3.29-9.16,6.28-13.35a58.48,58.48,0,0,1,8.21-9.51L271,208.52c0,3.56-3.76,8.47-5.32,11.54a62,62,0,0,0-3.81,9.06,1.52,1.52,0,0,0,1.85,1.85,48.47,48.47,0,0,0,12.95-7.28l-2.12-2.12a19.83,19.83,0,0,1-10.9,7.21l1.69,2.21a40.35,40.35,0,0,1,14.29-12.14c4.08-2,8.17-3.53,11.37-6.92a1.51,1.51,0,0,0-1.46-2.5l-13.49,2.27c-1.31.22-1.4,2.14-.36,2.74,3.06,1.76,17.19,7.18,17.54.05a1.53,1.53,0,0,0-.74-1.3c-6.49-4.13-16.11-4.34-23.53-5.27v3c9.17-.41,18.06,2.34,26.52,5.82l.8-2.9c-9-3.22-19.78-5.21-29.35-3.9-1.68.23-1.26,3,.4,2.94,4.5-.1,9-.24,13.5-.31s8.18,2.73,11.87,5c1.66,1,3.17-1.59,1.52-2.59-3.23-2-6.87-4.8-10.7-5.34-5.15-.73-11,.14-16.19.26l.4,3c9-1.22,19.29.89,27.75,3.91,1.85.66,2.54-2.18.8-2.9-4.43-1.82-9.24-3.31-13.76-4.89-4.22-1.49-9.18-1.23-13.56-1a1.5,1.5,0,0,0,0,3c5.51.69,11.07,1.22,16.42,2.81,2.49.75,6.1,1.33,1.13,1.14a20.49,20.49,0,0,1-9.3-3l-.36,2.74,13.49-2.27-1.46-2.51c-4.07,4.31-10.16,5.7-15,8.91a44.13,44.13,0,0,0-11.1,10.75c-.81,1.1.53,2.52,1.7,2.21a22.5,22.5,0,0,0,12.22-8,1.5,1.5,0,0,0-2.12-2.12,43.46,43.46,0,0,1-11.63,6.51l1.85,1.84A81.08,81.08,0,0,1,270.69,217c1.38-2.64,3.31-5.41,3.32-8.47a1.52,1.52,0,0,0-2.56-1.06c-3.92,3.59-6.6,7.28-9.74,11.53s-5.69,8.08-5.63,13.45a1.5,1.5,0,0,0,3,0c.08-6.43,4.37-11.34,6.94-16.84.81-1.73-1.72-3.25-2.59-1.51l-2.82,5.71,2.59,1.51c1.52-3.26,3.6-6.65,6.84-8.45,1.69-.93.18-3.53-1.51-2.59Z"/></g><g id="дівчинка"><path class="cls-11" d="M61.11,477.89s-2.78,9.16-3.2,13.83a24.18,24.18,0,0,0,1.48,9.55h0c1.5,1.8,2.55-2.12,2.55-2.12L65.12,490s.21-2.34,2.34.21l2.12,2.55s2.12,2.54,2.33.21A13.45,13.45,0,0,0,71,487.1a9.46,9.46,0,0,1-.91-3.23c-.08-1.19-.24-2.92-.55-5.22Z"/><path class="cls-11" d="M197.67,464.57s4.56,10.38,4.86,14.64a22,22,0,0,1-1.52,8.67h0c-1.39,1.61-2.28-2-2.28-2L196,477.53s-.15-2.13-2.13.16l-2,2.28s-2,2.28-2.13.15a12.38,12.38,0,0,1,.9-5.35,8.17,8.17,0,0,0,.89-2.93c.1-1.07.27-2.65.59-4.73Z"/><path class="cls-8" d="M190.76,395.3c-.14-1.35-.32-2.7-.52-4,.7-5.67,1.85-11.54-.2-17-.19-.53-.41-1-.64-1.53a70.28,70.28,0,0,0-9.06-26.36,76.09,76.09,0,0,0-5.73-12.06c-14-23.62-41.23-34-68.05-29.15-14.62,2.64-32.72,12-42.86,25.38l-1.17,1.42A3.41,3.41,0,0,0,61,333.21q-1.22,1.82-2.41,3.63a3,3,0,0,0-.51,1.7,15.27,15.27,0,0,0-1.68,4.53,3.51,3.51,0,0,0-.56,1.09,53.82,53.82,0,0,0-1.88,11c-2.79,12.32-.71,24.21,3,36.19a3,3,0,0,0,.29.63c0,.64.09,1.28.2,1.92A3.18,3.18,0,0,0,57.8,395v.26a3.74,3.74,0,0,0,.19,1.15c0,1.45.08,2.89.14,4.33q.59,13.36,1.87,26.69c.64,6.63.38,14.57,3,20.78a3.49,3.49,0,0,0,3,1.75c7.06.41,14.77-1.21,21.91-1.55q13.83-.66,27.67-1.16,26.73-1,53.48-1.33a3.44,3.44,0,0,0,1.28,0h.63c.08,0,.14,0,.22,0A12.66,12.66,0,0,0,183,437.92c1-2.32.94-4.9,1.36-7.31a39.16,39.16,0,0,0,3.7-8.2,3.83,3.83,0,0,0,1.21-2.45c0-.46.06-.9.1-1.36a3.22,3.22,0,0,0,.91-2.36v-3.05C190.38,407.21,191.36,401.29,190.76,395.3Z"/><path class="cls-2" d="M105.85,482.57s7,96.11,14.07,107.83h7S141,538.83,138.67,506c0,0,23.44,70.32,30.47,77.35h9.38s2.34-44.54-11.72-105.48Z"/><path class="cls-19" d="M114.73,402.57s-6.53-4.38,33.32.31c0,0,30.61,5.73,45.76,47.14.59,1.61,4.11,13.9,4.11,14.77l-2.63,2.62c0,.77.06.19-.61.59-5.64,3.37-4.48-11.6-27.32-38a1.44,1.44,0,0,0-2.53,1.05l4.31,49.19-70.32,4.69-3.52-53.4c1.75-1.72-14.74,2.14-24.41,49.81-.17.85-1.39,0-5-1.64L60,477.89c0-.74.26-4.61.41-5.33C69,433.06,97.48,396.1,114.73,402.57Z"/><path class="cls-20" d="M115.23,588.06s14.06-4.69,16.41,0c0,0,4.68,11.72,0,18.75H115.23S112.88,595.09,115.23,588.06Z"/><path class="cls-20" d="M170.59,581.8c3.14-1.1,7.52-2.15,10.27-.77,0,0,9.38,7,9.38,14.06,0,0-2.35,7-9.38,7,0,0-13.42-1.91-14.25-14.42A5.89,5.89,0,0,1,170.59,581.8Z"/><ellipse class="cls-11" cx="119.92" cy="359.51" rx="44.54" ry="43.37"/><path class="cls-11" d="M112.88,400.53V414.6s14.07,4.68,23.44,0L134,400.53Z"/><path class="cls-8" d="M175.11,335.3a67.74,67.74,0,0,0-27.58-25.4c-23.24-11.57-51.48-7.36-71.74,8.38-8.65,6.72-16.54,15.6-19.32,26.27a20.43,20.43,0,0,0-1,5.91c0,.18,0,.35-.05.54-.32,6.08-.65,22.44,8.73,22a3.51,3.51,0,0,0,3-1.74c7-14.06,35.8-7.47,48.68-7.84,11.17-.32,15.11-1.16,21.16-7.93a3.86,3.86,0,0,0,.67-.28l.58-.22a4,4,0,0,0,1.19-.69c.73.09,1.46.19,2.18.31.78.73,1.8,1.69,3.13,2.92s2,2.66,3.45,3.58c5,3.29,12.65,2,18.12,2,4.17-.06,10.08,1.07,13.68-1.5C187.57,356.17,178.58,341,175.11,335.3Z"/><path class="cls-21" d="M91.79,374.75c0-2.6,7.34-4.69,16.41-4.69"/><path class="cls-21" d="M149.22,371.23c0-1.3-8.39-2.34-18.76-2.34"/><ellipse class="cls-22" cx="101.75" cy="378.85" rx="6.45" ry="3.58"/><circle class="cls-23" cx="100.83" cy="379.46" r="1.83"/><ellipse class="cls-22" cx="138.29" cy="376.99" rx="6.45" ry="3.58"/><circle class="cls-23" cx="137.37" cy="377.6" r="1.83"/><path class="cls-24" d="M108.2,392.33s14.34,8.36,23.64,1.47C131.84,393.8,116.59,395.67,108.2,392.33Z"/></g><path class="cls-1" d="M106.58,264c10.58,2.92,21.35,3.06,32.26,3.55a66.77,66.77,0,0,0,7.35-.57c3.45-.24,5.86.87,9.1,1.48,2.53.46,5-.15,7.53.5,2.9.74,5.51,2.42,8,4,1.65,1,3.16-1.58,1.52-2.59-3.79-2.35-7.64-4.53-12.19-4.79-5-.28-9.56-2.13-14.58-1.55-6.31.74-12.31-.25-18.63-.23a70.84,70.84,0,0,1-19.59-2.67,1.5,1.5,0,0,0-.8,2.89Z"/><path class="cls-1" d="M171.83,270.14a64.59,64.59,0,0,1-10.59.25c-1.92-.11-1.92,2.89,0,3a64.59,64.59,0,0,0,10.59-.25c1.9-.2,1.92-3.2,0-3Z"/><path class="cls-1" d="M165.91,272.3c3.38.14,6.7.62,9.83-.92,1.74-.85.22-3.43-1.51-2.59-2.51,1.23-5.62.62-8.32.51-1.93-.09-1.92,2.91,0,3Z"/><path class="cls-1" d="M110.64,257.26c3.2,1.43,6.53,1.44,10,1.62q7.88.4,15.77.45c9.11.05,19.56.91,28.19-2.49,1.45-.57,1.43-3.06-.4-2.94-3.22.2-6.44.42-9.64.85-4.12.56-8.67,2.38-12.81,1.6-1.89-.35-2.7,2.54-.8,2.89,3.19.6,5.81,0,8.93-.64a102.86,102.86,0,0,1,14.32-1.7l-.4-2.95c-7.8,3.07-17.16,2.38-25.42,2.38q-5.91,0-11.83-.19c-4.49-.16-10.26.37-14.38-1.47-1.75-.78-3.28,1.81-1.52,2.59Z"/><path class="cls-1" d="M149.33,258.53c3.18,0,6.49.18,9.6-.55a61.38,61.38,0,0,1,7.88-1.71,26.42,26.42,0,0,0,4.05-.53,33.32,33.32,0,0,0,15.36-9c1.39-1.38-.67-3.38-2.12-2.12a24,24,0,0,0-3.36,3.55c-1.17,1.5.94,3.64,2.12,2.12a24.55,24.55,0,0,1,3.36-3.55l-2.12-2.12c-4.34,4.32-9.76,7.8-16,8.52s-12.28,2.28-18.76,2.38c-1.93,0-1.93,3,0,3Z"/><path class="cls-1" d="M191.53,205.05c1.86,9,.31,19.43-2.66,28-1.64,4.74-3.15,9.18-6.57,13a80.53,80.53,0,0,1-9.94,9c-1.52,1.2.62,3.31,2.12,2.12,4.22-3.33,8.57-6.92,11.86-11.21,2.71-3.53,4-7.89,5.42-12,3.17-9.19,4.64-20,2.66-29.63-.39-1.89-3.28-1.09-2.89.8Z"/><path class="cls-1" d="M190.37,195.2c1.1,12.21,1.95,25.17-3.9,36.37-.89,1.71,1.69,3.23,2.59,1.51,6.13-11.73,5.47-25.07,4.31-37.88-.17-1.91-3.17-1.93-3,0Z"/><path class="cls-1" d="M186.26,232.81c-2.25,8.38-6.1,16.42-9.1,24.61-.67,1.81,2.23,2.6,2.89.8,3-8.26,6.83-16.15,9.1-24.61a1.5,1.5,0,0,0-2.89-.8Z"/><path class="cls-1" d="M180.82,247.52a9.15,9.15,0,0,1-.5,1.26,13.41,13.41,0,0,1-1,2.12,27.18,27.18,0,0,0-1.5,3.91c-.59,1.84,2.31,2.63,2.9.8a24.85,24.85,0,0,1,1.82-4.32,10.6,10.6,0,0,0,1.24-3.77c.17-1.92-2.83-1.91-3,0Z"/><path class="cls-1" d="M192.82,195.28a1.5,1.5,0,0,0,0-3,1.5,1.5,0,0,0,0,3Z"/><path class="cls-1" d="M193.22,195.53a3.4,3.4,0,0,0,1.53-3,1.5,1.5,0,1,0-3,0s0,.41,0,.23-.06.19-.07.21c.08-.18,0,0,0,0,.27-.14-.2.14.05,0a1.53,1.53,0,0,0-.54,2.05,1.51,1.51,0,0,0,2.05.54Z"/></g></g></svg>