<svg xmlns="http://www.w3.org/2000/svg" viewBox="0 0 397.45 233.11"><title>Ресурс 19</title><g id="Шар_2" data-name="Шар 2"><g id="аліменти"><g id="Layer_1" data-name="Layer 1"><path d="M158.19,169.61c-3-3-15.35-8.67-26-5-19.35,6.66-22.17,39.82-14,54,1.09,1.89,3.45,4.35,10,7a34.58,34.58,0,0,0,17,2c1.78-.3,1.75-2.87,2-4" style="stroke:#000;stroke-miterlimit:10"/><ellipse cx="149.2" cy="197.62" rx="30.12" ry="16.79" transform="translate(-75.64 301.35) rotate(-77.71)" style="fill:#fff;stroke:#000;stroke-miterlimit:10"/><ellipse cx="148.73" cy="197.58" rx="13.66" ry="7.61" transform="translate(-75.98 300.86) rotate(-77.71)" style="fill:#666;stroke:#000;stroke-miterlimit:10"/><path d="M277.73,157.24c-3-3-15.35-8.67-26-5-19.35,6.66-22.17,39.82-14,54,1.09,1.89,3.45,4.35,10,7a34.58,34.58,0,0,0,17,2c1.78-.3,1.75-2.87,2-4" style="stroke:#000;stroke-miterlimit:10"/><path d="M127.19,212.61c-1.7,2.44-5.17,5.46-13.19,6.55L13.19,204.61c-4-5.5-14.76-22-13-44,1.54-19.16,11.9-32,19-41,15-19,30.19-13.92,39-31,10.31-20,5.64-31.17,22.29-52.73A83.94,83.94,0,0,1,97.19,19.61c21.8-15.88,46-16.1,72-16,32.1.13,48.15.19,64,12,18.6,13.85,25.9,35.6,27,39,4.85,15,2,18.82,10.5,25.5,18.5,14.5,21.33,26.52,27,44,5.32,16.41,7.4,30.5-7.5,46.5-.11-.84-1.75-11.63-11-16-8.44-4-19.61-.91-26,8l-12,35c-25,3.67-52.5,8.83-77.5,12.5,12.4-20.37,12.47-41.87,3.5-47.5-7.31-4.59-20.25-.43-28,5-2.6,1.82-7.2,5-10,11C122.81,192.17,133.43,203.63,127.19,212.61Z" style="fill:#46427a"/><ellipse cx="268.74" cy="185.24" rx="30.12" ry="16.79" transform="translate(30.55 408.41) rotate(-77.71)" style="fill:#fff;stroke:#000;stroke-miterlimit:10"/><path d="M349.69,224.11c-3.25-3.19-4.21-10.07-4.43-11.72-.05-.39-.26-2-.75-4.16-.38-1.67-.75-2.88-.82-3.12-1.8-6-2-18-2-18-.18-10.64-.27-16,2-20,2.1-3.74,3.56-3.43,5-7,2.46-6.06,1.34-14.58-3-17-2.52-1.4-4.38.22-12,2-3.86.9-12,2.8-20,2-10.6-1.06-14.41-6.17-17-4-3.1,2.6-1.1,12.83,5,18,4.14,3.51,6.79,1.83,11,5,4.7,3.53,5.8,9.35,8,21,1.43,7.56.19,5,2,25,.7,7.76-.87,9.76-3,12" style="fill:#341e14"/><path d="M351.69,205.11a25.86,25.86,0,0,0,23-11c-.33-1.67-.67-3.33-1-5a27,27,0,0,0,7-5c2-2,3.53-3.55,4-6a9.42,9.42,0,0,0-1-6l9-13a111.67,111.67,0,0,1-9-11c-3.6-5-4-6.53-4-8,.07-3.28,2.41-5.59,7-10a71.44,71.44,0,0,1,10-8,37.75,37.75,0,0,0,0-15c-1.58-7.61-5.18-12.54-10-19-5.83-7.81-10.43-14-19-19a52.33,52.33,0,0,0-24-7l-8,7q-1,7-2,14Z" style="fill:#33658a"/><path d="M265.69,97.11q-10.06,9-20,18l6,29a44.19,44.19,0,0,0,5,22,83,83,0,0,1,3-13c1.66-5.21,3.46-8.88,7-16,9.05-18.2,13.54-22.75,16-25a49,49,0,0,1,5-4,75.24,75.24,0,0,1,1,11c.06,3.31-.07,8-2,19-3.18,18-4.77,27.07-5,28-.77,3.1-2,6.91,0,10,1.9,2.94,5.73,3.74,8,4,0-.18-.86,3,2,14,.78,3,3.87,6.45,8,8,5,1.89,13,2,13,2l-6-30,10-3c-2-4-4-6-6-7-1.45-.73-1.45-.45-4-3-2-2-3-3-3-5a275.89,275.89,0,0,0-5-36c-1.15-5.46-2.56-11.15-2-19a108.57,108.57,0,0,1,3-17c.74-2.91,1.46-5.31,2-7l-9-4Q279.22,85,265.69,97.11Z" style="fill:#33658a"/><path d="M282.7,50.61A9.76,9.76,0,0,1,277,48.73c-2.67-2.27-4.7-7.67-1.92-11.32a8,8,0,0,1,5.64-2.8l1.15-.1-.85-.77a4.95,4.95,0,0,1,3.31-8.66,4.92,4.92,0,0,1,2.14.48l3.27,1.54L287,24.73a4.75,4.75,0,0,1-.93-6.33,4.77,4.77,0,0,1,3.8-1.82,3.41,3.41,0,0,1,2.45.88c.85.85.85.85.85,2.65v2.12l.95-1.89a17.82,17.82,0,0,0,.91-2.54,23.71,23.71,0,0,1,4-8.37c4.22-5.17,10.5-8.13,18.66-8.82.81-.07,1.64-.1,2.46-.1a31.66,31.66,0,0,1,18.21,6l.2.14,10.12-3a5.62,5.62,0,0,1,4.49,3.63,4.87,4.87,0,0,1,0,2.72l-.19.66.69,0h.22c.7,0,3.09.13,4.36,1.81,1.52,2,1.12,5.78-1.88,8.27-6.56,3.19-61.92,29.92-73.58,29.92Z" style="fill:#fff"/><path d="M320.19,1a31.15,31.15,0,0,1,17.92,5.92l.4.29.47-.14,5-1.5,4.76-1.43a5.1,5.1,0,0,1,4,3.26,4.34,4.34,0,0,1,0,2.44l-.37,1.33,1.38-.06h.2c.64,0,2.83.12,4,1.61,1.37,1.8,1,5.24-1.75,7.55-28.36,13.78-64.53,29.84-73.31,29.84h-.13a9.37,9.37,0,0,1-5.37-1.76c-2.79-2.37-4.21-7.53-1.85-10.63a7.55,7.55,0,0,1,5.29-2.61l2.29-.2-1.71-1.54a4.44,4.44,0,0,1,3-7.78,4.61,4.61,0,0,1,1.93.43l6.54,3.09-5.45-4.75a4.29,4.29,0,0,1-.85-5.65,4.25,4.25,0,0,1,3.39-1.62,3,3,0,0,1,2.09.73c.71.71.71.71.71,2.29v4.24l1.89-3.79a20.3,20.3,0,0,0,.94-2.61,23.17,23.17,0,0,1,3.94-8.2c4.14-5.06,10.3-8,18.31-8.64.79-.07,1.61-.11,2.41-.11m0-1c-.81,0-1.65,0-2.5.11-2.88.24-12.5,1-19,9-3.38,4.13-4,9-5,11,0-2,0-2-1-3a3.92,3.92,0,0,0-2.8-1,5.26,5.26,0,0,0-4.2,2,5.27,5.27,0,0,0,1,7,5.46,5.46,0,0,0-6,9,8.6,8.6,0,0,0-6,3c-2.82,3.7-1,9.44,2,12a10.1,10.1,0,0,0,6,2h.15c11.9,0,67.24-26.79,73.85-30,3.19-2.62,3.74-6.71,2-9-1.41-1.85-3.93-2-4.76-2h-.24a5.35,5.35,0,0,0,0-3,6.16,6.16,0,0,0-5-4l-10,3A32.26,32.26,0,0,0,320.19,0Z"/><path d="M293.69,26.11c-5.77,8.5-9,13.29-11,21-1.69,6.59-3.43,13.39,0,20,3.69,7.12,11.13,9.67,15,11,11.51,4,21.85.42,26-1,5.8-2,9.63-4.62,16-9,5.38-3.7,8.11-5.62,10-9,3.67-6.55,1.94-13.89,1-17a7.59,7.59,0,0,0,5,2c3.84-.08,6.19-3.73,7-5a14.07,14.07,0,0,0,2-6c.42-2.77.89-6-1-9a10.08,10.08,0,0,0-5-4,9,9,0,0,0-7,0,8.56,8.56,0,0,0-4,4,45.32,45.32,0,0,0-7-6,48.69,48.69,0,0,0-7-4,44.17,44.17,0,0,0-13-4c-3.56-.49-7.22-1-11,0C303.57,11.71,300.2,16.53,293.69,26.11Z" style="fill:#f26d57"/><circle cx="302.69" cy="27.11" r="4.5" style="fill:#fff;stroke:#fff;stroke-miterlimit:10"/><path d="M249.69,118.11c2.87,3.9,4.31,5.86,5,8a15.18,15.18,0,0,1,0,9,14.42,14.42,0,0,1-5,7,13.78,13.78,0,0,1-4,2,38.12,38.12,0,0,1-3,4,26.47,26.47,0,0,1-4,4c-2.16,1.68-2.11,1-5,3-1.79,1.26-2.64,2.12-4,2a2.7,2.7,0,0,1-2-1c-.83-1.31.76-2.93,0-4s-2.33-.12-3-1c-1-1.37,2.06-4.55,1-6-.63-.86-2-.14-3-1-1.54-1.36-.29-5.12,0-6,2.46-7.43,15.8-15.19,19-17a20.83,20.83,0,0,1-4-7,21.07,21.07,0,0,1-1-8c.18-2.75.45-6.8,3-8a3.21,3.21,0,0,1,3,0c1.54,1.06.32,3.53,1,8a21.81,21.81,0,0,0,3,8l.21.34A30.2,30.2,0,0,0,249.69,118.11Z" style="fill:#f26d57"/><path d="M329.69,87.11l30,65,13-12-5-11c-5.44-5-6.94-12.46-4-18s9.07-6.82,10-7l-9-20a83.43,83.43,0,0,1-14,3A84.05,84.05,0,0,1,329.69,87.11Z" style="fill:#dce9ed"/><path d="M363.69,111.11c-2.22-1.55-3.24-.41-6-2a11.25,11.25,0,0,1-5-6c-.85-2.79.34-4.07-1-6-1-1.45-2.94-2.55-4-2-.58.3-.79,1-1,3-.46,4.29-.69,6.43,0,8a11.62,11.62,0,0,0,5,5,13.6,13.6,0,0,0,2,1,34.84,34.84,0,0,0-6,5c-1.86,1.94-1,1.5-4,5-2,2.33-3.14,3.42-3,5a3,3,0,0,0,1,2,3.59,3.59,0,0,0,4,0,4.4,4.4,0,0,0-3,2,3.67,3.67,0,0,0,0,4,3.48,3.48,0,0,0,2,1,6.29,6.29,0,0,0,3,0,1.84,1.84,0,0,0-1,1c-.37,1.1.82,2.48,2,3a4.34,4.34,0,0,0,3,0,24.39,24.39,0,0,0,7-3c5.5-3.88,9.09-6.42,10-11,.57-2.89-.18-5.33-1-8S366,112.74,363.69,111.11Z" style="fill:#f26d57"/><circle cx="313.69" cy="24.11" r="4.5" style="fill:#fff;stroke:#fff;stroke-miterlimit:10"/><circle cx="303.69" cy="28.11" r="2"/><circle cx="314.69" cy="25.11" r="2"/><path d="M302.19,60.61c2.28,1.26,9.54,3.17,15,3,12.17-.39,16.21-10.79,17-12" style="fill:none;stroke:#000;stroke-miterlimit:10"/><path d="M318.19,44.61a16.46,16.46,0,0,1-2,1c-7.08,2.94-13.32-.54-15,2a2.65,2.65,0,0,0-.06,2.57c1.13,2.1,5.85,2.26,12.06.43" style="fill:none;stroke:#000;stroke-miterlimit:10"/><ellipse cx="268.27" cy="185.21" rx="13.66" ry="7.61" transform="translate(30.22 407.92) rotate(-77.71)" style="fill:#666;stroke:#000;stroke-miterlimit:10"/><path d="M254.19,60.61c5,47-27.19,41-53,41s-50.56-2.38-50.56-27.22c0-15.2,23.75-48.78,49.56-48.78C235.19,25.61,252.58,45.5,254.19,60.61Z" style="fill:#fff"/><path d="M150.19,54.61c0,22-17.39,38-37,38s-39-2-39-20.5c0-11.32,16.39-31.5,36-31.5S150.19,43.29,150.19,54.61Z" style="fill:#fff"/><ellipse cx="316.19" cy="228.11" rx="19.5" ry="5" style="fill:#73452d"/><ellipse cx="346.19" cy="227.11" rx="19.5" ry="5" style="fill:#73452d"/></g></g></g></svg>