<svg xmlns="http://www.w3.org/2000/svg" viewBox="0 0 401.83 479.65"><title>criminal</title><g id="Шар_2" data-name="Шар 2"><g id="Med"><g id="criminal"><line x1="0.6" y1="79.77" x2="350.79" y2="79.77" style="fill:none;stroke:#000;stroke-miterlimit:10;stroke-width:0.7087000012397766px"/><line x1="0.6" y1="65.8" x2="350.79" y2="65.8" style="fill:none;stroke:#000;stroke-miterlimit:10;stroke-width:0.7087000012397766px"/><line y1="93.73" x2="350.19" y2="93.73" style="fill:none;stroke:#000;stroke-miterlimit:10;stroke-width:1.4172999858856201px"/><line x1="0.6" y1="65.8" x2="350.79" y2="65.8" style="fill:none;stroke:#000;stroke-miterlimit:10;stroke-width:0.7087000012397766px"/><line y1="93.73" x2="350.19" y2="93.73" style="fill:none;stroke:#000;stroke-miterlimit:10;stroke-width:1.4172999858856201px"/><line x1="0.6" y1="79.77" x2="350.79" y2="79.77" style="fill:none;stroke:#000;stroke-miterlimit:10;stroke-width:0.7087000012397766px"/><line x1="0.6" y1="65.8" x2="350.79" y2="65.8" style="fill:none;stroke:#000;stroke-miterlimit:10;stroke-width:0.7087000012397766px"/><line y1="93.73" x2="350.19" y2="93.73" style="fill:none;stroke:#000;stroke-miterlimit:10;stroke-width:1.4172999858856201px"/><line x1="0.6" y1="65.8" x2="350.79" y2="65.8" style="fill:none;stroke:#000;stroke-miterlimit:10;stroke-width:0.7087000012397766px"/><line y1="93.73" x2="350.19" y2="93.73" style="fill:none;stroke:#000;stroke-miterlimit:10;stroke-width:1.4172999858856201px"/><line x1="0.6" y1="121.67" x2="350.79" y2="121.67" style="fill:none;stroke:#000;stroke-miterlimit:10;stroke-width:0.7087000012397766px"/><line x1="0.6" y1="107.71" x2="350.79" y2="107.71" style="fill:none;stroke:#000;stroke-miterlimit:10;stroke-width:0.7087000012397766px"/><line y1="135.63" x2="350.19" y2="135.63" style="fill:none;stroke:#000;stroke-miterlimit:10;stroke-width:1.4172999858856201px"/><line x1="0.6" y1="107.71" x2="350.79" y2="107.71" style="fill:none;stroke:#000;stroke-miterlimit:10;stroke-width:0.7087000012397766px"/><line y1="135.63" x2="350.19" y2="135.63" style="fill:none;stroke:#000;stroke-miterlimit:10;stroke-width:1.4172999858856201px"/><line x1="0.6" y1="121.67" x2="350.79" y2="121.67" style="fill:none;stroke:#000;stroke-miterlimit:10;stroke-width:0.7087000012397766px"/><line x1="0.6" y1="107.71" x2="350.79" y2="107.71" style="fill:none;stroke:#000;stroke-miterlimit:10;stroke-width:0.7087000012397766px"/><line y1="135.63" x2="350.19" y2="135.63" style="fill:none;stroke:#000;stroke-miterlimit:10;stroke-width:1.4172999858856201px"/><line x1="0.6" y1="107.71" x2="350.79" y2="107.71" style="fill:none;stroke:#000;stroke-miterlimit:10;stroke-width:0.7087000012397766px"/><line y1="135.63" x2="350.19" y2="135.63" style="fill:none;stroke:#000;stroke-miterlimit:10;stroke-width:1.4172999858856201px"/><line x1="0.6" y1="163.56" x2="350.79" y2="163.56" style="fill:none;stroke:#000;stroke-miterlimit:10;stroke-width:0.7087000012397766px"/><line x1="0.6" y1="149.6" x2="350.79" y2="149.6" style="fill:none;stroke:#000;stroke-miterlimit:10;stroke-width:0.7087000012397766px"/><line y1="177.52" x2="350.19" y2="177.52" style="fill:none;stroke:#000;stroke-miterlimit:10;stroke-width:1.4172999858856201px"/><line x1="0.6" y1="149.6" x2="350.79" y2="149.6" style="fill:none;stroke:#000;stroke-miterlimit:10;stroke-width:0.7087000012397766px"/><line y1="177.52" x2="350.19" y2="177.52" style="fill:none;stroke:#000;stroke-miterlimit:10;stroke-width:1.4172999858856201px"/><line x1="0.6" y1="163.56" x2="350.79" y2="163.56" style="fill:none;stroke:#000;stroke-miterlimit:10;stroke-width:0.7087000012397766px"/><line x1="0.6" y1="149.6" x2="350.79" y2="149.6" style="fill:none;stroke:#000;stroke-miterlimit:10;stroke-width:0.7087000012397766px"/><line y1="177.52" x2="350.19" y2="177.52" style="fill:none;stroke:#000;stroke-miterlimit:10;stroke-width:1.4172999858856201px"/><line x1="0.6" y1="149.6" x2="350.79" y2="149.6" style="fill:none;stroke:#000;stroke-miterlimit:10;stroke-width:0.7087000012397766px"/><line y1="177.52" x2="350.19" y2="177.52" style="fill:none;stroke:#000;stroke-miterlimit:10;stroke-width:1.4172999858856201px"/><line x1="0.6" y1="205.45" x2="350.79" y2="205.45" style="fill:none;stroke:#000;stroke-miterlimit:10;stroke-width:0.7087000012397766px"/><line x1="0.6" y1="191.49" x2="350.79" y2="191.49" style="fill:none;stroke:#000;stroke-miterlimit:10;stroke-width:0.7087000012397766px"/><line y1="219.41" x2="350.19" y2="219.41" style="fill:none;stroke:#000;stroke-miterlimit:10;stroke-width:1.4172999858856201px"/><line x1="0.6" y1="191.49" x2="350.79" y2="191.49" style="fill:none;stroke:#000;stroke-miterlimit:10;stroke-width:0.7087000012397766px"/><line y1="219.41" x2="350.19" y2="219.41" style="fill:none;stroke:#000;stroke-miterlimit:10;stroke-width:1.4172999858856201px"/><line x1="0.6" y1="205.45" x2="350.79" y2="205.45" style="fill:none;stroke:#000;stroke-miterlimit:10;stroke-width:0.7087000012397766px"/><line x1="0.6" y1="191.49" x2="350.79" y2="191.49" style="fill:none;stroke:#000;stroke-miterlimit:10;stroke-width:0.7087000012397766px"/><line y1="219.41" x2="350.19" y2="219.41" style="fill:none;stroke:#000;stroke-miterlimit:10;stroke-width:1.4172999858856201px"/><line x1="0.6" y1="191.49" x2="350.79" y2="191.49" style="fill:none;stroke:#000;stroke-miterlimit:10;stroke-width:0.7087000012397766px"/><line y1="219.41" x2="350.19" y2="219.41" style="fill:none;stroke:#000;stroke-miterlimit:10;stroke-width:1.4172999858856201px"/><line x1="0.6" y1="247.34" x2="350.79" y2="247.34" style="fill:none;stroke:#000;stroke-miterlimit:10;stroke-width:0.7087000012397766px"/><line x1="0.6" y1="233.38" x2="350.79" y2="233.38" style="fill:none;stroke:#000;stroke-miterlimit:10;stroke-width:0.7087000012397766px"/><line y1="261.32" x2="350.19" y2="261.32" style="fill:none;stroke:#000;stroke-miterlimit:10;stroke-width:1.4172999858856201px"/><line x1="0.6" y1="233.38" x2="350.79" y2="233.38" style="fill:none;stroke:#000;stroke-miterlimit:10;stroke-width:0.7087000012397766px"/><line y1="261.32" x2="350.19" y2="261.32" style="fill:none;stroke:#000;stroke-miterlimit:10;stroke-width:1.4172999858856201px"/><line x1="0.6" y1="247.34" x2="350.79" y2="247.34" style="fill:none;stroke:#000;stroke-miterlimit:10;stroke-width:0.7087000012397766px"/><line x1="0.6" y1="233.38" x2="350.79" y2="233.38" style="fill:none;stroke:#000;stroke-miterlimit:10;stroke-width:0.7087000012397766px"/><line y1="261.32" x2="350.19" y2="261.32" style="fill:none;stroke:#000;stroke-miterlimit:10;stroke-width:1.4172999858856201px"/><line x1="0.6" y1="233.38" x2="350.79" y2="233.38" style="fill:none;stroke:#000;stroke-miterlimit:10;stroke-width:0.7087000012397766px"/><line y1="261.32" x2="350.19" y2="261.32" style="fill:none;stroke:#000;stroke-miterlimit:10;stroke-width:1.4172999858856201px"/><line x1="0.6" y1="289.24" x2="350.79" y2="289.24" style="fill:none;stroke:#000;stroke-miterlimit:10;stroke-width:0.7087000012397766px"/><line x1="0.6" y1="275.28" x2="350.79" y2="275.28" style="fill:none;stroke:#000;stroke-miterlimit:10;stroke-width:0.7087000012397766px"/><line y1="303.21" x2="350.19" y2="303.21" style="fill:none;stroke:#000;stroke-miterlimit:10;stroke-width:1.4172999858856201px"/><line x1="0.6" y1="275.28" x2="350.79" y2="275.28" style="fill:none;stroke:#000;stroke-miterlimit:10;stroke-width:0.7087000012397766px"/><line y1="303.21" x2="350.19" y2="303.21" style="fill:none;stroke:#000;stroke-miterlimit:10;stroke-width:1.4172999858856201px"/><line x1="0.6" y1="289.24" x2="350.79" y2="289.24" style="fill:none;stroke:#000;stroke-miterlimit:10;stroke-width:0.7087000012397766px"/><line x1="0.6" y1="275.28" x2="350.79" y2="275.28" style="fill:none;stroke:#000;stroke-miterlimit:10;stroke-width:0.7087000012397766px"/><line y1="303.21" x2="350.19" y2="303.21" style="fill:none;stroke:#000;stroke-miterlimit:10;stroke-width:1.4172999858856201px"/><line x1="0.6" y1="275.28" x2="350.79" y2="275.28" style="fill:none;stroke:#000;stroke-miterlimit:10;stroke-width:0.7087000012397766px"/><line y1="303.21" x2="350.19" y2="303.21" style="fill:none;stroke:#000;stroke-miterlimit:10;stroke-width:1.4172999858856201px"/><line x1="0.6" y1="331.13" x2="350.79" y2="331.13" style="fill:none;stroke:#000;stroke-miterlimit:10;stroke-width:0.7087000012397766px"/><line x1="0.6" y1="317.17" x2="350.79" y2="317.17" style="fill:none;stroke:#000;stroke-miterlimit:10;stroke-width:0.7087000012397766px"/><line y1="345.1" x2="350.19" y2="345.1" style="fill:none;stroke:#000;stroke-miterlimit:10;stroke-width:1.4172999858856201px"/><line x1="0.6" y1="317.17" x2="350.79" y2="317.17" style="fill:none;stroke:#000;stroke-miterlimit:10;stroke-width:0.7087000012397766px"/><line y1="345.1" x2="350.19" y2="345.1" style="fill:none;stroke:#000;stroke-miterlimit:10;stroke-width:1.4172999858856201px"/><line x1="0.6" y1="331.13" x2="350.79" y2="331.13" style="fill:none;stroke:#000;stroke-miterlimit:10;stroke-width:0.7087000012397766px"/><line x1="0.6" y1="317.17" x2="350.79" y2="317.17" style="fill:none;stroke:#000;stroke-miterlimit:10;stroke-width:0.7087000012397766px"/><line y1="345.1" x2="350.19" y2="345.1" style="fill:none;stroke:#000;stroke-miterlimit:10;stroke-width:1.4172999858856201px"/><line x1="0.6" y1="317.17" x2="350.79" y2="317.17" style="fill:none;stroke:#000;stroke-miterlimit:10;stroke-width:0.7087000012397766px"/><line y1="345.1" x2="350.19" y2="345.1" style="fill:none;stroke:#000;stroke-miterlimit:10;stroke-width:1.4172999858856201px"/><line x1="0.6" y1="373.02" x2="350.79" y2="373.02" style="fill:none;stroke:#000;stroke-miterlimit:10;stroke-width:0.7087000012397766px"/><line x1="0.6" y1="359.06" x2="350.79" y2="359.06" style="fill:none;stroke:#000;stroke-miterlimit:10;stroke-width:0.7087000012397766px"/><line y1="386.99" x2="350.19" y2="386.99" style="fill:none;stroke:#000;stroke-miterlimit:10;stroke-width:1.4172999858856201px"/><line x1="0.6" y1="359.06" x2="350.79" y2="359.06" style="fill:none;stroke:#000;stroke-miterlimit:10;stroke-width:0.7087000012397766px"/><line y1="386.99" x2="350.19" y2="386.99" style="fill:none;stroke:#000;stroke-miterlimit:10;stroke-width:1.4172999858856201px"/><line x1="0.6" y1="373.02" x2="350.79" y2="373.02" style="fill:none;stroke:#000;stroke-miterlimit:10;stroke-width:0.7087000012397766px"/><line x1="0.6" y1="359.06" x2="350.79" y2="359.06" style="fill:none;stroke:#000;stroke-miterlimit:10;stroke-width:0.7087000012397766px"/><line y1="386.99" x2="350.19" y2="386.99" style="fill:none;stroke:#000;stroke-miterlimit:10;stroke-width:1.4172999858856201px"/><line x1="0.6" y1="359.06" x2="350.79" y2="359.06" style="fill:none;stroke:#000;stroke-miterlimit:10;stroke-width:0.7087000012397766px"/><line y1="386.99" x2="350.19" y2="386.99" style="fill:none;stroke:#000;stroke-miterlimit:10;stroke-width:1.4172999858856201px"/><line x1="0.6" y1="414.93" x2="350.79" y2="414.93" style="fill:none;stroke:#000;stroke-miterlimit:10;stroke-width:0.7087000012397766px"/><line x1="0.6" y1="400.95" x2="350.79" y2="400.95" style="fill:none;stroke:#000;stroke-miterlimit:10;stroke-width:0.7087000012397766px"/><line y1="428.89" x2="350.19" y2="428.89" style="fill:none;stroke:#000;stroke-miterlimit:10;stroke-width:1.4172999858856201px"/><line x1="0.6" y1="400.95" x2="350.79" y2="400.95" style="fill:none;stroke:#000;stroke-miterlimit:10;stroke-width:0.7087000012397766px"/><line y1="428.89" x2="350.19" y2="428.89" style="fill:none;stroke:#000;stroke-miterlimit:10;stroke-width:1.4172999858856201px"/><line x1="0.6" y1="414.93" x2="350.79" y2="414.93" style="fill:none;stroke:#000;stroke-miterlimit:10;stroke-width:0.7087000012397766px"/><line x1="0.6" y1="400.95" x2="350.79" y2="400.95" style="fill:none;stroke:#000;stroke-miterlimit:10;stroke-width:0.7087000012397766px"/><line y1="428.89" x2="350.19" y2="428.89" style="fill:none;stroke:#000;stroke-miterlimit:10;stroke-width:1.4172999858856201px"/><line x1="0.6" y1="400.95" x2="350.79" y2="400.95" style="fill:none;stroke:#000;stroke-miterlimit:10;stroke-width:0.7087000012397766px"/><line y1="428.89" x2="350.19" y2="428.89" style="fill:none;stroke:#000;stroke-miterlimit:10;stroke-width:1.4172999858856201px"/><line x1="0.6" y1="456.82" x2="350.79" y2="456.82" style="fill:none;stroke:#000;stroke-miterlimit:10;stroke-width:0.7087000012397766px"/><line x1="0.6" y1="442.85" x2="350.79" y2="442.85" style="fill:none;stroke:#000;stroke-miterlimit:10;stroke-width:0.7087000012397766px"/><line y1="470.78" x2="350.19" y2="470.78" style="fill:none;stroke:#000;stroke-miterlimit:10;stroke-width:1.4172999858856201px"/><line x1="0.6" y1="442.85" x2="350.79" y2="442.85" style="fill:none;stroke:#000;stroke-miterlimit:10;stroke-width:0.7087000012397766px"/><line y1="470.78" x2="350.19" y2="470.78" style="fill:none;stroke:#000;stroke-miterlimit:10;stroke-width:1.4172999858856201px"/><line x1="0.6" y1="456.82" x2="350.79" y2="456.82" style="fill:none;stroke:#000;stroke-miterlimit:10;stroke-width:0.7087000012397766px"/><line x1="0.6" y1="442.85" x2="350.79" y2="442.85" style="fill:none;stroke:#000;stroke-miterlimit:10;stroke-width:0.7087000012397766px"/><line y1="470.78" x2="350.19" y2="470.78" style="fill:none;stroke:#000;stroke-miterlimit:10;stroke-width:1.4172999858856201px"/><line x1="0.6" y1="442.85" x2="350.79" y2="442.85" style="fill:none;stroke:#000;stroke-miterlimit:10;stroke-width:0.7087000012397766px"/><line y1="470.78" x2="350.19" y2="470.78" style="fill:none;stroke:#000;stroke-miterlimit:10;stroke-width:1.4172999858856201px"/><line x1="0.88" y1="37.88" x2="351.07" y2="37.88" style="fill:none;stroke:#000;stroke-miterlimit:10;stroke-width:0.7087000012397766px"/><line x1="0.88" y1="23.91" x2="351.07" y2="23.91" style="fill:none;stroke:#000;stroke-miterlimit:10;stroke-width:0.7087000012397766px"/><line x1="0.3" y1="51.84" x2="350.49" y2="51.84" style="fill:none;stroke:#000;stroke-miterlimit:10;stroke-width:1.4172999858856201px"/><line x1="0.88" y1="9.95" x2="351.07" y2="9.95" style="fill:none;stroke:#000;stroke-miterlimit:10;stroke-width:1.4172999858856201px"/><line x1="0.88" y1="23.91" x2="351.07" y2="23.91" style="fill:none;stroke:#000;stroke-miterlimit:10;stroke-width:0.7087000012397766px"/><line x1="0.3" y1="51.84" x2="350.49" y2="51.84" style="fill:none;stroke:#000;stroke-miterlimit:10;stroke-width:1.4172999858856201px"/><line x1="0.88" y1="9.95" x2="351.07" y2="9.95" style="fill:none;stroke:#000;stroke-miterlimit:10;stroke-width:1.4172999858856201px"/><line x1="0.88" y1="37.88" x2="351.07" y2="37.88" style="fill:none;stroke:#000;stroke-miterlimit:10;stroke-width:0.7087000012397766px"/><line x1="0.88" y1="23.91" x2="351.07" y2="23.91" style="fill:none;stroke:#000;stroke-miterlimit:10;stroke-width:0.7087000012397766px"/><line x1="0.3" y1="51.84" x2="350.49" y2="51.84" style="fill:none;stroke:#000;stroke-miterlimit:10;stroke-width:1.4172999858856201px"/><line x1="0.88" y1="9.95" x2="351.07" y2="9.95" style="fill:none;stroke:#000;stroke-miterlimit:10;stroke-width:1.4172999858856201px"/><line x1="0.88" y1="23.91" x2="351.07" y2="23.91" style="fill:none;stroke:#000;stroke-miterlimit:10;stroke-width:0.7087000012397766px"/><line x1="0.3" y1="51.84" x2="350.49" y2="51.84" style="fill:none;stroke:#000;stroke-miterlimit:10;stroke-width:1.4172999858856201px"/><line x1="0.88" y1="9.95" x2="351.07" y2="9.95" style="fill:none;stroke:#000;stroke-miterlimit:10;stroke-width:1.4172999858856201px"/><path d="M358.36,21.12c.62-1.14,1.23-2.22,1.83-3.25s1.74-3.06,3.43-6.1l2.82-5.11c.19-.36.52-1,1-1.8-.94,0-1.65,0-2.15,0q-3.33,0-7.26.21c.11-1.35.19-2.89.22-4.64h17.18l-.24,4.78-3.82,7-2.43,4.58c-.64,1.27-1.38,2.74-2.18,4.38Z"/><path d="M383,10.5a8.91,8.91,0,0,1-1.37-.72,4.72,4.72,0,0,1-.84-.72,3.88,3.88,0,0,1-.68-.94,3.41,3.41,0,0,1-.37-1.07A5.68,5.68,0,0,1,379.64,6a5.14,5.14,0,0,1,.7-2.67,5.51,5.51,0,0,1,2.09-2,9.26,9.26,0,0,1,2.93-1A18.4,18.4,0,0,1,388.65,0a14.48,14.48,0,0,1,3.18.36,7.76,7.76,0,0,1,2.63,1.11,4.84,4.84,0,0,1,1.62,1.74,5.06,5.06,0,0,1,.51,2.35,5.12,5.12,0,0,1-.14,1.26A4,4,0,0,1,396,7.93a4.23,4.23,0,0,1-.71.94,6,6,0,0,1-.87.74,13,13,0,0,1-1.56.83c.68.19,1.21.34,1.57.48a4.31,4.31,0,0,1,1.91,1.52,3.68,3.68,0,0,1,.52,1.12,4.56,4.56,0,0,1,.16,1.23,5.8,5.8,0,0,1-.79,2.9,5.87,5.87,0,0,1-2.13,2.21A9.29,9.29,0,0,1,391,21.11a17.8,17.8,0,0,1-3.65.38,17.71,17.71,0,0,1-3.45-.33A9.23,9.23,0,0,1,381,20a5,5,0,0,1-1.88-1.85,4.92,4.92,0,0,1-.59-2.41,5.6,5.6,0,0,1,.22-1.53,4.91,4.91,0,0,1,1.67-2.53,5.61,5.61,0,0,1,1.13-.7A15.19,15.19,0,0,1,383,10.5Zm4.84,2a3.37,3.37,0,0,0-2.24.69,2.22,2.22,0,0,0-.8,1.79,2.18,2.18,0,0,0,.36,1.19,2.2,2.2,0,0,0,1,.83,3.79,3.79,0,0,0,1.48.28,3.53,3.53,0,0,0,1.5-.3,2.4,2.4,0,0,0,1.08-.91,2.37,2.37,0,0,0,.39-1.37,2,2,0,0,0-.73-1.62A3.42,3.42,0,0,0,387.85,12.52Zm.39-8.32a2.8,2.8,0,0,0-2,.67,2.13,2.13,0,0,0-.74,1.65,1.89,1.89,0,0,0,.32,1.06,1.94,1.94,0,0,0,.89.73,3.43,3.43,0,0,0,1.25.23,3,3,0,0,0,1.95-.64,2.09,2.09,0,0,0,.78-1.68A1.79,1.79,0,0,0,390,4.76,2.75,2.75,0,0,0,388.24,4.2Z"/><path d="M357.78,60.32c.62-1.15,1.23-2.23,1.83-3.26S361.35,54,363,51l2.82-5.11c.19-.36.52-1,1-1.8h-2.15c-2.22,0-4.64.06-7.26.2.11-1.35.19-2.88.22-4.64h17.18l-.24,4.78-3.82,7-2.43,4.58c-.64,1.27-1.38,2.74-2.18,4.39Z"/><path d="M379,60l-.11-1.53c0-.51-.07-1-.11-1.35s-.11-1.07-.22-2a21.66,21.66,0,0,0,5.48.9,6.18,6.18,0,0,0,2.15-.35,3.19,3.19,0,0,0,1.5-1,2.15,2.15,0,0,0,.54-1.39,1.8,1.8,0,0,0-1.09-1.68,7.73,7.73,0,0,0-3.38-.56c-.67,0-1.35,0-2,.06s-1.53.14-2.66.28l.81-9.81c0-.48.07-1.16.1-2l7.71,0c3.13,0,5.73,0,7.82,0-.1,1-.16,1.88-.17,2.51l-.08,2.07-2.12-.08-1,0h-4l-1.63,0-.33,3.48c.73,0,1.27-.08,1.67-.08a11.86,11.86,0,0,1,4.38.75,5.68,5.68,0,0,1,2.78,2.1,5.53,5.53,0,0,1,.87,3.06,6.2,6.2,0,0,1-.89,3.18A6.61,6.61,0,0,1,392.6,59a11.94,11.94,0,0,1-3.61,1.3,21.62,21.62,0,0,1-4.21.41c-.55,0-1.19,0-1.93-.1s-1.38-.14-1.88-.22Z"/><path d="M358.36,102.21c.62-1.15,1.23-2.23,1.83-3.26s1.74-3.06,3.43-6.1l2.82-5.11c.19-.36.52-.95,1-1.8h-2.15c-2.22,0-4.64.06-7.26.2.11-1.35.19-2.88.22-4.64h17.18l-.24,4.78-3.82,7-2.43,4.58c-.64,1.27-1.38,2.74-2.18,4.39Z"/><path d="M378.3,102.21c.05-.47.08-1.11.11-1.9s.07-1.58.11-2.4c1.12-.86,2.12-1.69,3.06-2.5,1.5-1.32,2.84-2.56,4-3.72.92-.92,1.7-1.77,2.33-2.54a4.66,4.66,0,0,0,.72-1.14,1.85,1.85,0,0,0,.13-.66,1.47,1.47,0,0,0-.21-.77,1.54,1.54,0,0,0-.65-.54,4.48,4.48,0,0,0-1.09-.37,6.92,6.92,0,0,0-1.45-.14,16,16,0,0,0-2.35.19c-.83.13-2,.36-3.39.71l.42-2.18c.1-.44.24-1.27.41-2.51a51,51,0,0,1,7.88-.67,17.62,17.62,0,0,1,3.22.28,8.42,8.42,0,0,1,2.74,1A5.17,5.17,0,0,1,396.11,84a3.55,3.55,0,0,1,.61,2,5.71,5.71,0,0,1-.17,1.37,6.68,6.68,0,0,1-.66,1.54A13.87,13.87,0,0,1,394.38,91a37.91,37.91,0,0,1-3.07,3.29q-1.67,1.6-4,3.62l1.75,0,2.46,0,2.57-.06c.49,0,1.07-.07,1.77-.15,0,.49-.08,1.1-.15,1.82s-.15,1.62-.22,2.68c-2.65,0-5.43,0-8.33,0Z"/><path d="M368.64,130.89a8.74,8.74,0,0,1,1.58-.14,7.74,7.74,0,0,1,3.29.68,4.68,4.68,0,0,1,2.21,2.12,6.8,6.8,0,0,1,.75,3.2,7.35,7.35,0,0,1-.34,2.25,7.84,7.84,0,0,1-1,2,7.69,7.69,0,0,1-1.58,1.65,7.4,7.4,0,0,1-2,1.09,13.58,13.58,0,0,1-2.28.57,16.87,16.87,0,0,1-2.46.18,12.69,12.69,0,0,1-5-.92,6.49,6.49,0,0,1-3.11-2.52,6.74,6.74,0,0,1-1-3.53,12,12,0,0,1,1.43-5.58,38.59,38.59,0,0,1,2.47-4.21,53,53,0,0,1,3.2-4.36H373c-1.61,1.77-2.69,3-3.21,3.6-.75.9-1.46,1.84-2.13,2.79a27.07,27.07,0,0,0-1.66,2.67,22.51,22.51,0,0,0-1.13,2.41,6.67,6.67,0,0,0-.39,1.3,6,6,0,0,0-.13,1.15,3.1,3.1,0,0,0,.3,1.36,2.28,2.28,0,0,0,.91,1,2.7,2.7,0,0,0,1.45.38,2.79,2.79,0,0,0,1.41-.36,2.08,2.08,0,0,0,.91-1,2.91,2.91,0,0,0,.3-1.33,1.94,1.94,0,0,0-.94-1.79,3.64,3.64,0,0,0-1.86-.56,7.64,7.64,0,0,0-.87.08c.26-.38.71-1.1,1.38-2.18Z"/><path d="M382.35,144.11c.94-1.06,1.82-2.11,2.65-3.12s1.66-2.06,2.49-3.19,1.47-2.07,1.91-2.79a17.12,17.12,0,0,0,1.07-2.07,11,11,0,0,0,.54-1.58,5,5,0,0,0,.15-1.21,3.34,3.34,0,0,0-.3-1.44,2.12,2.12,0,0,0-.91-1,2.77,2.77,0,0,0-1.35-.31,3,3,0,0,0-2.11.77,2.58,2.58,0,0,0-.88,2,2.28,2.28,0,0,0,.33,1.25,2.12,2.12,0,0,0,1,.8,3.32,3.32,0,0,0,1.34.28,5.94,5.94,0,0,0,1.16-.17c-1,1.36-2.06,2.82-3.11,4.34a7,7,0,0,1-.92.08,7.83,7.83,0,0,1-2.29-.38,6.62,6.62,0,0,1-2.19-1.14,5,5,0,0,1-1.45-2,6.8,6.8,0,0,1-.5-2.54,7.18,7.18,0,0,1,3.15-6,9.89,9.89,0,0,1,3.26-1.42,15.94,15.94,0,0,1,3.81-.43,14,14,0,0,1,3.62.47,7.16,7.16,0,0,1,2.85,1.44,6,6,0,0,1,1.65,2.34,7.16,7.16,0,0,1,.55,2.62,10.88,10.88,0,0,1-.22,2,13.38,13.38,0,0,1-.71,2.34,26.49,26.49,0,0,1-1.35,2.8,35.3,35.3,0,0,1-2,3.23c-.79,1.1-1.74,2.4-2.89,3.89h-8.3Z"/><path d="M369.22,172.78a8.78,8.78,0,0,1,1.58-.15,7.74,7.74,0,0,1,3.29.69,4.68,4.68,0,0,1,2.21,2.12,6.8,6.8,0,0,1,.75,3.2,7.35,7.35,0,0,1-.34,2.25,8,8,0,0,1-1,2,7.42,7.42,0,0,1-1.58,1.64,7.18,7.18,0,0,1-2,1.1,13.58,13.58,0,0,1-2.28.57,16.87,16.87,0,0,1-2.46.18,12.69,12.69,0,0,1-5-.92,6.49,6.49,0,0,1-3.11-2.52,6.74,6.74,0,0,1-1-3.53,12,12,0,0,1,1.43-5.58,37.67,37.67,0,0,1,2.47-4.21,53,53,0,0,1,3.2-4.36h8.18c-1.61,1.77-2.69,3-3.21,3.6-.75.9-1.46,1.84-2.13,2.79a27.07,27.07,0,0,0-1.66,2.67,22.51,22.51,0,0,0-1.13,2.41A6.67,6.67,0,0,0,365,178a6,6,0,0,0-.13,1.15,3.1,3.1,0,0,0,.3,1.36,2.28,2.28,0,0,0,.91,1,2.7,2.7,0,0,0,1.45.38,2.79,2.79,0,0,0,1.41-.36,2.12,2.12,0,0,0,.91-1,2.91,2.91,0,0,0,.3-1.33,1.93,1.93,0,0,0-.94-1.79,3.64,3.64,0,0,0-1.86-.56,7.64,7.64,0,0,0-.87.08c.25-.38.71-1.1,1.38-2.18Z"/><path d="M390.53,172.78a8.87,8.87,0,0,1,1.58-.15,7.74,7.74,0,0,1,3.29.69,4.68,4.68,0,0,1,2.21,2.12,6.8,6.8,0,0,1,.75,3.2,7.35,7.35,0,0,1-.34,2.25,8,8,0,0,1-1,2,7.52,7.52,0,0,1-3.6,2.74,13.69,13.69,0,0,1-2.29.57,16.87,16.87,0,0,1-2.46.18,12.69,12.69,0,0,1-5-.92,6.41,6.41,0,0,1-3.1-2.52,6.66,6.66,0,0,1-1-3.53,12,12,0,0,1,1.43-5.58,39.56,39.56,0,0,1,2.48-4.21,53,53,0,0,1,3.19-4.36h8.18c-1.61,1.77-2.69,3-3.21,3.6-.75.9-1.46,1.84-2.13,2.79a29.11,29.11,0,0,0-1.66,2.67,22.51,22.51,0,0,0-1.13,2.41,7.44,7.44,0,0,0-.39,1.3,6,6,0,0,0-.13,1.15,3.24,3.24,0,0,0,.3,1.36,2.28,2.28,0,0,0,.91,1,2.74,2.74,0,0,0,1.46.38,2.84,2.84,0,0,0,1.41-.36,2.23,2.23,0,0,0,.91-1,3,3,0,0,0,.29-1.33,1.93,1.93,0,0,0-.94-1.79,3.58,3.58,0,0,0-1.86-.56,7.32,7.32,0,0,0-.86.08c.25-.38.7-1.1,1.38-2.18Z"/><path d="M369.81,214.67a8.87,8.87,0,0,1,1.58-.15,7.71,7.71,0,0,1,3.29.69,4.64,4.64,0,0,1,2.21,2.12,6.69,6.69,0,0,1,.76,3.2,7.06,7.06,0,0,1-.35,2.25,7.38,7.38,0,0,1-1,2,7.2,7.2,0,0,1-1.58,1.64,7.13,7.13,0,0,1-2,1.1,13.69,13.69,0,0,1-2.29.57,16.76,16.76,0,0,1-2.46.18,12.72,12.72,0,0,1-5-.92,6.46,6.46,0,0,1-3.1-2.52,6.77,6.77,0,0,1-1-3.53,12.91,12.91,0,0,1,.26-2.43,14,14,0,0,1,1.16-3.15,39.56,39.56,0,0,1,2.48-4.21,49.26,49.26,0,0,1,3.2-4.36h8.18c-1.62,1.77-2.7,3-3.22,3.6-.75.9-1.45,1.84-2.13,2.79a29.11,29.11,0,0,0-1.66,2.67,24.63,24.63,0,0,0-1.13,2.41,7.44,7.44,0,0,0-.39,1.3,5.9,5.9,0,0,0-.12,1.14,3.28,3.28,0,0,0,.29,1.37,2.34,2.34,0,0,0,.91,1,2.76,2.76,0,0,0,1.46.38,2.84,2.84,0,0,0,1.41-.36,2.18,2.18,0,0,0,.91-1,3,3,0,0,0,.3-1.33,2,2,0,0,0-.94-1.79,3.64,3.64,0,0,0-1.87-.56,7.51,7.51,0,0,0-.86.08c.25-.38.7-1.1,1.38-2.18Z"/><path d="M381,227.48c-.14-2-.28-3.68-.42-4.9a21.63,21.63,0,0,0,6.44,1.14,5.44,5.44,0,0,0,2.87-.67,2,2,0,0,0,1.1-1.82,1.72,1.72,0,0,0-1.12-1.63,8.69,8.69,0,0,0-3.46-.52,21,21,0,0,0-2.77.18c.15-1.59.26-3.14.37-4.66a14.44,14.44,0,0,0,2.42.21,14.08,14.08,0,0,0,2.38-.18,2.62,2.62,0,0,0,1.44-.67,1.57,1.57,0,0,0,.5-1.1,1.31,1.31,0,0,0-.39-1,2.17,2.17,0,0,0-1.18-.6,9.49,9.49,0,0,0-1.94-.17,20.64,20.64,0,0,0-2.15.11c-.75.08-1.78.23-3.08.48l.8-3.54c.06-.31.12-.64.18-1a55.05,55.05,0,0,1,6.37-.39,25,25,0,0,1,3.62.25,8.87,8.87,0,0,1,3,.89,4.21,4.21,0,0,1,1.82,1.68,4.62,4.62,0,0,1,.58,2.32,5.21,5.21,0,0,1-.22,1.49,4.35,4.35,0,0,1-.66,1.33,4.88,4.88,0,0,1-1.05,1.08,7.14,7.14,0,0,1-1.17.75c-.38.19-.89.41-1.54.66a10.1,10.1,0,0,1,1.57.41,5.08,5.08,0,0,1,1.14.61,4.38,4.38,0,0,1,1,.94,4.25,4.25,0,0,1,.59,1.21,5,5,0,0,1,.19,1.42,5.5,5.5,0,0,1-2.87,4.89,10,10,0,0,1-3.24,1.21,19.87,19.87,0,0,1-3.68.36,34.35,34.35,0,0,1-3.45-.17C383.85,228,382.54,227.78,381,227.48Z"/><path d="M370.39,256.57a9.85,9.85,0,0,1,1.58-.14,7.57,7.57,0,0,1,3.29.69,4.62,4.62,0,0,1,2.21,2.11,6.72,6.72,0,0,1,.76,3.2,7.12,7.12,0,0,1-.35,2.26,7.32,7.32,0,0,1-1,2,7.45,7.45,0,0,1-1.58,1.65,7.13,7.13,0,0,1-2,1.1A12.78,12.78,0,0,1,371,270a15.5,15.5,0,0,1-2.46.19,12.54,12.54,0,0,1-5-.93,6.36,6.36,0,0,1-3.1-2.52,6.71,6.71,0,0,1-1-3.53,12.82,12.82,0,0,1,.26-2.42,14,14,0,0,1,1.16-3.15,39.59,39.59,0,0,1,2.48-4.22,52.39,52.39,0,0,1,3.2-4.36h8.18c-1.62,1.77-2.7,3-3.22,3.61-.75.89-1.45,1.83-2.13,2.79a29.05,29.05,0,0,0-1.66,2.66,25.76,25.76,0,0,0-1.13,2.41,7.53,7.53,0,0,0-.39,1.31,5.82,5.82,0,0,0-.12,1.14,3.23,3.23,0,0,0,.29,1.36,2.36,2.36,0,0,0,.91,1,3,3,0,0,0,2.87,0,2.11,2.11,0,0,0,.91-1,3.12,3.12,0,0,0,.3-1.34,1.93,1.93,0,0,0-.94-1.78,3.57,3.57,0,0,0-1.87-.57,7.51,7.51,0,0,0-.86.08c.25-.37.7-1.1,1.38-2.18Z"/><path d="M390.68,248.67a10.91,10.91,0,0,1,4.64,1,6.75,6.75,0,0,1,3.23,3.27,12.13,12.13,0,0,1,1.16,5.46,17.27,17.27,0,0,1-.7,4.87,10.89,10.89,0,0,1-1.93,3.89,8,8,0,0,1-3.21,2.27,11.49,11.49,0,0,1-4.27.8,11,11,0,0,1-3.62-.6,7.54,7.54,0,0,1-3-1.92,7.46,7.46,0,0,1-1.79-3.17,14.12,14.12,0,0,1-.52-3.92,17.79,17.79,0,0,1,.71-4.95,11,11,0,0,1,2-4,7.72,7.72,0,0,1,3.21-2.27A11.43,11.43,0,0,1,390.68,248.67Zm-.12,4.48a2.22,2.22,0,0,0-1.35.43,3.39,3.39,0,0,0-1.13,1.41,10.08,10.08,0,0,0-.76,2.47,18.48,18.48,0,0,0-.29,3.37,9.56,9.56,0,0,0,.32,2.67,3.45,3.45,0,0,0,1,1.63,2.19,2.19,0,0,0,1.5.58,2.25,2.25,0,0,0,.94-.21,2.68,2.68,0,0,0,1-.78,5.5,5.5,0,0,0,.89-1.69,14.3,14.3,0,0,0,.57-2.32,16.82,16.82,0,0,0,.17-2.45,7.67,7.67,0,0,0-.75-3.84A2.3,2.3,0,0,0,390.56,253.15Z"/><path d="M361.25,311.37l-.11-1.53c0-.5-.06-.94-.11-1.35s-.1-1.07-.21-2a21.66,21.66,0,0,0,5.48.9,6.22,6.22,0,0,0,2.15-.35,3.25,3.25,0,0,0,1.5-1,2.19,2.19,0,0,0,.53-1.4A1.81,1.81,0,0,0,369.4,303a7.76,7.76,0,0,0-3.38-.56q-1,0-2,.06c-.66.05-1.53.14-2.66.28l.81-9.81c0-.48.07-1.16.1-2l7.71,0c3.13,0,5.73,0,7.82,0-.1,1.05-.16,1.88-.18,2.51l-.07,2.07-2.12-.08-1,0h-4l-1.63,0-.33,3.48c.72-.05,1.27-.08,1.66-.08a11.88,11.88,0,0,1,4.39.75,5.68,5.68,0,0,1,2.78,2.1,5.55,5.55,0,0,1,.87,3.06,6.17,6.17,0,0,1-.89,3.18,6.69,6.69,0,0,1-2.44,2.43,11.78,11.78,0,0,1-3.61,1.3,21.62,21.62,0,0,1-4.21.41c-.55,0-1.2,0-1.93-.1s-1.38-.14-1.88-.22Z"/><path d="M382.61,311.69c.63-1.15,1.24-2.23,1.84-3.26s1.74-3.06,3.43-6.1l2.82-5.11c.19-.36.52-1,1-1.8-.94,0-1.65,0-2.15,0-2.23,0-4.64.07-7.26.21.11-1.35.19-2.89.22-4.64h17.18l-.24,4.78-3.82,7-2.43,4.58c-.64,1.28-1.38,2.74-2.18,4.39Z"/><path d="M361.83,353.28l-.11-1.54c0-.5-.06-.94-.11-1.35s-.11-1.06-.21-2a22,22,0,0,0,5.48.89A6.46,6.46,0,0,0,369,349a3.34,3.34,0,0,0,1.5-1,2.14,2.14,0,0,0,.53-1.39,1.81,1.81,0,0,0-1.08-1.68,7.59,7.59,0,0,0-3.38-.57c-.68,0-1.35,0-2,.07s-1.53.14-2.66.28l.81-9.81c0-.49.07-1.16.1-2l7.71,0c3.13,0,5.73,0,7.82,0-.1,1.05-.16,1.88-.18,2.51l-.07,2.06-2.12-.07-1,0h-1.55c-.66,0-1.47,0-2.46,0l-1.63,0-.33,3.47c.72,0,1.27-.07,1.66-.07a11.88,11.88,0,0,1,4.39.75,5.68,5.68,0,0,1,2.78,2.1,5.47,5.47,0,0,1,.87,3.05,6.21,6.21,0,0,1-.89,3.19,6.66,6.66,0,0,1-2.44,2.42,11.79,11.79,0,0,1-3.61,1.31,22.43,22.43,0,0,1-4.21.4c-.55,0-1.2,0-1.93-.09s-1.38-.14-1.88-.22Z"/><path d="M390.47,353.58c.09-.9.18-1.85.26-2.87s.13-1.82.16-2.42l-1.74,0h-1.32l-6,.09,0-.47c0-.11,0-.44.05-1l.12-2.89c0-.26,0-.55,0-.83,1.08-1.24,2.34-2.79,3.76-4.65s2.77-3.76,4.06-5.72l4.43,0,3.81,0c-.18,2.14-.31,4.24-.42,6.3s-.16,3.6-.17,4.65q.76,0,1.8,0h.94l.63,0c-.05,1.22-.07,2.49-.07,3.84v.72q-1-.06-2.82-.06l-.65,0q-.15,1.47-.15,5.28-1.57,0-3.27,0C392.89,353.54,391.73,353.56,390.47,353.58ZM391.8,344l.34-6.85c-.7,1.05-1.28,1.88-1.72,2.49s-.77,1.07-1,1.32l-2.32,3Z"/><path d="M362.43,395.17l-.11-1.54c0-.5-.06-.94-.11-1.35s-.11-1.06-.22-2a22.11,22.11,0,0,0,5.49.89,6.4,6.4,0,0,0,2.14-.34,3.44,3.44,0,0,0,1.51-1,2.19,2.19,0,0,0,.53-1.39,1.8,1.8,0,0,0-1.08-1.68,7.61,7.61,0,0,0-3.39-.57c-.67,0-1.34,0-2,.07s-1.54.14-2.67.28l.82-9.81c0-.49.06-1.16.09-2l7.71,0c3.14,0,5.74,0,7.82,0-.09,1.05-.15,1.89-.17,2.5l-.08,2.07-2.11-.08h-2.54c-.66,0-1.48,0-2.46,0l-1.63,0-.33,3.48c.72,0,1.27-.07,1.66-.07a11.91,11.91,0,0,1,4.39.75,5.59,5.59,0,0,1,2.77,2.1,5.52,5.52,0,0,1,.88,3.05,6.25,6.25,0,0,1-.89,3.18,6.57,6.57,0,0,1-2.45,2.43,11.37,11.37,0,0,1-3.6,1.3,21.8,21.8,0,0,1-4.22.41c-.55,0-1.19,0-1.93-.09s-1.38-.14-1.88-.22Z"/><path d="M389.2,395.46c.14-1.56.31-4.1.51-7.6s.33-6,.36-7.52l-1.14.69c-.38.22-1.18.77-2.43,1.62.06-.87.13-1.87.17-3s.08-2,.08-2.55q.83-.45,1.83-1.05c.69-.41,1.12-.66,1.26-.77s.39-.28.69-.52q1.43,0,3.27,0l3.61,0-.32,3.39-.69,11.23-.15,4.14v2c-.91,0-2,0-3.31,0C391.45,395.43,390.2,395.45,389.2,395.46Z"/><path d="M370.33,437.35c.09-.9.19-1.86.26-2.86s.13-1.82.16-2.42l-1.74,0H367.7l-6,.09,0-.47a9,9,0,0,0,0-1l.13-2.89c0-.26,0-.55,0-.83,1.08-1.24,2.34-2.79,3.76-4.65s2.78-3.76,4.06-5.72l4.44,0,3.81,0c-.19,2.14-.32,4.24-.43,6.3s-.15,3.6-.17,4.65c.52,0,1.11,0,1.8,0h.94l.63,0c-.05,1.21-.06,2.49-.06,3.84v.72c-.65,0-1.59-.06-2.82-.06h-.66c-.1,1-.14,2.75-.14,5.29-1.05,0-2.15,0-3.28,0S371.6,437.34,370.33,437.35Zm1.33-9.54L372,421c-.7,1.05-1.28,1.88-1.72,2.49l-1,1.32-2.32,3Z"/><path d="M387.71,426.73a10,10,0,0,1-1.37-.72,5.63,5.63,0,0,1-.84-.72,4.17,4.17,0,0,1-.68-.94,3.68,3.68,0,0,1-.37-1.07,5,5,0,0,1-.11-1.1,5.13,5.13,0,0,1,.7-2.66,5.51,5.51,0,0,1,2.09-2,9.26,9.26,0,0,1,2.93-1.05,18.48,18.48,0,0,1,3.29-.28,13.84,13.84,0,0,1,3.18.36,7.57,7.57,0,0,1,2.63,1.11,4.84,4.84,0,0,1,1.62,1.74,5.06,5.06,0,0,1,.51,2.35,5.18,5.18,0,0,1-.14,1.26A4.16,4.16,0,0,1,400,425.1a6,6,0,0,1-.87.74,15.27,15.27,0,0,1-1.55.83,11.63,11.63,0,0,1,1.56.5,4,4,0,0,1,1,.61,4.12,4.12,0,0,1,.86.91,3.63,3.63,0,0,1,.52,1.11,4.63,4.63,0,0,1,.16,1.24,5.92,5.92,0,0,1-.78,2.9,6.15,6.15,0,0,1-2.14,2.22,9.29,9.29,0,0,1-3.13,1.21,17.95,17.95,0,0,1-7.1.05,9.23,9.23,0,0,1-3-1.12,4.68,4.68,0,0,1-2.47-4.26,5.6,5.6,0,0,1,.22-1.53,5.2,5.2,0,0,1,1.67-2.53,5.61,5.61,0,0,1,1.13-.7C386.52,427.14,387,427,387.71,426.73Zm4.84,2a3.32,3.32,0,0,0-2.24.69,2.23,2.23,0,0,0-.8,1.78,2.13,2.13,0,0,0,.36,1.19,2.19,2.19,0,0,0,1,.83,3.79,3.79,0,0,0,1.48.29,3.65,3.65,0,0,0,1.5-.3,2.43,2.43,0,0,0,1.47-2.29,2,2,0,0,0-.73-1.61A3.23,3.23,0,0,0,392.55,428.77Zm.39-8.34a2.82,2.82,0,0,0-2,.67,2.16,2.16,0,0,0-.74,1.65,1.91,1.91,0,0,0,1.21,1.78,3.25,3.25,0,0,0,1.26.24,3,3,0,0,0,1.94-.64,2.08,2.08,0,0,0,.78-1.68,1.79,1.79,0,0,0-.66-1.46A2.75,2.75,0,0,0,392.94,420.43Z"/><path d="M370.92,479.26c.1-.89.19-1.85.27-2.87s.13-1.82.16-2.41h-3.06l-6,.1.05-.47c0-.11,0-.44.05-1l.12-2.88c0-.27,0-.55,0-.83q1.62-1.86,3.76-4.66c1.43-1.86,2.77-3.76,4.06-5.72l4.43,0,3.81,0c-.19,2.15-.31,4.25-.42,6.3s-.16,3.61-.17,4.66c.51,0,1.11,0,1.8,0h.94l.62,0c0,1.22-.06,2.49-.06,3.84v.72c-.64-.05-1.58-.07-2.82-.07l-.66,0c-.09,1-.14,2.74-.14,5.28q-1.57,0-3.27,0C373.35,479.23,372.19,479.23,370.92,479.26Zm1.34-9.56.34-6.85c-.7,1-1.28,1.88-1.72,2.49s-.77,1.07-1,1.32l-2.31,3Z"/><path d="M384.92,479l-.11-1.54c0-.5-.06-.94-.11-1.35s-.11-1.06-.22-2A22.11,22.11,0,0,0,390,475a6.42,6.42,0,0,0,2.15-.34,3.44,3.44,0,0,0,1.51-1,2.2,2.2,0,0,0,.53-1.4,1.8,1.8,0,0,0-1.08-1.67,7.61,7.61,0,0,0-3.39-.57c-.67,0-1.35,0-2,.07s-1.54.14-2.67.28l.82-9.81c0-.49.06-1.16.09-2l7.71,0c3.14,0,5.74,0,7.82,0-.09,1.05-.16,1.88-.17,2.5l-.08,2.07-2.12-.08h-2.53c-.66,0-1.48,0-2.46,0l-1.63,0-.33,3.48c.72,0,1.27-.08,1.66-.08a11.71,11.71,0,0,1,4.39.76,5.59,5.59,0,0,1,2.77,2.1,5.52,5.52,0,0,1,.88,3.05,6.19,6.19,0,0,1-.9,3.18,6.54,6.54,0,0,1-2.44,2.43,11.43,11.43,0,0,1-3.61,1.3,21.62,21.62,0,0,1-4.21.41c-.55,0-1.19,0-1.93-.09s-1.38-.14-1.88-.22Z"/><path d="M25.17,299.29q1.17-15.72,2.35-31.47a23.92,23.92,0,0,1-5.09-5.22c-6.81-9.52-3.92-20.87-3.14-23.64-1.21-1.56-3.84-5.43-3.13-10.07.2-1.3.5-3.27,2.14-4.27,1.81-1.1,4.6-.65,7.06,1.11a5.89,5.89,0,0,1,2.93-7.82,6.44,6.44,0,0,1,7.05,1.68,89.64,89.64,0,0,0-3.14-12.85c-1.69-5.21-3.3-8.48-2.74-13.4.21-1.81.63-5.52,2.93-6.33,2.74-1,6.33,2.8,6.85,3.35,4.37,4.61,4,11,3.71,13.32a76,76,0,0,0,3.53,13.87c.63,1.74,1.29,3.38,2,4.94a39.21,39.21,0,0,0,5.88-11,76.77,76.77,0,0,0,2.54-11.08c1-5.77.81-8.13,3-10.42.29-.31,3.13-3.18,5.78-2.41,2.36.67,4.07,4.1,3.32,8.38-2.41,8.68-4.64,17.91-6.57,27.64-.92,4.7-1.75,9.33-2.47,13.83.41,1,1,2.52,1.83,4.32,2.51,5.55,3.54,6.46,4,8.1,1.59,5.13-4.38,9.36-8.3,16.21-2.48,4.32-4.92,11.06-4.11,21.22.8,1.94,2.7,7.38.3,12.94-3.74,8.67-16.41,14.06-23.35,9.69C26,307.14,25.31,301.37,25.17,299.29Z" style="fill:#f58869"/><path d="M161.68,204.9A371.6,371.6,0,0,1,126,221.65c-20.12,8.2-27.07,9-33.3,16.76-5.17,6.47-4.89,11.56-8.62,30.9-2.85,14.83-5.86,26.6-7.84,33.88Q71,317.35,65.69,331.49c1-44.55-1-56.35-3.52-56.6s-3.87,11.2-15.67,21.22c-1.51,1.28-12.41,10.55-19.2,7.44-1.47-.67-3-3.07-4-4.86-1.52-2.71-1.53-4.45-1.85-4.45-1.36,0-2.21,34-3.52,61.83-1.12,23.41-3.39,47.56,7.83,64.05,2.24,3.29,5.39,6.83,10.19,8.19,7.21,2,15-1.77,24.68-8.93,9.51-7,24-19.62,38.4-41a229,229,0,0,1,5.09,42.83A227.7,227.7,0,0,1,101,464.81L267,463q2.74-16.2,5.48-32.4c2.87,7.95,14.86,13,17.73,21,16.58-.87,24.05,1.14,40.63.28q1.37-16,2.75-32-4.31-35-8.62-70-4.31-9.3-8.62-18.62c-.44-7.22-.66-13-.79-16.75-.34-10.48-.17-14.15-2-19.37a36.49,36.49,0,0,0-6.26-11.17,41.84,41.84,0,0,0-1.57-34.26,216.3,216.3,0,0,0-21.55-14.15c-14.4-8.27-21.7-10.25-34.87-18.24A168.56,168.56,0,0,1,229,202.66Z" style="fill:#3e3e66"/><polygon points="102.29 377.11 287.93 353.97 299.75 439.64 114.1 462.79 102.29 377.11" style="stroke:#fff;stroke-miterlimit:10;stroke-width:2.8345999717712402px"/><path d="M162.68,251.24a17.25,17.25,0,0,0,1.13,6.43c2.26,5.89,8.18,16.88,22.41,20.37a32.66,32.66,0,0,0,10.16-.8C183.82,270.27,172,261.55,162.68,251.24Z" style="fill:#d17e6b"/><path d="M222.86,241.59s4.66-31.22,8-48.38c-12.25,14.34-24.38,28.27-45,27.21-8-.8-15.92-3.22-24-6.16L165.79,232s-2.26,11-3,17.82v1.47c9.31,10.31,21.15,18.9,33.56,26C206.66,275,221.45,267.32,222.86,241.59Z" style="fill:#f58869"/><path d="M230.9,193.23c1.13-5.77,2.12-10,2.54-10.86l-22.13,20.49s-23,17.15-51.87-.26L162,214.26c8,2.94,16.77,8.18,24.66,8.84C207.22,224.18,218.63,207.55,230.9,193.23Z" style="fill:#f26b55"/><path d="M131.81,113.37,131,113a2.16,2.16,0,0,0-2.67.94,1.11,1.11,0,0,0-.15.94c.43,5.5,2.12,16.34,7.62,21.58,0,0,4.94-11-.85-20.37A7.18,7.18,0,0,0,131.81,113.37Z" style="fill:#f26b55"/><path d="M241.89,104.65l-3.25,28.95h.14a5.71,5.71,0,0,0,5.08-2.68,36.26,36.26,0,0,0,5.64-20.09S249.93,106.39,241.89,104.65Z" style="fill:#f26b55"/><path d="M240.05,127.16H235.4c1.83-24.12-6.63-53.6-6.63-53.6-11.27,0-23.54-13.4-23.54-13.4-5.64,11.66-60.18,19.7-60.18,19.7l-1.69,51.86-6.77-.94c-2.82,4-3.53,30.15-3.67,43.41,1.27,8.71,35.66,36.17,35.66,36.17,2.39,2.82,16.76,2,26.78,1.06A39.74,39.74,0,0,0,216.78,203c14.94-11.92,22.27-28.41,22.27-28.41l1-3.62C240.9,167.35,240.05,127.16,240.05,127.16Z" style="fill:#f58869"/><ellipse cx="211.88" cy="116.17" rx="10.86" ry="15.4" style="fill:#fffaf1"/><ellipse cx="166.77" cy="114.43" rx="10.86" ry="15.4" style="fill:#fffaf1"/><ellipse cx="211.53" cy="119.12" rx="5.64" ry="5.36" style="fill:#473123"/><ellipse cx="166.77" cy="119.12" rx="5.64" ry="5.36" style="fill:#473123"/><path d="M146.75,94.47c1.41,0,22.12-12,32-12.46,0,0,2.39,6.69,2.39,9,0,0-30,3.08-32.42,5.76Z" style="fill:#341e14"/><path d="M194.81,80.41s-2.82,4.69-2.54,9a74.6,74.6,0,0,1,32.85,6.3l1.41-2.27C226.53,93.26,204,80,194.81,80.41Z" style="fill:#341e14"/><path d="M182.13,125.29,180,142.44a23.8,23.8,0,0,1-1.7,6.16c-1.27,2.67-2.39,7.09,1.13,10.31,0,0,2.12,2.94,11.55,0,0,0,3.1-.27,2.12-6.43,0,0-3.67-20.23-4.52-28.27a2.58,2.58,0,0,0-2.68-2.27h0A4,4,0,0,0,182.13,125.29Z" style="fill:#f26b55"/><path d="M163.94,165.52c.84,1.63,2.13,4,3.82,6.71,6.21,10,9.29,15.07,13.81,16.2,6.38,1.58,13.07-4.09,18.8-8.93a50.32,50.32,0,0,0,11.16-13.4,32.56,32.56,0,0,1-22.82,10.33C173.94,176.74,165,166.76,163.94,165.52Z" style="fill:#f26b55"/><path d="M175,189.25s1.41,5.62,20.43,4.29C195.42,193.67,178.51,191.66,175,189.25Z" style="fill:#f26b55"/><path d="M143.94,131.59s0-48.64,2.82-51.32c0,0,47.64-6.69,57.5-18.76,0,0,8.89,13.4,24.38,12.05l6.63,53.6h4.66S249.52,53.33,246,47.3c0,0-4.93-11.4-26.78-12.06,0,0-5.36-20.09-68.36-12.45a32.68,32.68,0,0,0-8.74,2.14c-12.4,5.36-40.87,23.71-19.45,74.9l13.81,30.81Z" style="fill:#341e14"/><path d="M217.41,159.11s-3.18,2.3,2.71,12.82C220,172,216.81,161.76,217.41,159.11Z" style="fill:#f26b55"/><path d="M156.84,160.22s3.18,2.31-2.71,12.82C154.21,173.09,157.43,162.89,156.84,160.22Z" style="fill:#f26b55"/><path d="M315.06,452.62l-23.35,1.22-8.29-3.1a27.54,27.54,0,0,1-8.73-1.19c-2.62-.82-8.75-2.7-11.16-7.82-.57-1.19-1.87-3.94-.39-6,1.17-1.61,3.74-2.26,6.45-1.68-5.09-1.28-7.43-5.06-6.66-7.06.66-1.73,3.9-2.93,7.67-2.31-2.62-1.82-3.8-4.7-3-6.81,1.07-2.84,5.83-4.74,10.22-2.42-2.32-2.18-2.73-5.34-1.36-7.25,1.71-2.43,6.41-3.09,9.59-.19l13,8c-1.25-3.72-1.14-4.81-.74-5,1.51-.77,9.81,8.55,13.95,19.27A46.81,46.81,0,0,1,315.06,452.62Z" style="fill:#f58869"/></g></g></g></svg>