<svg xmlns="http://www.w3.org/2000/svg" viewBox="0 0 1018.84 595.81"><defs><style>.cls-1{fill:#3e3e66;}.cls-2{fill:#f58869;}.cls-3{fill:#6b6889;}.cls-4{fill:#6d9e88;}.cls-5{fill:#7cc2a5;}.cls-6{fill:#ef8067;}.cls-7{fill:#341e14;}.cls-8{fill:#301e16;}.cls-9{fill:#f26b55;}.cls-10{fill:#f58b6d;}.cls-11{fill:#fffaf1;}.cls-12{fill:#473123;}.cls-13{fill:#f2655a;}.cls-14{fill:#ede0dd;}.cls-15{fill:#f5e5e1;}.cls-16{fill:#b0d235;}.cls-17{fill:#35345c;}.cls-18{fill:#78c0e9;}.cls-19{fill:#363563;}.cls-20{fill:#3f3f6d;}.cls-21{fill:#f1eceb;}.cls-22{fill:#f6eeec;}.cls-23{fill:#e58d7f;}.cls-24{fill:#d17e6b;}.cls-25{fill:#ffbb3c;}.cls-26{fill:#97d1d4;}.cls-27{fill:#3a6c74;}.cls-28{fill:#f3e4e0;}</style></defs><title>Ресурс 11</title><g id="Слой_2" data-name="Слой 2"><g id="поділ_майна" data-name="поділ майна"><rect class="cls-1" x="846.43" y="211.92" width="97.25" height="97.25"/><g id="жінка"><path class="cls-2" d="M199,200.42c28.67,4.58,28.73,4.28,32.55,4.49a3.67,3.67,0,0,0,2.07-.51c1.85-1.09,6.12-3.57,7.63-4l1.45-.39a95.54,95.54,0,0,1,12.08-2.6,1.81,1.81,0,0,1,2,1.8h0a.63.63,0,0,1-.42.59l-5.58,1.92,8.66-1a1.14,1.14,0,0,1,1.28,1.13h0a.73.73,0,0,1-.58.72l-12.42,2.69h10.48a.82.82,0,0,1,.76,1.12l0,.09a1.68,1.68,0,0,1-1.44,1.05l-11,.74s9.12,1,9.31,1.06,0,.26-.06.56a2,2,0,0,1-1.92,1.52c-2.4.06-7.12.3-8.46,1.36a34.1,34.1,0,0,1-9,2.65,4.73,4.73,0,0,1-.52,0c-3.45,0-40.71.06-41.19,0Z"/><path class="cls-3" d="M22.44,311.94s-10.66,19.63-10.07,38.69c0,.73.06,1.45.06,2.18,0,4,.76,21.61,10.67,43.78l12.43,33.15a58.61,58.61,0,0,1,3.73,19.55c.26,14.5.86,40.67,2,50.69a54.08,54.08,0,0,1,.35,6.23,46.39,46.39,0,0,0,1.27,10,86.74,86.74,0,0,1,2.24,19.19v23.88H55.77S59,538.53,62.44,515.1c3.52-24,7.26-50.89,8-61.18a20.22,20.22,0,0,0,0-4c-1.25-6.26-5.32-82.63-7-95.75-.13-1,1.83-1.41,1.83-1.41l-1.06-.52c.83-.17-.83,1.09-.77,1.93.63,9.87,5.13,63.18,7.66,84.92a72.18,72.18,0,0,1,.25,17.5l-6.25,55.5c-.4,3.55-1.59,7.72-1,11.5l2.34,35.67h12s24-215.34,24-220.34-2.67-23.33-4-24.33S22.44,311.94,22.44,311.94Z"/><path class="cls-2" d="M47.27,558.84s.12,11.33,0,12.08h8s-1-12.08-.47-12.08Z"/><path class="cls-2" d="M67.88,558.84s.12,11.33,0,12.08h8.18s-1-12.08-.48-12.08Z"/><path class="cls-4" d="M100.72,250.91a26.35,26.35,0,0,1,5.1-6.45c-21.77,6.37-45.54,5.38-67.8,1.92a204.57,204.57,0,0,1-2.7,31.48c17.8-13.9,40.73-12.46,61.44-18.37A63.78,63.78,0,0,1,100.72,250.91Z"/><path class="cls-5" d="M35.32,277.86C33.13,290.62,29.17,304,22,311.52l76,2.65s-11.61-27-1.26-54.68C76.05,265.4,53.12,264,35.32,277.86Z"/><path class="cls-5" d="M96.13,177.21a12.33,12.33,0,0,0-3.7-.82c-6.88-.39-29.91-1.58-32.74.12a27.7,27.7,0,0,0-11.48,4.64,7.26,7.26,0,0,0-1.49,1.59c-2.39,3.44-11.25,16.18-20.38,29.8a122.66,122.66,0,0,1,8.35,13.63,36.31,36.31,0,0,0,4.88,7.6l1-1.1s-.14.7-.34,1.78a20.58,20.58,0,0,0,4.51,3.72,20.58,20.58,0,0,1-4.51-3.72C39.49,238,38,245.65,38,246.38c22.26,3.46,46,4.45,67.8-1.92.78-.73,1.59-1.42,2.44-2.07,2.58-2,5.76-5.88,5.76-13.22,0,0-2.09-14.38-4.19-21.6a1.49,1.49,0,0,1,1.72-1.89c13.72,2.76,78.74,15.72,83.8,14.83,0,0,1-18.67,7.67-24.34C203,196.17,160.47,202.39,96.13,177.21Z"/><path class="cls-2" d="M87.2,159.29c-9.69-.34-19-5.72-26.5-12.25l3.11,25.6a22,22,0,0,1,.14,3.24c-.18,5.12-.15,22.1,7.56,30.5a10.93,10.93,0,0,0,2.73,2.17c6.13.49,10.21-2.61,13.48-7.26a7.91,7.91,0,0,0,0-2.91l-3.56-20.19a18.35,18.35,0,0,1,.25-7.56Z"/><path class="cls-6" d="M88,155.94s-25.5-11.5-28-14.5l.68,5.6c7.48,6.53,16.81,11.91,26.5,12.25Z"/><path class="cls-6" d="M74.24,208.55a9.46,9.46,0,0,0,5.44,1.22c2.95-.26,6.38-2,8-8.07,0-.14,0-.27.08-.41C84.45,205.94,80.37,209,74.24,208.55Z"/><path class="cls-7" d="M111.91,36.22a19.27,19.27,0,0,0-11.85-18l-6.17-2.57a8.28,8.28,0,0,0-4-.6,39.9,39.9,0,0,0-4.89.76,11.13,11.13,0,0,0-6.8,4.81l-1.3,2a9.18,9.18,0,0,0-1.48,5v4.13a202.67,202.67,0,0,0,36.41,10.14Z"/><path class="cls-8" d="M109.44,49.63a5,5,0,0,0,2.35-4.17l0-3.61A202.67,202.67,0,0,1,75.42,31.71v.22A2.06,2.06,0,0,1,73.49,34l-1.14.08c11.41,5.8,22.21,12.92,34.75,17Z"/><path class="cls-7" d="M119.45,73.27a12.94,12.94,0,0,0-1.71-4.78c-2.6-4.36-9.45-15.63-11.32-17l.68-.43c-12.54-4.1-23.34-11.22-34.75-17-2.73.17-6.77.38-10.07.34a14.59,14.59,0,0,0-8.56,2.69c-8.23,5.81-24.49,20.76-25.39,48.58a22.79,22.79,0,0,0,2.84,11.74l18.68,33.83,5.23-35.17s31.76-9.83,32.76-30.16c0,0,12.91,11.6,18.91,13.27,0,0,3.33-1,9,25C115.75,104.21,121,84.22,119.45,73.27Z"/><path class="cls-9" d="M51.94,111.29s-2.55-5.32-5.82-8.39a4.67,4.67,0,0,0-2-1.09,7.07,7.07,0,0,0-2.54-.26,1.46,1.46,0,0,0-1.27,1.59c.23,2.35,1.14,8.49,4.66,13.1a3.7,3.7,0,0,0,2.66,1.43l1.28.11Z"/><path class="cls-10" d="M87.85,65.92s1,7.75-34.5,28.5c0,0-5.61,9.81-4.64,30.32a26,26,0,0,0,10.4,19.61c5,3.74,12.63,7.86,24.08,11.56a15.52,15.52,0,0,0,4.78.76h0A14.14,14.14,0,0,0,97.52,153a88.54,88.54,0,0,0,19.29-25.72,18,18,0,0,0,1.69-10.35,139.77,139.77,0,0,0-3.9-19.22s-3.25-17-5.25-19.5Z"/><path class="cls-7" d="M68.27,99.94s1.34-1,3.09-2.09A13.91,13.91,0,0,1,81.18,96a34.56,34.56,0,0,1,6.09,1.66,11.88,11.88,0,0,0,.66-3.13,2.76,2.76,0,0,0-2.14-2.8A33.91,33.91,0,0,0,79.38,91a9.2,9.2,0,0,0-6.71,2.51C70.51,95.51,68,98.33,68.27,99.94Z"/><path class="cls-7" d="M110.37,88.19c-2.91-.12-7.62.17-10.85,2.75a11.61,11.61,0,0,0,1.75,4.5A15.21,15.21,0,0,1,113,90.94h0A2.75,2.75,0,0,0,110.37,88.19Z"/><ellipse class="cls-11" cx="80.2" cy="110.79" rx="6.18" ry="6.99"/><ellipse class="cls-11" cx="105.7" cy="108.05" rx="6.18" ry="6.99"/><circle class="cls-12" cx="81.45" cy="108.99" r="3.81"/><circle class="cls-12" cx="107.2" cy="105.99" r="3.81"/><path class="cls-9" d="M93.52,117.54l4.89,6.7a1.72,1.72,0,0,1-.26,2.29,13,13,0,0,1-7.77,3,1.09,1.09,0,0,1-1.06-1.48l1.54-4.18a17.73,17.73,0,0,0,1.08-5.08h0a1.35,1.35,0,0,1,1.34-1.26Z"/><path class="cls-9" d="M94.8,140.11a1.2,1.2,0,0,1,.49-1L97,138s-8-4.55-18.81,2.9A60.88,60.88,0,0,1,94.8,140.11Z"/><path class="cls-13" d="M78.2,140.86c-.8.55-1.61,1.16-2.44,1.85,0,0,5.25-2.5,20,0l-.88-2.12a1,1,0,0,1-.08-.48A60.88,60.88,0,0,0,78.2,140.86Z"/><path class="cls-14" d="M80,272.91c-3,3-4,8-7,11-11.23,13.83-18,29.15-24.77,44.67a5,5,0,0,0,1-.7l.86-.77a12.56,12.56,0,0,0,3.41-4.95c8.25-22.18,35-57.11,38.36-61.47C86.16,262.86,83.46,268.62,80,272.91Z"/><path class="cls-15" d="M80,272.91c3.44-4.29,6.14-10.05,11.9-12.22l.35-.46C83,258,64,236.74,57.5,229.2a7.55,7.55,0,0,0-5.71-2.62h0a6.9,6.9,0,0,0-4.94,2.07c-9.53,9.72-39.16,49.57-46.09,59a3.78,3.78,0,0,0,0,4.53c6.85,9.14,33,29.1,42.25,36a4.94,4.94,0,0,0,5.23.42C55,313.06,61.79,297.74,73,283.91,76,280.91,77,275.91,80,272.91Z"/><path class="cls-2" d="M31,275.23s7.51,8.62,11.21,12.54a12.18,12.18,0,0,0,3.71,2.69c4.65,2.2,13,4.32,17.53,7.13,1.12.71,4.78,6.27,4.34,7.51-1.12,3.1-3.25,8.31-5.46,8.8,0,0-6.07,1.59-13.52-6.16a9.21,9.21,0,0,1-.88-1.08l-7.84-11a7.59,7.59,0,0,0-1.82-1.8L22,282.56Z"/><path class="cls-5" d="M26.34,212.54c-9,13.38-18.18,27.6-21.79,34.69a13.19,13.19,0,0,0-1.41,7.65,16.92,16.92,0,0,0,2.55,7L20,287.17l14.33-12-12.16-19c-.69-1.62,4-7.71,5.5-8.66l11.88-13.74a36.31,36.31,0,0,1-4.88-7.6A122.66,122.66,0,0,0,26.34,212.54Z"/><path class="cls-16" d="M46.81,570.92,44.28,579a1.43,1.43,0,0,0,1.37,1.87h23l.15-.7A2.7,2.7,0,0,0,67,577c-3.26-1-9-3.12-11.69-6.09Z"/><path class="cls-16" d="M67.65,570.92,65.11,579a1.44,1.44,0,0,0,1.37,1.87h23l.15-.7A2.69,2.69,0,0,0,87.84,577c-3.26-1-9-3.12-11.69-6.09Z"/></g><g id="чоловік"><path class="cls-17" d="M867.37,585.31v10.5H825.62v-2.64a3.15,3.15,0,0,1,2.57-3.09l25.43-4.77Z"/><polygon class="cls-10" points="853.5 583.77 853.62 585.31 866.25 585.31 866.25 583.77 853.5 583.77"/><polygon class="cls-10" points="909.16 580.54 909.27 583.4 919.71 583.4 919.71 580.54 909.16 580.54"/><path class="cls-18" d="M836.62,337s1.19,214.79,16.32,246.79h13.87s1.81-183.12,11.81-190.62,20.88,54.5,20.88,54.5l8.31,132.87,13.25.5s11.56-176.37,21.06-195.87c0,0,3.5-40.5,0-43C942.12,342.15,840.62,334.31,836.62,337Z"/><path class="cls-19" d="M819.68,273.42a12.68,12.68,0,0,1-1.63-1.19c-.86-.17-1.37-.31-1.37-.31Z"/><path class="cls-1" d="M892.18,330.39c-19.44,5.07-36.94-.87-54.44-6.95,0,.28-.08.73-.11,1-.44,5.2-1.12,11.43-2,13l108,6s-4-8.34-3-10.95a12,12,0,0,0,1.9-2.21,53.37,53.37,0,0,0-7.4-2C920.18,325.17,907.18,327.26,892.18,330.39Z"/><path class="cls-1" d="M855.18,295.92c24.28-2.42,45.93-17.3,62.32-35.6-6.36,2.92-13,5.46-19.32,8.6C883.18,276.92,868.18,283.92,855.18,295.92Z"/><path class="cls-1" d="M906.79,229.17c-19.11,10.62-38.34,20.82-53.61,36.75C879.5,269,894.43,249.35,906.79,229.17Z"/><path class="cls-20" d="M1018.71,277.94c-2.09-9.74-12.69-47.31-58.6-99.46a12,12,0,0,0-2.27-2c-7.77-5.29-48.62-30.47-99.23-12.57a5.83,5.83,0,0,0-2.54,1.78c-2.61,3.14-9.37,12.22-15.18,28.14,1.8,19.82,4.86,39.53-9.71,54.09-15,14-32-11-45-21-.07-.1-.15-.18-.22-.28l-7.24,7.24c15.89,11.75,29.85,25.87,44.35,39.1,4.82.45,11,.18,13.61-3.56,2.88-4.16,3.71.3,3.94,4A20.93,20.93,0,0,1,840,280c-1.61,6.14-5.26,22.13-3,33.62a42.51,42.51,0,0,1,.74,10.85c17.5,5.82,35,11.35,54.49,6.49,15-3,28-5,43-2a51.42,51.42,0,0,1,7.09,1.78c2.07-2.93,5.41-7.89,5.41-9.28,0,0-7.75-45.51,6.3-90.79a2.85,2.85,0,0,1,3.19-2c2.65.46,6.76,1.72,9,5.25l25.53,32.62a1.87,1.87,0,0,1-.72,2.85L955.85,285c5.88,5.88,10.71,13.46,11.85,21.77,14.23-4.23,40.37-13.18,49.84-24.17A5.37,5.37,0,0,0,1018.71,277.94ZM906.79,229.17c3.61-5.89,7-11.82,10.39-17.25-3.39,5.43-6.78,11.36-10.39,17.25a314.75,314.75,0,0,0,28.39-17.25,314.75,314.75,0,0,1-28.39,17.25c-12.36,20.18-27.29,39.85-53.61,36.75C868.45,250,887.68,239.79,906.79,229.17Zm10.71,31.15c-16.39,18.3-38,33.18-62.32,35.6,13-12,28-19,43-27,6.28-3.14,13-5.68,19.32-8.6a151.41,151.41,0,0,0,10.68-13.4,151.41,151.41,0,0,1-10.68,13.4c7.82-3.6,15.16-7.78,20.68-14.4C932.66,252.54,925.32,256.72,917.5,260.32Z"/><path class="cls-1" d="M832.56,249.61c14.56-14.57,10.13-36,8.33-55.78a153.44,153.44,0,0,0-7.21,28.09s-4,23.16-10.5,28.58l-37-24.08-.22.22c.07.1.15.18.22.28C799.18,236.92,817.56,263.61,832.56,249.61Z"/><path class="cls-20" d="M777.18,235.42s32.76,30.27,40.87,36.81a46.31,46.31,0,0,0,5,.75c-14.5-13.23-28.46-27.35-44.35-39.1Z"/><path class="cls-17" d="M920.37,583v10.5H878.62v-2.64a3.15,3.15,0,0,1,2.57-3.09l27.1-4.77Z"/><path class="cls-21" d="M802.36,249.27c-17-21-34-39-51-60-4.59-5.36-10.35-9.55-15.93-13.9l-1.07,1.9,1.07-1.9-2.12-1.67c-2.81,3.78-5.11,6.57-5.11,6.57,23,12.66,72.33,77.33,72.33,77.33l4.46-2.68a4.35,4.35,0,0,0,1.61-1.69A37,37,0,0,0,802.36,249.27Z"/><path class="cls-22" d="M753.13,153.14l-2.27-2.21-5.72,3.39a3.89,3.89,0,0,0-1.79,2.5c-1,4.21-6.05,11.54-10,16.88l2.12,1.67C740,167.31,745.42,158.76,753.13,153.14Z"/><path class="cls-15" d="M753.13,153.14c-7.71,5.62-13.15,14.17-17.7,22.23,5.58,4.35,11.34,8.54,15.93,13.9,17,21,34,39,51,60a37,37,0,0,1,4.24,4,4.44,4.44,0,0,0,.52-1.76c.63-8.37,10.08-25.87,10.08-25.87C803.52,202.9,763.15,162.91,753.13,153.14Z"/><path class="cls-2" d="M767.4,219.69c.25-.91.77-1,1.66-.69.11,0,.6,1,.73,1l7.42-3a1.23,1.23,0,0,1,1.73,1.32l-.09.5.42.75,1.58.42.89.79.15,1.41.89-.28c.46-.46,1.06.47,1.06,1.12l-.24.71h.92a.93.93,0,0,1,.7,1.55l-.62.7h.16a1.2,1.2,0,0,1,1.06,1.77c-.89,1.65-2.57,3.91-5.22,4.23l-5.77,1.92a.84.84,0,0,1-1.1-.7h0a1.89,1.89,0,0,0-1.29-1.61h0a1.18,1.18,0,0,1-.76-1.46l0-.1a1.08,1.08,0,0,0-1-1.39h0a1.43,1.43,0,0,1-1.06-2.29h0a.79.79,0,0,0-.63-1.25h0a2.38,2.38,0,0,1-2.39-2.51C766.68,222.21,767.3,220,767.4,219.69Z"/><path class="cls-23" d="M774.83,233.84a8.67,8.67,0,0,1,2.35,1.58l3.22-2.95.2-.55Z"/><path class="cls-2" d="M953.75,290.92l-4.06-1.83A13.52,13.52,0,0,0,943,288l-7.94.7-.63.31a1,1,0,0,0,0,1.7l.63.32-2.25,1.73a1.44,1.44,0,0,0,.39,2.49l2.2.78-1.37,1.2a1,1,0,0,0,.36,1.63l2,.59-.82,1.52c-.3,1.42.22,2.06,1.67,2.06h1.85l-.1.51a1,1,0,0,0,.95,1.16h4.53a2,2,0,0,1,2,2V311s4.33,2.33,8.66-4.67Z"/><path class="cls-20" d="M955.85,285l-3.17,1.41s-3.5,16,5.5,23c0,0,3.8-.94,9.52-2.64C966.56,298.47,961.73,290.89,955.85,285Z"/><path class="cls-24" d="M882.82,171.81a13.38,13.38,0,0,0,.76,4.78c1.6,4.42,5.85,12.64,15.91,15.21a24.56,24.56,0,0,0,7.18-.6C897.84,186,889.42,179.53,882.82,171.81Z"/><path class="cls-2" d="M925.49,164.63s3.34-23.27,5.66-36.11c-8.65,10.74-17.34,21.1-31.88,20.34-5.66-.57-11.32-2.42-17-4.64L885,157.38s-1.61,8.16-2.12,13.28c0,.38,0,.77,0,1.15,6.6,7.72,15,14.14,23.85,19.39C914,189.53,924.52,183.78,925.49,164.63Z"/><path class="cls-9" d="M931.15,128.52c.79-4.35,1.46-7.51,1.84-8.14l-15.68,15.31s-16.32,12.75-36.82-.2l1.79,8.73c5.67,2.22,11.87,6.07,17.53,6.64C914.35,151.62,922.5,139.26,931.15,128.52Z"/><path class="cls-9" d="M860.91,68.88l-.61-.31a1.4,1.4,0,0,0-2,1.36c.35,4.08,1.51,12.22,5.36,16.06,0,0,3.53-8.17-.61-15.17A5,5,0,0,0,860.91,68.88Z"/><path class="cls-9" d="M939,62.39l-2.33,21.67h.07a4.22,4.22,0,0,0,3.64-2,27.89,27.89,0,0,0,4-15S944.66,63.73,939,62.39Z"/><path class="cls-2" d="M937.66,79.19h-3.33c1.33-18-4.67-40-4.67-40-8,0-16.67-10-16.67-10-4,8.67-42.66,14.67-42.66,14.67L869.1,82.52l-4.77-.66c-2,3-2.49,22.54-2.62,32.37.94,6.46,25.28,27,25.28,27,1.71,2.14,11.9,1.54,19,.83a27.7,27.7,0,0,0,15.16-6.26c10.56-8.91,15.84-21.23,15.84-21.23l.67-2.67C938.33,109.19,937.66,79.19,937.66,79.19Z"/><ellipse class="cls-11" cx="917.66" cy="71.03" rx="7.67" ry="11.5"/><ellipse class="cls-11" cx="885.66" cy="69.69" rx="7.67" ry="11.5"/><circle class="cls-12" cx="916.31" cy="77.21" r="3.98"/><circle class="cls-12" cx="883.64" cy="75.32" r="3.98"/><path class="cls-7" d="M871.48,54.78c1,0,15.66-9,22.66-9.33,0,0,1.67,5,1.67,6.66,0,0-21.33,2.34-23,4.34Z"/><path class="cls-7" d="M905.64,44.28s-2,3.5-1.83,6.67a50.85,50.85,0,0,1,23.33,4.66l1-1.66S912.14,44,905.64,44.28Z"/><path class="cls-9" d="M896.64,77.79l-1.5,12.83a16.27,16.27,0,0,1-1.25,4.55c-.86,2-1.66,5.3.78,7.74,0,0,1.5,2.25,8.25,0,0,0,2.25-.25,1.5-4.75,0,0-2.59-15.12-3.15-21.12a1.87,1.87,0,0,0-1.87-1.72h0A2.78,2.78,0,0,0,896.64,77.79Z"/><path class="cls-9" d="M884.56,111.86s-2.25,1.75-2.25,2.75c0,0,33.5,2,35,3.5C917.31,118.11,912.31,113.61,884.56,111.86Z"/><path class="cls-9" d="M888.56,116.76s1,4.25,14.5,3.25C903.06,120,891.06,118.51,888.56,116.76Z"/><path class="cls-7" d="M869.49,82.54s0-36.27,2-38.27c0,0,33.85-5,40.85-14,0,0,6.33,10,17.33,9l4.67,40h3.33s6.83-55.1,4.33-59.6c0,0-3.5-8.5-19-9,0,0-3.85-14.95-48.54-9.32A21.5,21.5,0,0,0,868.31,3c-8.76,4-29,17.73-13.82,55.87l9.84,23Z"/></g><g id="будинок"><path class="cls-25" d="M689.63,283.08h-172c11.1,15.44,24.27,28.7,36.84,43.78,10.32,12.61,22.92,26.36,28.65,41.25,4.58,11.46-21.77,14.9-34.37,19.48-1.15,1.14-1.15,3.44-2.3,4.58-11.45,2.29-20.62,6.88-29.79,10.31-3.43,1.15-5.73,4.59-9.16,3.44,1.14,2.29,0,3.44-2.29,4.58-8,2.3-14.9,4.59-22.92,4.59-1.15,0-3.44,2.29-2.29,4.58-14.9,2.29-39,9.17-41.25,25.21h4.58c-1.14,3.44,1.15,6.87,3.44,8,5.73,5.73,11.46,13.75,16,20.62a113.39,113.39,0,0,0,28.65,28.65c1.14,2.29,2.29,4.58,2.29,6.87h4.58c7.11,13.52,18.64,22.62,30.2,32H689.63Z"/><path class="cls-25" d="M453.6,509H449c0-2.29-1.14-4.58-2.29-6.87a113.36,113.36,0,0,1-28.64-28.65c-4.59-6.87-10.32-14.89-16-20.62-2.3-1.15-4.59-4.58-3.44-8H394c2.3-16,26.36-22.92,41.25-25.21a3.38,3.38,0,0,1,2.29-4.58c8,0,14.9-2.29,22.92-4.59,2.29-1.14,3.44-2.29,2.29-4.58,3.44,1.15,5.73-2.29,9.17-3.44,9.16-3.43,18.33-8,29.79-10.31,1.14-1.14,1.14-3.44,2.29-4.58,12.6-4.58,39-8,34.37-19.48-5.73-14.89-18.33-28.64-28.64-41.25-12.57-15.08-25.74-28.34-36.85-43.78H287.46V541H483.8C472.24,531.66,460.71,522.56,453.6,509Z"/><path class="cls-25" d="M447.87,244.37c-8-8-14.9-20.63-24.07-30.94a12.72,12.72,0,0,1,0-9.17c2.3-2.29,3.44-4.58,5.73-5.73,10.32-9.16,18.34-18.33,30.94-24.06v-4.58c9.17-6.87,19.48-13.75,14.9-25.21-2.3-6.87-5.73-16-9.17-21.77-3.33-5.14-6.66-10.13-9.86-15.08L287.46,263.72H460.61c-3.26-4-7-7.4-7-13.63C449,251.24,449,245.51,447.87,244.37Z"/><path class="cls-25" d="M510.88,98.73l-9.86,9.1c3.21,5,6.53,9.94,9.86,15.08,3.44,5.73,6.88,14.9,9.17,21.77,4.58,11.46-5.73,18.34-14.89,25.21v4.58c-12.61,5.73-20.63,14.9-30.94,24.06-2.29,1.15-3.44,3.44-5.73,5.73a12.62,12.62,0,0,0,0,9.17c9.17,10.31,16,22.92,24.06,30.94,1.15,1.14,1.15,6.87,5.73,5.72,0,6.23,3.76,9.64,7,13.63H689.63Z"/><path class="cls-25" d="M689.63,263.08H504.77c.52.62,1,1.25,1.53,1.91a145.12,145.12,0,0,0,8.62,14.29H689.63Z"/><path class="cls-25" d="M460.09,263.08H287.46v16.2H470.23A143.14,143.14,0,0,1,461.62,265C461.12,264.33,460.61,263.7,460.09,263.08Z"/><path class="cls-26" d="M453.6,509H449c0-2.29-1.14-4.58-2.29-6.87a113.36,113.36,0,0,1-28.64-28.65,178.22,178.22,0,0,0-11.68-15.84v83h77C472,531.46,460.63,522.41,453.6,509Z"/><path class="cls-26" d="M467.13,334.76h0a60.73,60.73,0,0,0-60.73,60.73V429c8.74-5.2,20.31-8,28.86-9.35a3.38,3.38,0,0,1,2.29-4.58c8,0,14.9-2.29,22.92-4.59,2.29-1.14,3.44-2.29,2.29-4.58,3.44,1.15,5.73-2.29,9.17-3.44,9.16-3.43,18.33-8,29.79-10.31,1.14-1.14,1.14-3.44,2.29-4.58,5.88-2.14,14.76-4,22.09-6.6A60.74,60.74,0,0,0,467.13,334.76Z"/><path class="cls-26" d="M546.4,392.17c-11.45,2.29-20.62,6.88-29.79,10.31-3.43,1.15-5.73,4.59-9.16,3.44,1.14,2.29,0,3.44-2.29,4.58-8,2.3-14.9,4.59-22.92,4.59-1.15,0-3.44,2.29-2.29,4.58-8.55,1.32-20.12,4.15-28.86,9.35v28.66a176.13,176.13,0,0,1,11.67,15.84,113.39,113.39,0,0,0,28.65,28.65c1.14,2.29,2.29,4.58,2.29,6.87h4.58c7,13.37,18.4,22.42,29.84,31.66h44.42V395.49a60.8,60.8,0,0,0-1.76-14.5c-7.33,2.57-16.2,4.46-22.08,6.6C547.55,388.73,547.55,391,546.4,392.17Z"/><polygon class="cls-27" points="511.08 48.26 496.02 61.48 720.64 265.48 734.02 250.74 511.08 48.26"/><path class="cls-28" d="M482.34,76.55,485,78.91c-.51-1.19-1-2.39-1.47-3.61Z"/><path class="cls-28" d="M720.34,265.8l-224.61-204L483.48,75.3c.47,1.22,1,2.42,1.47,3.61L707,280.54Z"/><path class="cls-27" d="M228,263.84l13.39,14.73L446.75,92.05a130,130,0,0,1-8.61-18.49Z"/><path class="cls-27" d="M456,57.43,438.14,73.56a130,130,0,0,0,8.61,18.49L466,74.58Z"/><path class="cls-28" d="M241.66,278.9l13.39,14.74L457.56,109.71C453.81,104,450.22,98.26,447,92.44Z"/><path class="cls-28" d="M458.25,82.2,447,92.44c3.25,5.82,6.84,11.52,10.59,17.27l14.07-12.78Z"/></g></g></g></svg>