<svg xmlns="http://www.w3.org/2000/svg" viewBox="0 0 677.78 439.11"><defs><style>.cls-1{fill:#33658a;}.cls-2{fill:#c8d4d9;}.cls-3{fill:#f58b6d;}.cls-4{fill:#dce9ed;}.cls-5{fill:#ff6b6b;}.cls-6{fill:#e86262;}.cls-7{fill:#2f5c7e;}.cls-8{fill:#f7ada1;}.cls-9{fill:#ff9a83;}.cls-10{fill:#341e14;}.cls-11{fill:none;stroke:#000;stroke-miterlimit:10;stroke-width:2px;}.cls-12{fill:#f7f0ed;}.cls-13{fill:#452524;}.cls-14{fill:#221214;}.cls-15{fill:#a16f44;}.cls-16{fill:#73452d;}.cls-17{fill:#f29488;}.cls-18{fill:#f26d57;}.cls-19{fill:#383260;}.cls-20{fill:#46427a;}.cls-21{fill:#7cc2a5;}.cls-22{fill:#fdb659;}.cls-23{fill:#ffd396;}.cls-24{fill:#eb1a22;}</style></defs><title>розірвання шлюбу</title><g id="Слой_2" data-name="Слой 2"><g id="розірвання_шлюбу" data-name="розірвання шлюбу"><g id="суддя"><path class="cls-1" d="M327.37,128.64H291.09a47.76,47.76,0,0,0-20.85,4.78c-5.35,2.59-11.31,5.94-14.56,9.28-6.88,7.09-7.92,8.15-12.81,21.1-6,15.82-3.41,76.47-3.41,76.47h87.91Z"/><path class="cls-1" d="M327.37,128.64h36.29a47.76,47.76,0,0,1,20.85,4.78c5.35,2.59,11.31,5.94,14.56,9.28,6.88,7.09,7.91,8.15,12.8,21.1,6,15.82,3.42,76.47,3.42,76.47H327.37Z"/><rect class="cls-2" x="293.97" y="138.31" width="63.29" height="51.86"/><path class="cls-3" d="M303.83,109.11v21s19,15,46,0v-21Z"/><path class="cls-4" d="M304.84,118.84a3.15,3.15,0,0,0-4,.14L294,128.64l12.31,32.52,21.09-15.82v-8.79Z"/><polygon class="cls-5" points="319.43 159.6 314.19 179.62 327.37 220.05 327.37 163.8 322.98 162.04 319.43 159.6"/><path class="cls-6" d="M319.43,159.6l1.51,2.37a3.94,3.94,0,0,0,3.33,1.83h3.1V145.34L316,154.13Z"/><line class="cls-5" x1="330.89" y1="213.02" x2="330.89" y2="161.16"/><polyline class="cls-6" points="330.89 161.16 330.89 156.77 330.89 142.7"/><line class="cls-4" x1="330.89" y1="142.7" x2="330.89" y2="133.91"/><path class="cls-7" d="M296.47,128.64h-1.6c-4.83,0-9.46-.55-14.08.88l-2.64.88c-1.29.4-2,2.57-2.19,3.91l-2.85,16.55a2.6,2.6,0,0,0,.71,2.27l10.37,10.46a2.06,2.06,0,0,1,.54,1.92L281.82,178a2.74,2.74,0,0,0,.48,2.27l45.07,60V219.78a3.13,3.13,0,0,0-.12-.86l-26.6-87.15A4.39,4.39,0,0,0,296.47,128.64Z"/><path class="cls-4" d="M349.83,118.84a3.15,3.15,0,0,1,4,.14l6.83,9.66-12.31,32.52-21.1-15.82v-8.79Z"/><polygon class="cls-5" points="335.24 159.6 340.48 179.62 327.3 220.05 327.3 163.8 331.69 162.04 335.24 159.6"/><path class="cls-6" d="M335.24,159.6,333.73,162a3.94,3.94,0,0,1-3.33,1.83h-3.11V145.34l11.43,8.79Z"/><path class="cls-7" d="M358.2,128.64h1.6c4.83,0,9.46-.55,14.08.88l2.64.88c1.29.4,2,2.57,2.19,3.91l2.85,16.55a2.6,2.6,0,0,1-.71,2.27l-10.37,10.46a2.06,2.06,0,0,0-.54,1.92L372.85,178a2.74,2.74,0,0,1-.48,2.27l-45.08,60V219.78a3.14,3.14,0,0,1,.13-.86L354,131.77A4.39,4.39,0,0,1,358.2,128.64Z"/><path class="cls-8" d="M356.83,44.11c-5-13-9-26-18-36a17,17,0,0,0-2-3.09c-1-.27-2.05-.52-3.12-.75a30.16,30.16,0,0,0-15.46.83C305.38,9.27,280.41,21,278.89,49.67c-.05,1,0,2.07,0,3.11.25,5.17,1.27,21.28,4.72,33.34A34.64,34.64,0,0,0,292,100.6c5.29,5.49,14.84,14.66,24,19.64a23.87,23.87,0,0,0,10.15,2.83C352,104.42,370.71,75.93,356.83,44.11Z"/><path class="cls-9" d="M373.89,44c-2.42-10.05-10.64-31.95-37-39a17,17,0,0,1,2,3.09c9,10,13,23,18,36,13.88,31.82-4.88,60.31-30.72,79,.47,0,.94,0,1.41,0h0A26.74,26.74,0,0,0,340,120c9.45-5,26.7-15,28.86-22.92,0,0,6-25.17,6-44A39.85,39.85,0,0,0,373.89,44Z"/><path class="cls-10" d="M320.78,43.19c12.06,3.13,35.41,9.27,54.73,14.92,0,0,2-14-4.05-26A123.66,123.66,0,0,0,362,15.67,35,35,0,0,0,337.84,1C328.33-.3,316.22-1,312.69,3.11c0,0-3.8,1.25-8.21,3.22a21.66,21.66,0,0,0-10.41,10.09c-.84,1.68-2.56,3.8-5.9,6.33A21.25,21.25,0,0,0,281,32.51c-2.4,6.69-4,14.52-2.79,18.6l26.49-7.69A30.26,30.26,0,0,1,320.78,43.19Z"/><path class="cls-11" d="M288.83,63.11c0-2.76,8.05-5,18-5"/><path class="cls-11" d="M358.83,62.11c0-2.21-8.49-4-19-4"/><path class="cls-8" d="M373.9,62.54s.17-3.08,1.93-4.71a8.26,8.26,0,0,0,1.41-.88c1-.77,2.3.11,2.49,1.62a16.06,16.06,0,0,1-1.9,9.41,5.16,5.16,0,0,1-.43.71,26.88,26.88,0,0,0-3.21,5.62,2.35,2.35,0,0,1-.55,1l-1.81.79Z"/><path class="cls-9" d="M279.77,61.15s-.17-3.41-1.94-5.2a8.54,8.54,0,0,1-1.4-1c-1-.85-2.3.12-2.49,1.79a19.34,19.34,0,0,0,1.89,10.37,6.55,6.55,0,0,0,.44.78,31.11,31.11,0,0,1,3.21,6.2,2.68,2.68,0,0,0,.55,1.12l1.8.87Z"/><path class="cls-11" d="M312.3,102.74c.87,4.33,16.53,6.37,28.53.37"/><ellipse class="cls-12" cx="297.83" cy="67.61" rx="8.48" ry="6.52" transform="translate(-3.87 20.18) rotate(-3.86)"/><ellipse class="cls-10" cx="298.83" cy="68.61" rx="6.5" ry="5" transform="matrix(1, -0.07, 0.07, 1, -3.94, 20.25)"/><ellipse class="cls-12" cx="348.83" cy="67.61" rx="8.48" ry="6.52" transform="translate(-3.76 23.61) rotate(-3.86)"/><ellipse class="cls-10" cx="348.83" cy="68.61" rx="6.5" ry="5" transform="matrix(1, -0.07, 0.07, 1, -3.82, 23.61)"/></g><rect class="cls-13" x="230.83" y="288.11" width="156" height="13"/><polygon class="cls-14" points="386.83 288.11 230.83 288.11 265.83 237.11 421.83 237.11 386.83 288.11"/><rect class="cls-14" x="230.83" y="301.11" width="156" height="114"/><rect class="cls-15" x="302.83" y="272.11" width="47" height="5" rx="2.5" ry="2.5"/><rect class="cls-16" x="305.83" y="268.11" width="41" height="4" rx="2" ry="2"/><path class="cls-15" d="M303.83,225.11l1,1,4,8-6,2,4,13,6-2,1,7s15-9,28-8l-8-29S319.83,216.11,303.83,225.11Z"/><path class="cls-16" d="M303.53,226l-.92-3.21a3.76,3.76,0,0,1,1.7-4.27c4.42-2.59,14.08-7.55,23.59-7.69a5.81,5.81,0,0,1,5.36,3.56l1.08,2.52a1.11,1.11,0,0,1-.71,1.51l-28.72,8.34A1.12,1.12,0,0,1,303.53,226Z"/><path class="cls-16" d="M312,253.68l.92,3.2a3.78,3.78,0,0,0,3.71,2.72c5.12-.14,15.94-1.06,24.08-6a5.78,5.78,0,0,0,2.65-5.86l-.42-2.71a1.11,1.11,0,0,0-1.4-.9l-28.77,8.15A1.1,1.1,0,0,0,312,253.68Z"/><path class="cls-17" d="M295.81,238.43l4,2.68s3,1,3-3c0,0-11.59-9.81-15.41-10.9a10.73,10.73,0,0,1-1.48-.5l-.83-.37C289.11,230.14,293.47,233.54,295.81,238.43Z"/><polygon class="cls-16" points="249.83 256.11 303.46 238.13 305.86 245.93 251.83 264.11 249.83 256.11"/><path class="cls-18" d="M294.89,237.81a2.9,2.9,0,0,0-1.06-.7Z"/><path class="cls-8" d="M296.31,239.58c.19.5.37,1,.52,1.53-.15-.53-.33-1-.52-1.53a10.53,10.53,0,0,0-1.42-1.77l-1.06-.7a2.9,2.9,0,0,1,1.06.7l.92.62c-2.34-4.89-6.7-8.29-10.7-12.09l-25.28-11.23s-12,3-13,11c0,0-1,3,8,14,0,0,6,8,9,9,0,0,2,1,3,5,0,0,2,8,5,11,0,0,2,2,3,0,0,0-1-10-2-13l.26.14a8,8,0,0,1,4,6.45c.11,1.69.2,3.66.14,5.15a3.75,3.75,0,0,0,2.46,3.67l.08,0a2.48,2.48,0,0,0,3.26-2.2c.22-3.19.44-8.24-.23-10.23l-3-7s4,4,5,6,2,11,4,12l0,0a3.37,3.37,0,0,0,5.15-2.67c.11-1.8-.21-4.09-.18-6.35a11.51,11.51,0,0,0-3.6-9.09l-3.4-2.91,3.91,1.68a7.26,7.26,0,0,1,4.12,4.65c.87,3,2,7.24,2,9.67a2.1,2.1,0,0,0,1.3,1.73,3.27,3.27,0,0,0,4.61-3.18c-.17-3.49-.63-8.64-1.91-10.55A56.2,56.2,0,0,0,296.31,239.58Z"/><g id="парень"><path class="cls-18" d="M167.83,197.11a32.08,32.08,0,0,1-3,5s-4,11,3,18a6.93,6.93,0,0,0,4,3s4,1,4,2h5l-9-30Z"/><path class="cls-18" d="M264.83,196.11s5,5,2,15c0,0-1,8-5,12,0,0-1,4-4,3h-3l6-30Z"/><path class="cls-18" d="M298.83,339.11s4,30,3,36c0,0-8,56-9,64l-17-2-3-90Z"/><path class="cls-18" d="M125.75,339.11s-4.58,54,6.4,95h17.37l7.31-82Z"/><path class="cls-19" d="M145.83,275.11s-14,0-26,62l33,13S151.83,284.11,145.83,275.11Z"/><path class="cls-19" d="M283.83,276.11s14,8,24,61l-35,13S273.83,284.11,283.83,276.11Z"/><path class="cls-19" d="M186.83,251.11l-4,11s17,21,66,0l-6-11S207.83,261.11,186.83,251.11Z"/><path class="cls-20" d="M182.83,262.11s20,17,66,0l35,14s-17,106-12,161h-114s-8-154-12-162Z"/><path class="cls-10" d="M214.83,140.11s52.08-3.93,49.1,61.26a26,26,0,0,1-.43,3.52c-1,5.33-4.19,21.09-6.67,25.22,0,0-13,21-22,27l-1.33,4.67c-.67,1.33-3.07.13-3.67-.67l-2,1-2,2-3,3-2-1c-1,1,0,2.5-2,2l-3-2c-.51-.13-2.46,2-3,2l-1,2h0a3,3,0,0,1-3-3h0a1,1,0,0,0-.89-1c-2-.25-7.15-1.93-14.11-12,0,0-16-16-17-20a41.4,41.4,0,0,0-1.2-4,28.41,28.41,0,0,1-1.25-4.62c-.94-5.37-3.24-17.27-5.55-20.34,0,0-10-29,9-47a7.35,7.35,0,0,0,.76-.32,9.34,9.34,0,0,0,4.62-5.11C184.52,149.27,190.21,140.91,214.83,140.11Z"/></g><g id="девушка"><path class="cls-18" d="M397.83,193.11s-2,0-4,4a24.25,24.25,0,0,0,1,18.15,5.29,5.29,0,0,0,1.63,2.05.91.91,0,0,1,.37.8s0,1,2,1l-1-26"/><path class="cls-18" d="M492.83,193.11s7-1,6,7c0,0-1,11-3,13l-1,1a3.55,3.55,0,0,1-2,3Z"/><path class="cls-18" d="M484.83,267.11h4l10,6s10,1,15,13c0,0,13,58,10,86l-7,66h-19s-3-45-3-52c0-7.28,2-28,3-33l-3-19-1,19s-15-8-5-49Z"/><path class="cls-18" d="M399.83,265.11l-22.06,10.63a24.22,24.22,0,0,0-9.93,7.36h0s-14,35-12,91c0,0,6,51,8,65h20s5-43,4-48c0,0-2-27-3-32,0,0,.65-12.21,1.93-16.54a.64.64,0,0,1,1.25.12l.82,11.42S416.83,343.11,399.83,265.11Z"/><path class="cls-21" d="M394.83,267.11l-10,5s11.16,40,12,51.81a13.43,13.43,0,0,0,.31,2.19c.76,3.2,2.27,13.4-6.5,20.94a5.57,5.57,0,0,0-1.81,5.61c2.26,8.64,7.64,30.7,6,39.45,0,0-2,33-8,45h109S481.15,402.23,494,358a12.3,12.3,0,0,0-1.38-10c-2.35-3.74-4.2-10.19-4.78-19.91l11-55-8-5L471,274a94,94,0,0,1-48.68,1.24Z"/><path class="cls-10" d="M411.46,153.68c-1.56.73-18.65,9.41-13.88,39.95h0c0,.34,1,138,13.19,167.26a8.61,8.61,0,0,1,.64,3.51c-.05,3.11.83,9.9,8.17,17.23L432.14,396a11.27,11.27,0,0,0,3.39,2.62l4,2a.29.29,0,0,1,.12.1l.95,1.42a1.05,1.05,0,0,0,1.82-.11h0a.29.29,0,0,1,.48-.08l.91.91a3.53,3.53,0,0,0,4.07.66l1.69-.85a.09.09,0,0,0,.06,0l5.95-4.95.06,0,5.31-2.66a6.11,6.11,0,0,0,1.22-.8l4.76-4a6.56,6.56,0,0,0,1.17-1.3l5.51-8.27S485.32,363,483.64,336.5a11,11,0,0,1,0-1.72c1-11.26,11.83-130.13,9.93-150.14h0c0-.11,1.94-39-36-47,0,0-39.86-8-46,15.87A.25.25,0,0,1,411.46,153.68Z"/></g><g id="ваги"><path class="cls-22" d="M549.41,51.53h-10.2l-23.32,56.92,5.06,4.74,4.82-4.74,18.58-44.59,18.57,44.59,5,4.74,4.91-4.74Z"/><path class="cls-22" d="M654.39,51.53H644.18l-23.32,56.92,5.06,4.74,4.83-4.74,18.57-44.59,18.58,44.59,5,4.74,4.91-4.74Z"/><path class="cls-23" d="M525.37,46.79h62v9.49h-62Z"/><path class="cls-22" d="M525.33,46.79h143v9.49h-143Z"/><path class="cls-22" d="M596.83,26.11h-4.74v120.6h9.49V26.11Z"/><path class="cls-22" d="M553.07,154.11v-8.76h85.68v8.76Z"/><path class="cls-22" d="M515.89,108.45a23.72,23.72,0,0,0,23.71,23.71h9.49a23.71,23.71,0,0,0,23.71-23.71Z"/><path class="cls-22" d="M620.86,108.45a23.72,23.72,0,0,0,23.72,23.71h9.48a23.72,23.72,0,0,0,23.72-23.71Z"/></g><path id="серце" class="cls-24" d="M70.23,158.47,7.62,93.33S-8.19,72.46,5.73,52.23c0,0,10.68-20.77,30.9-18,.9.12,1.8.26,2.71.33,2.06.18,9,1.83,27.1,13.92l9.48,20.24-10.11,7L77.19,90.17l-6.33,31L87.31,89.54,78.45,76.26,91.73,64.88l-13.91-19s10.75-12,27.19-12c0,0,17.08-3.16,32.89,20.87,0,0,8.85,19,0,32.88Z"/><ellipse class="cls-3" cx="325.83" cy="82.61" rx="7" ry="4.5"/><ellipse class="cls-3" cx="325.83" cy="78.61" rx="5" ry="7.5"/></g></g></svg>