<?xml version="1.0" encoding="utf-8"?>
<!-- Generator: Adobe Illustrator 25.2.3, SVG Export Plug-In . SVG Version: 6.00 Build 0)  -->
<svg version="1.1" id="Layer_1" xmlns="http://www.w3.org/2000/svg" xmlns:xlink="http://www.w3.org/1999/xlink" x="0px" y="0px"
	 viewBox="0 0 640 480" style="enable-background:new 0 0 640 480;" xml:space="preserve">
<style type="text/css">
	.st0{fill:#603813;}
	.st1{fill:#F58869;}
	.st2{fill:#3E3E66;}
	.st3{fill:#3F3F6D;}
	.st4{fill:#D17E6B;}
	.st5{fill:#F26B55;}
	.st6{fill:#FFFAF1;}
	.st7{fill:#473123;}
	.st8{fill:#341E14;}
	.st9{fill:#FFFFFF;}
	.st10{fill:#35345C;}
	.st11{fill:#F58B6D;}
	.st12{fill:#42210B;}
	.st13{fill:#7CC2A5;}
	.st14{fill:#78C0E9;}
	.st15{fill:#EF8067;}
	.st16{fill:#F2655A;}
	.st17{fill:none;stroke:#000000;stroke-width:8.5039;stroke-miterlimit:10;}
</style>
<g>
	<polygon class="st0" points="359.29,316.06 50,316.06 84.57,252.31 393.86,252.31 	"/>
	<path class="st1" d="M363.93,164.68c0.26,0.54,0.07,1.05,0,1.49c-0.22,1.36,0.65,1.97,0.74,2.97c0.15,1.58-1.84,2.23-3.71,4.46
		c-2.7,3.2-1.74,5.58-3.71,6.68c-1.09,0.61-2.99,0.79-6.56-1.26c-3.01-0.82-6.02-1.63-9.04-2.45c-1.36-0.3-3.5-0.59-5.94,0
		c-2.65,0.64-3.43,1.78-5.2,1.49c-2.97-0.49-4.4-4.3-4.46-4.46c-0.86-2.37-0.24-4.48,0-5.2c-0.45-3.95,0.94-5.99,1.49-6.68
		c1.13-1.42,2.99-2.2,6.68-3.71c1.82-0.75,3.35-1.27,4.39-1.61l37.19-6.56c1.13-0.08,2.23,0.45,2.23,1.49
		c0,2.97,3.76,2.92-20.05,7.43l1.49,0.74c1.28,0.39,1.9,1,2.23,1.49c0.73,1.07,0.46,2.14,1.49,2.97
		C363.47,164.15,363.75,164.29,363.93,164.68z"/>
	<path class="st2" d="M187.98,252.41c14.88-1.48,28.15-10.6,38.2-21.82c-3.9,1.79-7.97,3.35-11.84,5.27
		C205.15,240.76,195.95,245.05,187.98,252.41z"/>
	<path class="st2" d="M219.62,211.49c-11.71,6.51-23.5,12.76-32.86,22.53C202.89,235.91,212.04,223.86,219.62,211.49z"/>
	<path class="st3" d="M327.66,157.31c-0.1-0.2-0.13-0.33-0.21-0.41c-3.44-3.35-42.95,32.67-70.28,1.63c0,0,0,0,0,0
		c-3.88,1.67-6.85,1.75-8.58,1.84c-7.92,0.42-9.13,2.15-16.61,1.93c-1.8-0.05-4.6-0.36-8.61,0.14c-4.63,0.57-9.65,0.78-33.28,9.05
		c-7.86,2.75-9.74,3.52-15.66,5.43c-6.96,2.24-12.73,3.87-16.55,4.9c-0.66,2.94-1.73,7.67-3.06,13.48
		c-3.52,15.32-5.28,22.99-6.13,26.36c-3.96,15.69-4.78,15.97-4.29,19c0.86,5.3,4.79,13.08,20.84,20.84
		c0.52,0.04,1.75,0.07,3.06-0.61c1.51-0.78,2.22-2,2.45-2.45c-0.2-0.61-0.41-1.23-0.61-1.84c-1.92-0.39-2.73-1.13-3.06-1.84
		c-1.44-2.99,3.17-10.09,9.19-11.03c4.95-0.78,10.44,2.66,12.87,8.58c1.84,0,3.68,0,5.52,0c17.98,0,35.96,0,53.94,0
		c9.19,0,18.39,0,27.58,0c-2.04-5.52-4.09-11.03-6.13-16.55c-0.82-8.79-1.63-17.57-2.45-26.36c3.22-2.99,7.68-6.57,13.48-9.81
		c6.53-3.63,12.58-5.62,17.16-6.74c12.05-3.27,24.11-6.54,36.16-9.81c-1.76-2.2-4.6-6.34-6.13-12.26
		C326.77,164.98,327.21,160.08,327.66,157.31z M219.62,211.49c2.21-3.61,4.29-7.24,6.37-10.57
		C223.91,204.25,221.83,207.88,219.62,211.49c5.98-3.22,11.79-6.74,17.4-10.57C231.41,204.75,225.6,208.28,219.62,211.49
		c-7.58,12.37-16.73,24.43-32.86,22.53C196.12,224.26,207.9,218,219.62,211.49z M226.18,230.59c-10.05,11.22-23.29,20.34-38.2,21.82
		c7.97-7.36,17.16-11.65,26.36-16.55C218.19,233.93,222.31,232.38,226.18,230.59c2.34-2.61,4.52-5.35,6.55-8.21
		C230.7,225.23,228.52,227.97,226.18,230.59c4.79-2.21,9.29-4.77,12.68-8.83C235.47,225.82,230.97,228.38,226.18,230.59z"/>
	<path class="st1" d="M170.68,257.11c0.6,1.09,0.12,1.91,1.03,3.84c0.5,1.05,1.07,1.86,1.49,2.4c1.43,1.02,2.86,2.04,4.29,3.06
		c1.48,0.32,2.74,0.5,3.68,0.61c2.57,0.31,3.26,0.14,3.68,0c0.44-0.15,1.67-0.58,2.45-1.84c0.45-0.72,0.57-1.43,0.61-1.84
		c0.42,0.03,1.45,0.04,2.45-0.61c1.84-1.2,1.84-3.51,1.84-3.68c1.23-0.55,1.97-1.8,1.84-3.06c-0.11-1.07-0.82-2.01-1.84-2.45
		c0.26-0.16,3.37-2.16,3.05-4.63c-0.03-0.23-0.08-0.44-0.15-0.63c0,0-0.15-0.45-0.45-0.87c-1.45-2.04-3.68-3.06-3.68-3.06
		c-1.87-0.86-4.07-1.64-13.48-0.61c-3.53,0.38-3.28,0.48-3.68,0.61c-5.22,1.74-9.67,7.71-8.58,9.81
		C166.11,255.85,169.66,255.25,170.68,257.11z"/>
	<path class="st4" d="M199.41,191.05c-0.02,1,0.13,1.99,0.47,2.93c0.98,2.71,3.59,7.75,9.75,9.32c1.48,0.09,2.96-0.03,4.4-0.37
		C208.61,199.74,203.45,195.78,199.41,191.05z"/>
	<path class="st1" d="M225.56,186.64c0,0,2.05-14.26,3.47-22.13c-5.3,6.58-10.63,12.93-19.54,12.47c-3.47-0.35-6.94-1.48-10.42-2.84
		l1.67,8.07c0,0-0.99,5-1.3,8.14c0,0.23,0,0.47,0,0.7c4.05,4.73,9.19,8.67,14.62,11.88C218.52,201.91,224.97,198.38,225.56,186.64z"
		/>
	<path class="st5" d="M229.03,164.51c0.48-2.67,0.89-4.6,1.13-4.99l-9.61,9.38c0,0-10,7.81-22.57-0.12l1.1,5.35
		c3.48,1.36,7.28,3.72,10.74,4.07C218.73,178.67,223.73,171.09,229.03,164.51z"/>
	<path class="st5" d="M185.98,127.96l-0.37-0.19c-0.43-0.2-0.94-0.02-1.14,0.4c-0.06,0.13-0.09,0.28-0.08,0.43
		c0.21,2.5,0.93,7.49,3.29,9.84c0,0,2.16-5.01-0.37-9.3C186.98,128.63,186.52,128.21,185.98,127.96z"/>
	<path class="st5" d="M233.84,123.98l-1.43,13.28h0.04c0.91,0.01,1.75-0.45,2.23-1.23c1.67-2.77,2.52-5.96,2.45-9.19
		C237.14,126.84,237.31,124.8,233.84,123.98z"/>
	<path class="st1" d="M233.02,134.28h-2.04c0.82-11.03-2.86-24.52-2.86-24.52c-4.9,0-10.22-6.13-10.22-6.13
		c-2.45,5.31-26.15,8.99-26.15,8.99l-0.75,23.7l-2.92-0.4c-1.23,1.84-1.53,13.82-1.61,19.84c0.58,3.96,15.5,16.55,15.5,16.55
		c1.05,1.31,7.29,0.94,11.65,0.51c3.41-0.31,6.65-1.65,9.29-3.84c6.47-5.46,9.71-13.01,9.71-13.01l0.41-1.64
		C233.43,152.66,233.02,134.28,233.02,134.28z"/>
	<ellipse class="st6" cx="221.6" cy="130.34" rx="5.54" ry="4.29"/>
	<ellipse class="st6" cx="199.95" cy="130.77" rx="5.9" ry="4.73"/>
	<circle class="st7" cx="224.23" cy="130.61" r="2.44"/>
	<circle class="st7" cx="202.36" cy="130.68" r="2.44"/>
	<path class="st8" d="M192.46,119.31c0.61,0,9.6-5.52,13.89-5.72c0,0,1.02,3.06,1.02,4.08c0,0-13.07,1.43-14.1,2.66L192.46,119.31z"
		/>
	<path class="st8" d="M213.4,112.88c0,0-1.23,2.15-1.12,4.09c4.93-0.19,9.83,0.79,14.3,2.86l0.61-1.02
		C227.19,118.8,217.38,112.71,213.4,112.88z"/>
	<path class="st5" d="M207.88,133.42l-0.92,7.86c-0.12,0.96-0.38,1.9-0.77,2.79c-0.53,1.23-1.02,3.25,0.48,4.74
		c0,0,0.92,1.38,5.06,0c0,0,1.38-0.15,0.92-2.91c0,0-1.59-9.27-1.93-12.95c-0.05-0.6-0.55-1.06-1.15-1.05l0,0
		C208.7,131.9,207.98,132.56,207.88,133.42z"/>
	<path class="st5" d="M205.69,157.92c0.86-0.69,1.32-0.29,4.9-0.61c2.85-0.26,3.71-0.61,4.9,0c0.95,0.48,1.51,1.27,1.84,1.84
		c-0.09,0.45-0.26,1.11-0.61,1.84c-1.66,3.42-5.35,4.26-5.52,4.29c-1.68,0.32-2.98,0.22-4.06-0.29c-0.55-0.26-2.16-1-2.68-2.77
		C204,160.65,204.54,158.84,205.69,157.92z"/>
	<path class="st8" d="M191.24,136.33c0,0,0-22.23,1.23-23.46c0,0,20.75-3.06,25.04-8.58c0,0,3.88,6.13,10.62,5.52l2.86,24.52h2.04
		c0,0,4.19-33.77,2.65-36.53c0,0-2.15-5.21-11.65-5.52c0,0-2.36-9.16-29.75-5.71c-1.3,0.15-2.57,0.49-3.77,1.01
		c-5.37,2.45-17.78,10.87-8.47,34.24l6.03,14.1L191.24,136.33z"/>
	<path class="st9" d="M318.92,274.54c-2.23,4.43-11.06,12.47-14.35,16.9c-1.78-0.34-3.57-0.67-5.35-1.01
		c-1.51-0.47-2.31-0.77-2.78-0.98c-0.17-0.08-0.47-0.22-0.95-0.29c-0.11-0.02-0.29-0.04-1.12-0.05c-0.36-0.01-0.66-0.01-0.86-0.01
		c-0.26-0.17-0.68-0.4-1.3-0.61c-1.15-0.38-2.31-0.45-2.85-0.46c0.08,0.24-0.07,0.43-0.33,0.47c-0.39,0.06-0.89-0.25-0.95-0.29
		c-0.22-0.14-0.23-0.22-0.35-0.32c-0.36-0.3-1.26-0.36-1.73-0.41c-0.72-0.08-1.72-0.29-2.86-0.86c-0.24,0-0.79-0.03-1.29-0.21
		c-0.13-0.05-0.47-0.17-0.61-0.36c-0.06-0.09-0.07-0.17-0.07-0.18c-0.01-0.09,0.03-0.17,0.06-0.21c-0.45,0.22-1.07,0.44-1.71,0.38
		c-0.53-0.04-0.79-0.25-1.56-0.65c0,0-0.74-0.39-1.74-0.81c-1.12-0.48-2.63-0.67-5.61-1.05c-1.54-0.19-1.62-0.17-2.67-0.3
		c-1.62-0.21-3.21-0.49-4.75-0.85c1.28,0.44,2.62,0.82,4.01,1.14c0.98,0.23,1.07,0.21,2.51,0.54c2.78,0.63,4.2,0.96,5.1,1.53
		c0.81,0.51,1.38,0.95,1.38,0.95c0.59,0.46,0.77,0.69,1.27,0.78c0.61,0.11,1.31-0.04,1.85-0.22c-0.05,0.04-0.12,0.11-0.15,0.2
		c0,0.01-0.03,0.09-0.01,0.19c0.05,0.2,0.34,0.35,0.45,0.41c0.42,0.22,0.95,0.3,1.19,0.32c0.89,0.66,1.78,0.95,2.46,1.1
		c0.44,0.1,1.3,0.24,1.53,0.56c0.08,0.11,0.05,0.19,0.21,0.35c0.05,0.04,0.41,0.39,0.82,0.37c0.27-0.02,0.51-0.2,0.53-0.43
		c0.53,0.06,1.64,0.24,2.62,0.71c0.53,0.26,0.85,0.52,1.03,0.71c0.2,0.02,0.49,0.05,0.85,0.09c0.81,0.09,0.98,0.13,1.08,0.15
		c0.45,0.11,0.68,0.27,0.82,0.37c0.37,0.24,1.03,0.61,2.33,1.21c1.62,0.49,3.24,0.98,4.86,1.46c-7.99,5.26-15.98,10.52-23.97,15.79
		c-10.21-4.32-22.47-8.99-36.9-13.61c-12.97-4.15-25.35-7.51-36.59-10.22c8.79-6.44,17.57-12.87,26.36-19.31
		c4.07-3.26,8.14-6.51,12.22-9.77c24.83,4.29,48.42,8.83,68.63,14.31C312.22,272.72,316.57,273.7,318.92,274.54z"/>
</g>
<g>
	<path class="st10" d="M432.24,346.37l-9.43,6.93l22.15,30.15l2.37-1.74c1.36-1,1.95-2.64,1.41-3.89l-9.2-21.51L432.24,346.37z"/>
	<polygon class="st11" points="440.98,355.38 439.53,356.31 432.83,347.18 434.21,346.17 	"/>
	<polygon class="st11" points="508.27,382.13 508.16,384.96 497.83,384.96 497.83,382.13 	"/>
	<path class="st10" d="M497.17,384.57v10.4h41.34v-2.61c0-1.5-1.07-2.78-2.54-3.06l-26.83-4.72L497.17,384.57z"/>
	<polygon class="st12" points="534.22,309.32 571,312.38 580.98,269.8 527.76,259.16 	"/>
	<path class="st1" d="M532.87,249.6c-0.66,0.94-1.48,0.86-2.7,2.4c-0.67,0.84-1.12,1.66-1.41,2.23c-0.33,1.64-0.66,3.28-0.99,4.92
		c0.25,1.41,0.53,2.57,0.75,3.43c0.62,2.35,0.98,2.88,1.24,3.19c0.27,0.32,1.03,1.22,2.29,1.41c0.73,0.11,1.33-0.06,1.67-0.19
		c0.12,0.37,0.46,1.27,1.31,1.89c1.57,1.13,3.41,0.22,3.55,0.15c0.85,0.85,2.09,1,3.06,0.39c0.82-0.51,1.32-1.5,1.33-2.56
		c0.22,0.16,2.86,2.07,4.71,0.83c0.17-0.11,0.32-0.24,0.45-0.38c0,0,0.3-0.31,0.54-0.73c1.13-2.06,1.2-4.39,1.2-4.39
		c0.05-1.96-0.07-4.17-4.06-11.94c-1.49-2.91-1.49-2.65-1.73-2.95c-3.14-3.84-9.39-5.36-10.7-3.6
		C532.33,245.15,534,247.99,532.87,249.6z"/>
	<path class="st1" d="M469.86,245.38c-0.53,0.72-1.18,0.65-2.16,1.83c-0.53,0.64-0.89,1.27-1.12,1.71
		c-0.26,1.26-0.52,2.52-0.78,3.78c0.2,1.08,0.43,1.98,0.62,2.64c0.51,1.81,0.8,2.22,1.01,2.46c0.21,0.25,0.83,0.94,1.84,1.09
		c0.58,0.09,1.07-0.04,1.34-0.14c0.1,0.29,0.38,0.98,1.06,1.45c1.27,0.87,2.74,0.18,2.84,0.13c0.69,0.66,1.68,0.78,2.45,0.31
		c0.65-0.39,1.05-1.15,1.06-1.96c0.18,0.13,2.3,1.61,3.78,0.66c0.14-0.09,0.26-0.18,0.36-0.29c0,0,0.24-0.24,0.43-0.56
		c0.9-1.57,0.94-3.37,0.94-3.37c0.04-1.5-0.07-3.21-3.3-9.19c-1.21-2.24-1.2-2.05-1.4-2.27c-2.54-2.97-7.55-4.16-8.59-2.81
		C469.41,241.96,470.77,244.15,469.86,245.38z"/>
	<path class="st13" d="M544.64,151.18c-4.5-13.42-12.44-22.92-18.39-28.81c-10.62,3.06-21.25,6.13-31.87,9.19
		c-12.72,4.18-18.38,10.98-20.84,14.71c-0.18,0.27-0.3,0.47-0.53,0.84c-5.83,9.54-9.13,19.45-11.73,29.19
		c-3.75,14.03-5.63,21.05-4.9,26.36c1.14,8.35,4.03,7.89,6.74,19c3.22,13.2,1.82,24.79,4.29,25.13c1.03,0.14,1.54-1.82,4.9-3.68
		c2.23-1.23,4.15-1.56,4.78-1.69c3.01-0.65,9.86,5.05,36.9-8.11c2.04,0,5.31,0.61,7.36,0.61c2.25,8.58,6.33,6.74,8.58,15.32
		c1.55-1.13,4.48-2.94,8.58-3.68c3.07-0.55,5.66-0.3,7.36,0c-0.1-17.27,0.26-31.38,0.61-41.07
		C547.55,174.78,549.28,164.97,544.64,151.18z"/>
	<path class="st14" d="M482.74,228.41c-2.9,7.05-8.95,24.59-3.68,45.36c2.26,8.89,5.95,15.88,9.19,20.84
		c-18.18,16.75-36.37,33.51-54.55,50.26c2.86,3.88,5.72,7.76,8.58,11.65c17.57-10.22,35.14-20.43,52.71-30.65
		c4.9-0.61,12.87-16.55,17.78-17.16c-2.04,13.28-7.15,41.88-9.19,55.16c-2.45,6.13-4.9,12.26-7.36,18.39
		c4.9-0.2,9.81-0.41,14.71-0.61c7.63-9.56,23.29-52.1,26.97-71.71c0.69-3.66-3.23-32.38-6.74-42.29c0.3-7.31,0.57-14.68,0.8-22.1
		c0.16-4.91,0.3-9.8,0.42-14.67c-5.86,0.17-12,0.18-18.39,0C502.8,230.54,492.35,229.64,482.74,228.41z"/>
	<path class="st15" d="M534.77,149.85c0,0-8.46-14.91-8.61-17.3l-1.69,3.02c1.34,5.94,4.01,11.97,8.69,15.64L534.77,149.85z"/>
	<path class="st2" d="M538.43,182.99c-4.31-11.54-1.78-22.58,0.84-33.63c-0.17,0.02-0.45,0-0.62,0c-3.2,0.06-7.04,0.03-8.05-0.41
		l3.09,66.23c0,0,4.84-2.96,6.49-2.51c0.45,0.4,0.94,0.74,1.47,1.02c0.36-1.53,0.62-3.08,0.76-4.64
		C543.36,199.74,541.27,191.94,538.43,182.99z"/>
	<path class="st8" d="M584.48,119.3c0.01-0.63,0.14-1.47,0.61-2.45c-1.02-1.84-2.04-3.68-3.06-5.52c-0.13-2.17-0.25-4.34-0.38-6.52
		l0.49,0.03c-4.72-6.56-7.49-13.99-11.05-20.98c-1.41-0.9-3.49-2.26-5.11-3.47c-1.51-1.12-3.33-1.74-5.21-1.76
		c-6.17-0.1-19.63,1.42-30.13,14.86c-1.54,1.98-2.53,4.34-2.84,6.84l-2.99,23.5l15.31-15.52c0,0,19.27,6.62,27.12-3.08
		c0,0,2.2,10.41,4.56,13.41c0,0,2.01,0.71-4.59,15.63c0,0,0,0,0,0c5.89-8.07,9.49-9.38,11.75-8.84c3.33,0.79,4.65,5.8,7.36,5.52
		c1.75-0.19,2.95-2.47,3.68-4.29C586.63,124.99,584.42,122.19,584.48,119.3z"/>
	<path class="st5" d="M533.07,114.72c0,0,0.66-3.56,0.15-6.26c-0.09-0.46-0.3-0.9-0.6-1.26c-0.32-0.42-0.72-0.77-1.16-1.05
		c-0.42-0.23-0.96-0.09-1.2,0.33c-0.74,1.25-2.51,4.61-2.43,8.17c0.02,0.64,0.31,1.25,0.8,1.67l0.59,0.52L533.07,114.72z"/>
	<path class="st11" d="M567.24,105.25c0,0-2.31,4.2-27.38,1.63c0,0-6.32,2.83-13.26,13.33c-2.63,3.97-3.34,8.91-1.94,13.47
		c1.12,3.66,3.41,8.46,7.74,14.43c0.58,0.81,1.29,1.52,2.09,2.1l0,0c1.74,1.28,3.9,1.87,6.05,1.64c6.58-0.75,12.97-2.7,18.85-5.75
		c1.94-1.02,3.53-2.59,4.58-4.51c1.93-3.52,3.6-7.17,5.02-10.92c0,0,4.54-9.59,4.45-11.55L567.24,105.25z"/>
	<path class="st8" d="M545.25,115c0,0,1.02-0.01,2.29,0.08c2.11,0.16,4.08,1.1,5.53,2.64c0.9,0.93,1.7,1.94,2.41,3.02
		c0.54-0.37,1.03-0.81,1.46-1.31c0.51-0.64,0.49-1.54-0.05-2.16c-0.88-0.98-1.86-1.88-2.91-2.68c-1.19-0.95-2.72-1.38-4.23-1.18
		C547.96,113.62,545.7,114.11,545.25,115z"/>
	<path class="st8" d="M570.34,124.41c-1.4-1.11-3.83-2.67-6.36-2.56c-0.45,0.89-0.71,1.86-0.76,2.86c2.65-0.43,5.36,0.3,7.43,2.01
		l0,0C571.18,126,571.04,124.98,570.34,124.41z"/>
	
		<ellipse transform="matrix(0.5899 -0.8075 0.8075 0.5899 123.7294 493.0029)" class="st6" cx="547.23" cy="124.69" rx="4.28" ry="3.79"/>
	
		<ellipse transform="matrix(0.5899 -0.8075 0.8075 0.5899 122.961 507.2186)" class="st6" cx="560.84" cy="132.55" rx="4.28" ry="3.79"/>
	<circle class="st7" cx="547.28" cy="126.7" r="2.34"/>
	<circle class="st7" cx="560.49" cy="134.53" r="2.34"/>
	<path class="st5" d="M551.38,132.85l0,5.08c-0.01,0.54-0.42,0.99-0.96,1.04c-1.74,0.11-3.48-0.35-4.93-1.32
		c-0.31-0.21-0.39-0.62-0.18-0.93c0.05-0.08,0.12-0.14,0.19-0.19l2.27-1.51c0.89-0.59,1.69-1.3,2.37-2.12l0,0
		c0.28-0.33,0.77-0.39,1.12-0.14L551.38,132.85z"/>
	<path class="st5" d="M543.86,144.48c0.14-0.2,0.36-0.32,0.6-0.32l1.25,0.07c0,0-2.31-5.14-10.36-5.37
		C538.43,140.34,541.29,142.23,543.86,144.48z"/>
	<path class="st16" d="M535.37,138.85c-0.59-0.02-1.22-0.01-1.88,0.03c0,0,3.5,0.66,9.9,7.23l0.33-1.37
		c0.02-0.1,0.07-0.19,0.13-0.27C541.3,142.22,538.44,140.33,535.37,138.85z"/>
	<path class="st8" d="M584.48,141.98"/>
	<line class="st17" x1="482.74" y1="228.41" x2="532.38" y2="230.86"/>
</g>
<rect x="50" y="316.06" class="st0" width="309.53" height="110.94"/>
<polygon class="st0" points="359.53,427 359.53,315.75 393.86,252.31 391.41,373.06 "/>
</svg>
