<?xml version="1.0" encoding="utf-8"?>
<!-- Generator: Adobe Illustrator 25.2.3, SVG Export Plug-In . SVG Version: 6.00 Build 0)  -->
<svg version="1.1" id="Layer_1" xmlns="http://www.w3.org/2000/svg" xmlns:xlink="http://www.w3.org/1999/xlink" x="0px" y="0px"
	 viewBox="0 0 640 480" style="enable-background:new 0 0 640 480;" xml:space="preserve">
<style type="text/css">
	.st0{stroke:#FFFFFF;stroke-miterlimit:10;}
	.st1{fill:none;stroke:#FFFFFF;stroke-width:2.8346;stroke-miterlimit:10;}
	.st2{fill:#FFFFFF;}
	.st3{font-family:'Corbel-Bold';}
	.st4{font-size:27.6213px;}
	.st5{font-size:27.1199px;}
	.st6{fill:#78C0E9;}
	.st7{fill:#3F3F6D;}
	.st8{fill:#F15A24;}
	.st9{font-family:'ErasITC-Bold';}
	.st10{font-size:169.3159px;}
</style>
<g>
	<g>
		<path class="st0" d="M121.8,347.36l3.02-17.35l27.91,6.04l2.26,15.09C143.93,349.87,132.86,348.61,121.8,347.36z"/>
		<polygon class="st0" points="185.06,309.33 199.4,282.93 160.54,275.76 143.95,302.17 		"/>
		<polygon class="st0" points="202.41,301.04 199.4,282.93 185.06,309.33 187.33,324.42 		"/>
		<polygon class="st0" points="218.5,313.12 232.84,286.72 206.43,282.95 190.59,307.09 		"/>
		<polygon class="st0" points="235.85,304.83 232.84,286.72 218.5,313.12 220.77,328.21 		"/>
		<path class="st0" d="M187.57,324.44l3.02-17.35l27.91,6.04l2.26,15.09C209.7,326.96,198.64,325.7,187.57,324.44z"/>
		<polygon class="st0" points="251.7,316.9 266.03,290.49 239.63,286.72 223.78,310.86 		"/>
		<polygon class="st0" points="269.05,308.6 266.03,290.49 251.7,316.9 253.96,331.98 		"/>
		<path class="st0" d="M220.77,328.21l3.02-17.35l27.91,6.04l2.26,15.09C242.89,330.73,231.83,329.47,220.77,328.21z"/>
		<polygon class="st0" points="284.89,320.67 299.22,294.26 272.82,290.49 256.98,314.63 		"/>
		<polygon class="st0" points="302.24,312.37 299.22,294.26 284.89,320.67 287.15,335.76 		"/>
		<path class="st0" d="M253.96,331.98l3.02-17.35l27.91,6.04l2.26,15.09C276.09,334.5,265.02,333.24,253.96,331.98z"/>
		<polygon class="st0" points="318.08,325.19 332.42,298.79 306.01,295.02 290.17,319.16 		"/>
		<polygon class="st0" points="335.43,316.9 332.42,298.79 318.08,325.19 320.35,340.28 		"/>
		<path class="st0" d="M287.15,336.51l3.02-17.35l27.91,6.04l2.26,15.09C309.28,339.03,298.22,337.77,287.15,336.51z"/>
		<polygon class="st0" points="351.28,328.97 365.61,302.56 339.21,298.79 323.36,322.93 		"/>
		<polygon class="st0" points="368.63,320.67 365.61,302.56 351.28,328.97 353.54,344.05 		"/>
		<path class="st0" d="M140.93,321.03l3.02-18.86l41.11,7.17l2.26,15.09C176.26,323.17,151.99,322.29,140.93,321.03z"/>
		<polygon class="st0" points="170.08,327.74 167.06,309.64 152.73,336.04 154.99,351.13 		"/>
		<path class="st0" d="M320.35,340.28l3.02-17.35l27.91,6.04l2.26,15.09C342.47,342.8,331.41,341.54,320.35,340.28z"/>
		<polygon class="st0" points="384.87,333.58 399.21,307.18 372.8,303.41 356.96,327.55 		"/>
		<polygon class="st0" points="402.22,325.28 399.21,307.18 384.87,333.58 387.14,348.67 		"/>
		<path class="st0" d="M353.94,344.9l3.02-17.35l27.91,6.04l2.26,15.09C376.07,347.41,365.01,346.16,353.94,344.9z"/>
		<polygon class="st0" points="417.96,337.44 432.29,311.03 405.89,307.26 390.05,331.4 		"/>
		<polygon class="st0" points="435.31,329.14 432.29,311.03 417.96,337.44 420.22,352.52 		"/>
		<path class="st0" d="M387.03,348.75l3.02-17.35l27.91,6.04l2.26,15.09C409.16,351.27,398.1,350.01,387.03,348.75z"/>
		<polygon class="st0" points="451.15,341.21 465.49,314.81 439.08,311.03 423.24,335.17 		"/>
		<polygon class="st0" points="468.51,332.91 465.49,314.81 451.15,341.21 453.42,356.3 		"/>
		<path class="st0" d="M420.22,352.52l3.02-17.35l27.91,6.04l2.26,15.09C442.35,355.04,431.29,353.78,420.22,352.52z"/>
		<polygon class="st0" points="185.66,341.63 199.99,315.23 173.59,311.45 157.74,335.59 		"/>
		<polygon class="st0" points="203.01,333.33 199.99,315.23 185.66,341.63 187.92,356.72 		"/>
		<path class="st0" d="M154.73,352.95l3.02-17.35l27.91,6.04l2.26,15.09C176.85,355.46,165.79,354.2,154.73,352.95z"/>
		<polygon class="st0" points="219.1,345.42 233.43,319.02 207.03,315.24 191.18,339.38 		"/>
		<polygon class="st0" points="236.45,337.12 233.43,319.02 219.1,345.42 221.36,360.51 		"/>
		<path class="st0" d="M188.17,356.74l3.02-17.35l27.91,6.04l2.26,15.09C210.29,359.25,199.23,357.99,188.17,356.74z"/>
		<polygon class="st0" points="252.29,349.19 266.62,322.79 240.22,319.02 224.38,343.16 		"/>
		<polygon class="st0" points="269.64,340.89 266.62,322.79 252.29,349.19 254.55,364.28 		"/>
		<path class="st0" d="M221.36,360.51l3.02-17.35l27.91,6.04l2.26,15.09C243.49,363.02,232.42,361.76,221.36,360.51z"/>
		<polygon class="st0" points="285.48,352.96 299.82,326.56 273.41,322.79 257.57,346.93 		"/>
		<polygon class="st0" points="302.83,344.66 299.82,326.56 285.48,352.96 287.75,368.05 		"/>
		<path class="st0" d="M254.55,364.28l3.02-17.35l27.91,6.04l2.26,15.09C276.68,366.79,265.62,365.54,254.55,364.28z"/>
		<polygon class="st0" points="318.68,357.49 333.01,331.09 306.61,327.31 290.76,351.45 		"/>
		<polygon class="st0" points="336.03,349.19 333.01,331.09 318.68,357.49 320.94,372.58 		"/>
		<path class="st0" d="M287.75,368.81l3.02-17.35l27.91,6.04l2.26,15.09C309.87,371.32,298.81,370.06,287.75,368.81z"/>
		<polygon class="st0" points="351.87,361.26 366.2,334.86 339.8,331.09 323.96,355.23 		"/>
		<polygon class="st0" points="369.22,352.96 366.2,334.86 351.87,361.26 354.13,376.35 		"/>
		<path class="st0" d="M320.94,372.58l3.02-17.35l27.91,6.04l2.26,15.09C343.07,375.09,332,373.83,320.94,372.58z"/>
		<polygon class="st0" points="385.47,365.88 399.8,339.47 373.4,335.7 357.55,359.84 		"/>
		<polygon class="st0" points="402.82,357.58 399.8,339.47 385.47,365.88 387.73,380.97 		"/>
		<path class="st0" d="M354.54,377.19l3.02-17.35l27.91,6.04l2.26,15.09C376.66,379.71,365.6,378.45,354.54,377.19z"/>
		<polygon class="st0" points="418.55,369.73 432.89,343.33 406.48,339.56 390.64,363.7 		"/>
		<polygon class="st0" points="435.91,361.43 432.89,343.33 418.55,369.73 420.82,384.82 		"/>
		<polygon class="st0" points="451.75,373.5 466.08,347.1 439.68,343.33 423.84,367.47 		"/>
		<path class="st0" d="M387.62,381.05l3.02-17.35l27.91,6.04l2.26,15.09C409.75,383.56,398.69,382.3,387.62,381.05z"/>
		<polygon class="st0" points="469.1,365.21 466.08,347.1 451.75,373.5 454.01,388.59 		"/>
		<path class="st0" d="M420.82,384.82l3.02-17.35l27.91,6.04l2.26,15.09C442.95,387.33,431.88,386.08,420.82,384.82z"/>
		<polygon class="st0" points="152.71,371.82 167.04,345.42 122.07,336.12 106.23,361.77 		"/>
		<polygon class="st0" points="170.06,363.52 167.04,345.42 152.71,371.82 154.97,386.91 		"/>
		<path class="st0" d="M101.7,380.63l4.53-18.86l46.48,10.06l2.26,15.09C143.91,385.65,112.77,381.88,101.7,380.63z"/>
		<polygon class="st0" points="185.9,375.6 200.24,349.19 173.83,345.42 157.99,369.56 		"/>
		<polygon class="st0" points="203.25,367.3 200.24,349.19 185.9,375.6 188.17,390.68 		"/>
		<path class="st0" d="M154.97,386.91l3.02-17.35l27.91,6.04l2.26,15.09C177.1,389.43,166.04,388.17,154.97,386.91z"/>
		<polygon class="st0" points="219.1,379.37 233.43,352.96 207.03,349.19 191.18,373.33 		"/>
		<polygon class="st0" points="236.45,371.07 233.43,352.96 219.1,379.37 221.36,394.45 		"/>
		<path class="st0" d="M188.17,390.68l3.02-17.35l27.91,6.04l2.26,15.09C210.29,393.2,199.23,391.94,188.17,390.68z"/>
		<polygon class="st0" points="252.29,383.89 266.62,357.49 240.22,353.72 224.38,377.86 		"/>
		<polygon class="st0" points="269.64,375.6 266.62,357.49 252.29,383.89 254.55,398.98 		"/>
		<path class="st0" d="M221.36,395.21l3.02-17.35l27.91,6.04l2.26,15.09C243.49,397.72,232.42,396.47,221.36,395.21z"/>
		<polygon class="st0" points="285.48,387.67 299.82,361.26 273.41,357.49 257.57,381.63 		"/>
		<polygon class="st0" points="302.83,379.37 299.82,361.26 285.48,387.67 287.75,402.75 		"/>
		<path class="st0" d="M254.55,398.98l3.02-17.35l27.91,6.04l2.26,15.09C276.68,401.5,265.62,400.24,254.55,398.98z"/>
		<polygon class="st0" points="319.08,392.28 333.41,365.88 307.01,362.11 291.17,386.25 		"/>
		<polygon class="st0" points="336.43,383.98 333.41,365.88 319.08,392.28 321.34,407.37 		"/>
		<path class="st0" d="M288.15,403.6l3.02-17.35l27.91,6.04l2.26,15.09C310.28,406.11,299.21,404.85,288.15,403.6z"/>
		<polygon class="st0" points="352.17,396.14 366.5,369.73 340.1,365.96 324.26,390.1 		"/>
		<polygon class="st0" points="369.52,387.84 366.5,369.73 352.17,396.14 354.43,411.22 		"/>
		<path class="st0" d="M321.24,407.45l3.02-17.35l27.91,6.04l2.26,15.09C343.37,409.97,332.3,408.71,321.24,407.45z"/>
		<polygon class="st0" points="385.36,399.91 399.69,373.5 373.29,369.73 357.45,393.87 		"/>
		<polygon class="st0" points="402.71,391.61 399.69,373.5 385.36,399.91 387.62,415 		"/>
		<path class="st0" d="M354.43,411.22l3.02-17.35l27.91,6.04l2.26,15.09C376.56,413.74,365.5,412.48,354.43,411.22z"/>
		<path class="st0" d="M453.42,357.84l3.02-17.35l27.91,6.04l2.26,15.09C475.54,360.36,464.48,359.1,453.42,357.84z"/>
		<polygon class="st0" points="469.19,365.27 466.17,347.17 451.84,373.57 454.1,388.66 		"/>
		<path class="st0" d="M454.09,390.24l3.02-17.35l27.82,3.96l0.75,17.35C474.62,392.95,465.16,391.5,454.09,390.24z"/>
		<polygon class="st0" points="152.73,336.04 167.06,309.64 140.66,305.86 124.82,330.01 		"/>
		<polygon class="st0" points="465.32,409.29 478.9,382.13 406.69,373.31 390.85,397.45 		"/>
		<polygon class="st0" points="482.13,400.47 478.9,382.13 465.32,408.54 466.83,423.63 		"/>
		<path class="st0" d="M387.83,414.81l3.02-17.35l74.47,11.08l1.51,14.33C455.76,421.61,398.9,416.06,387.83,414.81z"/>
		<path class="st0" d="M485.69,377.61c10.31-18.36,20.62-36.71,30.93-55.07c-14.84-2.01-29.67-4.02-44.51-6.04
			c-5.03,7.8-10.81,16.35-15.84,24.14c5.53,1.51,11.82,2.26,17.35,3.77c-5.03,8.55-11.57,19.36-16.6,27.91
			C466.33,374.09,476.38,375.85,485.69,377.61z"/>
		<polygon class="st0" points="518.13,341.4 515.86,323.29 484.93,377.61 485.69,394.2 		"/>
		<polygon class="st0" points="451.92,373.66 466.26,347.26 439.85,343.49 424.01,367.63 		"/>
		<polyline class="st1" points="499.27,330.84 495.5,338.38 475.13,333.19 		"/>
		<polygon class="st2" points="476.38,338.67 469.44,331.41 479.19,329.04 		"/>
	</g>
	<text transform="matrix(0.9485 0.2628 -0.5475 0.8368 232.0049 307.0885)" class="st2 st3 st4">E</text>
	<text transform="matrix(0.9485 0.2628 -0.5475 0.8368 265.0293 311.2378)" class="st2 st3 st4">X</text>
	<text transform="matrix(0.9485 0.2628 -0.5475 0.8368 299.2242 315.01)" class="st2 st3 st4">P</text>
	<text transform="matrix(0.9485 0.2628 -0.5475 0.8368 399.8013 326.5592)" class="st2 st3 st4">T</text>
	<text transform="matrix(0.9485 0.2628 -0.5475 0.8368 332.4177 318.4947)" class="st2 st3 st4">O</text>
	<text transform="matrix(0.9485 0.2628 -0.5475 0.8368 366.2043 322.3488)" class="st2 st3 st4">R</text>
	<text transform="matrix(0.9485 0.2628 -0.5475 0.8368 204.1699 370.4032)" class="st2 st3 st4">I</text>
	<text transform="matrix(0.9461 0.2622 -0.5467 0.8373 230.1779 372.6851)" class="st2 st3 st5">M</text>
	<text transform="matrix(0.9485 0.2628 -0.5475 0.8368 267.8979 378.0297)" class="st2 st3 st4">P</text>
	<text transform="matrix(0.9485 0.2628 -0.5475 0.8368 299.8177 381.6296)" class="st2 st3 st4">O</text>
	<text transform="matrix(0.9485 0.2628 -0.5475 0.8368 333.4147 386.246)" class="st2 st3 st4">R</text>
	<text transform="matrix(0.9485 0.2628 -0.5475 0.8368 366.2047 390.6822)" class="st2 st3 st4">T</text>
	<text transform="matrix(0.9485 0.2628 -0.5475 0.8368 167.0627 331.9841)" class="st2 st3 st4">T</text>
	<text transform="matrix(0.9485 0.2628 -0.5475 0.8368 200.2374 335.7015)" class="st2 st3 st4">A</text>
	<text transform="matrix(0.9485 0.2628 -0.5475 0.8368 233.4307 339.3835)" class="st2 st3 st4">X</text>
	<text transform="matrix(0.9485 0.2628 -0.5475 0.8368 336.4318 352.5244)" class="st2 st3 st4">I</text>
	<text transform="matrix(0.9485 0.2628 -0.5475 0.8368 299.8185 347.3049)" class="st2 st3 st4">T</text>
	<text transform="matrix(0.9485 0.2628 -0.5475 0.8368 362.9787 354.3483)" class="st2 st3 st4">M</text>
	<text transform="matrix(0.9485 0.2628 -0.5475 0.8368 399.2074 358.7469)" class="st2 st3 st4">E</text>
</g>
<g>
	<path class="st6" d="M509.72,181.01c-4.48,31.5-9.11,62.67-13.88,93.51c-40.95,5.49-86.84,9.45-136.94,10.26
		c-61.43,0.99-116.97-2.94-165.26-9.02c-1.05-1.3-1.88-2.41-2.46-3.22c-1.7-2.34-2.9-4.03-3.97-6.43c-0.49-1.1-0.81-2.03-1-2.64
		c105.48-67.61,211.84-137.51,317.32-205.11c9.16,3.92,12.12,7.12,21.28,11.05C519.77,106.6,514.75,143.81,509.72,181.01"/>
	<path class="st7" d="M177.75,75.85c45.03-10.41,99.74-19.58,162.28-22.92c62.4-3.34,117.67-0.09,163.49,5.43
		c-4.71,36.8-9.73,74.01-15.08,111.61c-4.48,31.5-9.11,62.67-13.88,93.51c-40.07,5.74-86.06,9.89-136.94,10.26
		c-56.82,0.4-107.76-4-151.42-10.26c-2.13-32.35-3.96-65.33-5.43-98.94C179.45,134.5,178.45,104.93,177.75,75.85z"/>
	<path class="st2" d="M203.96,91.94c36.69-8.48,81.26-15.95,132.21-18.68c50.84-2.72,95.87-0.07,133.19,4.42
		c-3.84,29.98-7.93,60.29-12.29,90.93c-3.65,25.66-7.42,51.06-11.3,76.18c-32.64,4.68-70.11,8.06-111.57,8.36
		c-46.29,0.33-87.8-3.26-123.36-8.36c-1.74-26.35-3.22-53.23-4.42-80.6C205.34,139.71,204.53,115.63,203.96,91.94z"/>
</g>
<text transform="matrix(0.99 0 0 1 266.0291 194.7986)" class="st8 st9 st10">!</text>
<text transform="matrix(0.99 0 0 1 324.2558 194.7985)" class="st8 st9 st10">?</text>
<text transform="matrix(3.214963e-03 -0.8186 1 3.927432e-03 362.98 253.1672)" class="st8 st9 st10">(</text>
</svg>
