<svg xmlns="http://www.w3.org/2000/svg" viewBox="0 0 371.34 237.38"><defs><style>.cls-1{fill:#383260;}.cls-2{fill:#363563;}.cls-3{fill:#8c7ebb;}.cls-4{fill:#ffc525;}.cls-5{fill:#f58b6d;}.cls-6,.cls-8{fill:none;stroke:#383260;stroke-miterlimit:10;}.cls-7{fill:#4d3c62;}.cls-8{stroke-width:0.25px;}.cls-9{fill:#ed8d75;}.cls-10{fill:#35345c;}.cls-11{fill:#78c0e9;}.cls-12{fill:#f26d57;}.cls-13{fill:#f5896a;}.cls-14{fill:#f58869;}.cls-15{fill:#b0d235;}.cls-16{fill:#393563;}.cls-17{fill:#7cc2a5;}.cls-18{fill:#6b6889;}</style></defs><title>позбавлення батьківських прав</title><g id="Слой_2" data-name="Слой 2"><g id="позбавлення_батькывських_прав" data-name="позбавлення батькывських прав"><path class="cls-1" d="M188.56,122.25c-.06-.58-.13-1.15-.22-1.73.3-2.41.79-4.92-.08-7.26-.09-.22-.18-.44-.28-.65a30,30,0,0,0-3.86-11.25,32.29,32.29,0,0,0-2.45-5.14c-6-10.08-17.58-14.5-29-12.44-6.24,1.13-14,5.1-18.28,10.83l-.5.6a1.54,1.54,0,0,0-.65.55l-1,1.55A1.29,1.29,0,0,0,132,98a6.61,6.61,0,0,0-.72,1.93,1.54,1.54,0,0,0-.24.46,23.49,23.49,0,0,0-.8,4.69c-1.19,5.26-.3,10.33,1.28,15.44a1.69,1.69,0,0,0,.12.27c0,.27,0,.55.09.82a1.43,1.43,0,0,0,.14.47v.11a1.53,1.53,0,0,0,.08.49l.06,1.85q.26,5.7.8,11.39c.27,2.83.16,6.21,1.3,8.86a1.5,1.5,0,0,0,1.3.75c3,.17,6.3-.52,9.34-.66q5.91-.28,11.81-.5,11.4-.41,22.81-.56a2,2,0,0,0,.55,0h.36a5.39,5.39,0,0,0,5-3.39,12.82,12.82,0,0,0,.58-3.12,15.94,15.94,0,0,0,1.58-3.5,1.62,1.62,0,0,0,.52-1c0-.2,0-.39,0-.58a1.37,1.37,0,0,0,.39-1v-1.3C188.4,127.33,188.82,124.81,188.56,122.25Z"/><path class="cls-2" d="M152.34,159.48s3,41,6,46h3s6-22,5-36c0,0,10,30,13,33h4s1-19-5-45Z"/><path class="cls-3" d="M151.34,127.48s2-4,19-2c0,0,18.52-4.87,36.32-6a.64.64,0,0,1,.68.65V123a1,1,0,0,1-.45.81c-2.52,1.52-15.33,8.83-30.55,9.72l3,25-30,2-2-24s-29.2-5.47-34.43-7.71a.93.93,0,0,1-.57-.86v-3.86a.55.55,0,0,1,.57-.55C117.15,123.65,144,124.72,151.34,127.48Z"/><path class="cls-4" d="M156.34,204.48s6-2,7,0c0,0,2,5,0,8h-7S155.34,207.48,156.34,204.48Z"/><path class="cls-4" d="M180,201.81c1.34-.47,3.21-.92,4.38-.33,0,0,4,3,4,6,0,0-1,3-4,3,0,0-5.73-.82-6.08-6.15A2.53,2.53,0,0,1,180,201.81Z"/><ellipse class="cls-5" cx="158.34" cy="106.98" rx="19" ry="18.5"/><path class="cls-5" d="M155.34,124.48v6s6,2,10,0l-1-6Z"/><path class="cls-1" d="M181.89,96.65a29,29,0,0,0-11.77-10.83c-9.91-4.94-22-3.14-30.6,3.57-3.69,2.87-7.06,6.66-8.24,11.21a8.58,8.58,0,0,0-.42,2.52,1.79,1.79,0,0,0,0,.23c-.14,2.6-.28,9.58,3.72,9.38a1.5,1.5,0,0,0,1.29-.74c3-6,15.27-3.19,20.77-3.35,4.77-.13,6.44-.49,9-3.38l.28-.12.25-.1a1.58,1.58,0,0,0,.51-.29l.93.13,1.33,1.25a14.15,14.15,0,0,0,1.47,1.53c2.14,1.4,5.4.86,7.73.83,1.78,0,4.31.45,5.84-.64C187.2,105.55,183.37,99.1,181.89,96.65Z"/><path class="cls-6" d="M146.34,113.48c0-1.1,3.13-2,7-2"/><path class="cls-6" d="M170.84,112c0-.55-3.58-1-8-1"/><ellipse class="cls-7" cx="150.59" cy="115.23" rx="2.75" ry="1.53"/><ellipse class="cls-7" cx="166.59" cy="114.23" rx="2.75" ry="1.53"/><path class="cls-8" d="M153.34,116.48c0,.55-2.24,1-5,1"/><path class="cls-8" d="M169.34,115.48c0,.55-1.79,1-4,1"/><path class="cls-5" d="M206.34,120.48s5-1.78,7-1.78a10.34,10.34,0,0,1,4,1h0c.71.71-1,1-1,1l-4,1s-1,0,0,1l1,1s1,1,0,1a5.75,5.75,0,0,1-2.47-.6,4,4,0,0,0-1.34-.51c-.5-.08-1.23-.22-2.19-.44Z"/><path class="cls-5" d="M112.34,124.31a42,42,0,0,0-6-.83,10.34,10.34,0,0,0-4,1h0c-.71.71,1,1,1,1l4,1s1,0,0,1l-1,1s-1,1,0,1a5.75,5.75,0,0,0,2.47-.6,4,4,0,0,1,1.34-.51c.5-.08,1.23-.22,2.19-.44Z"/><polygon class="cls-9" points="263.34 220.48 249.34 220.48 249.34 222.31 259.7 226.6 263.34 220.48"/><polygon class="cls-9" points="349.86 203.92 343.4 216.34 345.02 217.18 353.61 209.97 349.86 203.92"/><path class="cls-10" d="M371.34,200.48l-14.21,25.59a1.66,1.66,0,0,1-2.22.65l-12.17-6.49a1.08,1.08,0,0,1-.18-1.78l23.71-20.06a1.76,1.76,0,0,1,2.19-.07Z"/><path class="cls-10" d="M246.34,221.37v4a4.68,4.68,0,0,1-.51,2.14l-2.13,4.26a.61.61,0,0,0,.44.86l30.51,4.76a.59.59,0,0,0,.69-.58v-3.91a.58.58,0,0,0-.37-.55l-27.81-11.51A.6.6,0,0,0,246.34,221.37Z"/><path class="cls-11" d="M267.34,150.48s0,1,2,4l-21,64v2l18,1,25-39s39,33,51,35c0,0,11-9,12-13,0,0-37.6-37.6-49-47.18a1.63,1.63,0,0,1-.42-2l2.42-4.84Z"/><path class="cls-12" d="M339.17,25.71l-2.75,3.66a.44.44,0,0,0-.08.25v3.59a.4.4,0,0,0,.24.37,4.32,4.32,0,0,1,2.76,3.9,3.55,3.55,0,0,1-2,3,10.34,10.34,0,0,1-4,1h-1.69a.41.41,0,0,0-.39.3l-.6,2.09a15,15,0,0,1-5.07,7.61l-1.23,1s0,0,0,0l-.7.42a18.1,18.1,0,0,1-9.27,2.56h-1.73a.4.4,0,0,0-.38.26L311.33,58A22.06,22.06,0,0,0,310,63.12L309.41,67a.4.4,0,0,1-.54.32l-7.49-2.81a.15.15,0,0,1-.07,0l-4.6-2.76a.4.4,0,0,1-.13-.57l2.33-3.5a25.83,25.83,0,0,1,3.25-4h0a.41.41,0,0,0,.1-.42l-.92-2.76h0a4.29,4.29,0,0,1-3.92-2.57l-.08-.18a11.58,11.58,0,0,1-1-4.71V41a25.79,25.79,0,0,1,.5-5l.5-2.48a.07.07,0,0,1,0,0l1-3v0l2-5,0,0,2-4,0,0c4-7,9.17-9.25,15.76-9.66l.43,0a14.27,14.27,0,0,1,8.8,2.37l4,2.33a25.39,25.39,0,0,1,6.88,7.31l1,1.45A.41.41,0,0,1,339.17,25.71Z"/><path class="cls-1" d="M349.16,19.94c-1-8.64-12.81-15.81-20.7-16.6-1-.1-2.06.13-3,0-2.82-.38-3.63-1.62-5.94-2.52a14.78,14.78,0,0,0-4.9-.77c-3.24-.09-9.18-.42-10.8,3.28a1.15,1.15,0,0,1-.06.17,5.1,5.1,0,0,0-2,3.12,1.5,1.5,0,0,0,.19,1.1l-.7,1.12a14.7,14.7,0,0,0-2.14,1,17.76,17.76,0,0,0-3.29,2.89,10,10,0,0,0-1.28,2,1.27,1.27,0,0,0-.83.65c-.87,1.78-.7,3.66-1,5.5-.11.45-.22.88-.33,1.31a1.42,1.42,0,0,0,.11,1.11s0,0,0,0a1.42,1.42,0,0,0-.35,1c0,1.32-.16,2.89.38,4.13a20.53,20.53,0,0,0,2.8,3.88c1.5,2.32,3.95,3.41,7.71,1.64,4.07-1.91,4-6.66,5.22-10.39,1.06-3.18,2.5-8.15,6.69-6.4,1.74.73,2.47,1.66,4.47,1.76a1.21,1.21,0,0,0,.62-.15l.27.05,9.06.84a1.28,1.28,0,0,0,.74,1.4c2.13,1,3.32,3.13,5.15,4.6C340.47,30.22,350.14,28.61,349.16,19.94Z"/><path class="cls-1" d="M328.54,48.32,328,49l-.56.71s-11.13-2.21-15.13-1.21c0,0-1-1,1-2C313.34,46.48,323.75,44.17,328.54,48.32Z"/><path class="cls-2" d="M313.34,150.48s0-48,2-58c0,0,26,5,25,29h8s9.5-27.56-29.85-45.62a9.94,9.94,0,0,1-4.74-4.56l-1.41-2.82s-14-5-16-9a29.94,29.94,0,0,0-16,17s-33,16-60,38a10.39,10.39,0,0,1,5,7s45-17,47-22c0,0-10,35-7,51Z"/><ellipse class="cls-1" cx="323.71" cy="34.22" rx="2.78" ry="2.31" transform="translate(212.52 340.15) rotate(-76.06)"/><path class="cls-1" d="M329.57,30.27c-1.85-3-7.09-6.61-10.39-4-1.51,1.2.62,3.31,2.12,2.12.69-.56,2.44.63,3.08,1a7,7,0,0,1,2.6,2.34C328,33.43,330.58,31.92,329.57,30.27Z"/><path class="cls-13" d="M216.78,116.48s-4.2-.58-5.19,1.43c0,0-1,2,2.61,1.78a5.38,5.38,0,0,0-1.49,2.19,2.86,2.86,0,0,0,3.44,3.83l.09,0s9-3.06,9.36-5.86L222,115"/><path class="cls-5" d="M339.34,125.48s-3,3-2,5c0,0,1,2,3-1a5.44,5.44,0,0,0,.83,2.52,2.87,2.87,0,0,0,5.14-.43l0-.09s3-9,1-11h-6"/><path class="cls-14" d="M99.14,219l-6.8-2.5s-2-5,3-4l5,2Z"/><path class="cls-13" d="M44.34,87.48s2-6,11-4l-4-9,3-2s-18-13-25-31c0,0-13,1-12,15v2L16.23,60a3.64,3.64,0,0,0,.34,4.75h0a2.63,2.63,0,0,0,1.86.77h3.91A10.85,10.85,0,0,0,34.07,79.07l5.27-.59Z"/><path class="cls-15" d="M100.34,213.48l6,2-6,13H97.61a1,1,0,0,1-.94-1.23Z"/><path class="cls-15" d="M60.34,231.48l2-6-15.81-2.79a1,1,0,0,0-1.19,1v1.79Z"/><polygon class="cls-14" points="58.34 220.48 56.94 224.53 61.5 225.33 63.34 220.48 58.34 220.48"/><path class="cls-5" d="M1.45,125.84s-1.45,0-1.45-.76c0,0,0-.77.72-.77a7.56,7.56,0,0,0,2.73-.54,2.58,2.58,0,0,0,.72-.5c.65-.63,3.46-3.19,5.17-3.79a14.54,14.54,0,0,0,3,3.53c.21.16.18.32-.08.34A9.84,9.84,0,0,0,9,125.08a2.43,2.43,0,0,1-.73,1.53,4.87,4.87,0,0,1-1.44,1.53,1.06,1.06,0,0,1-1,.29.69.69,0,0,1-.42-.66v-.93a.12.12,0,0,0-.18-.11,8.69,8.69,0,0,1-3.9.83.77.77,0,0,1-.39-1.32A3,3,0,0,1,1.45,125.84Z"/><ellipse class="cls-16" cx="26.34" cy="56.98" rx="2" ry="2.5"/><path class="cls-6" d="M22.34,52.48h6"/><path class="cls-16" d="M23.23,73.35l.59,1s6.52-2.85,9.52-1.85c0,0,1-1,0-1C33.34,71.48,27.11,70.22,23.23,73.35Z"/><path class="cls-16" d="M77.34,151.48s27-21,25-26c0,0-6-12-6-18,0,0-.77-3.06,2.39-7.85a16.84,16.84,0,0,0,2.88-8c0-.06,0-.12,0-.17a14.73,14.73,0,0,0-6-12.79C92,76,86.86,72.61,82.34,71.48c0,0-1.23,0-2.24-7.21A23.91,23.91,0,0,1,81.54,52c.72-1.78,1.24-3.61.8-4.49,0,0-11-25-35-25,0,0-36.14-3.8-32.37,30.33a7.55,7.55,0,0,0,2.18,4.48l.19.19,2.12-6.71A10.26,10.26,0,0,1,21,46.57,3.89,3.89,0,0,1,27,46.14l.35.34,8,10,4.89,6.29a16.8,16.8,0,0,0,5.11,4.38l6,3.33-.55,2.78a8.1,8.1,0,0,0,.31,4.36Z"/><path class="cls-13" d="M96.34,122.48s3-4,4-4a21.06,21.06,0,0,1,8,6s2,2,1,3c-.7.7-1,1-5.83-.93a.42.42,0,0,0-.53.16c-.14.24-.16.74.36,1.77,0,0,0,1-2,0A17.13,17.13,0,0,0,99.79,126a3.6,3.6,0,0,0-.86-.79Z"/><path class="cls-17" d="M76.34,139.48s-17-7-24,9c0,0-.87-19.11-5-30.61a6.16,6.16,0,0,0-3-3.41l-4.11-2a3.56,3.56,0,0,0-3.54.19c-4.38,2.83-16.28,10.08-24.31,10.88L8.81,120a.57.57,0,0,1,0-.86c3.85-2.87,27.64-20.61,29.48-20.61l4.95-10.72a7.12,7.12,0,0,1,3.3-3.4l1.56-.78a10.38,10.38,0,0,1,4.64-1.1h0a4.59,4.59,0,0,1,3.9,2.17l3.65,5.83s39,24,41,28l-5,5-33-17S78.34,133.48,76.34,139.48Z"/><path class="cls-18" d="M65.34,220.48h-9s-2-24-1-29c0,0-12-20-4-42a2.92,2.92,0,0,1,.52-1.17c3.48-4.83,2.48-3.83,3.86-5.45,1.69-2,3.12-4.88,6.62-5.38,0,0,1.46-.73,7.49-.94a8.09,8.09,0,0,1,6.31,2.69l.33.38A17.75,17.75,0,0,1,80.66,150c.53,7.3,1.07,24.27-4.32,33.51,0,0,5,19,20,26l-3,8s-21-7-23-13Z"/></g></g></svg>