<svg width="119" height="52" viewBox="0 0 119 52" fill="none" xmlns="http://www.w3.org/2000/svg">
<g filter="url(#filter0_dd)">
<rect x="6" y="9" width="107" height="29" rx="5" fill="white"/>
</g>
<rect x="23.0728" y="15" width="2.69337" height="11.5815" transform="rotate(44.1905 23.0728 15)" fill="#CF212A"/>
<rect x="25.3901" y="17.2528" width="2.69337" height="11.5815" transform="rotate(44.1905 25.3901 17.2528)" fill="#1282B4"/>
<rect x="27.708" y="19.5057" width="2.69337" height="11.5815" transform="rotate(44.1905 27.708 19.5057)" fill="#EBEAEA"/>
<rect x="30.0254" y="21.7587" width="2.69337" height="11.5815" transform="rotate(44.1905 30.0254 21.7587)" fill="black"/>
<path d="M44.7498 21.006C43.7885 20.446 42.7245 20.124 41.5578 20.04V29H40.5218V20.04C39.3738 20.1147 38.3052 20.4367 37.3158 21.006L36.9378 20.194C38.1512 19.4753 39.5138 19.116 41.0258 19.116C42.5658 19.116 43.9332 19.4753 45.1278 20.194L44.7498 21.006ZM49.3986 29.084C48.6706 29.084 47.9706 28.9673 47.2986 28.734C46.6359 28.5007 46.1226 28.1927 45.7586 27.81L46.1646 27.012C46.5193 27.3667 46.9906 27.656 47.5786 27.88C48.1666 28.0947 48.7733 28.202 49.3986 28.202C50.2759 28.202 50.9339 28.0433 51.3726 27.726C51.8113 27.3993 52.0306 26.9793 52.0306 26.466C52.0306 26.074 51.9093 25.7613 51.6666 25.528C51.4333 25.2947 51.1439 25.1173 50.7986 24.996C50.4533 24.8653 49.9726 24.7253 49.3566 24.576C48.6193 24.3893 48.0313 24.212 47.5926 24.044C47.1539 23.8667 46.7759 23.6007 46.4586 23.246C46.1506 22.8913 45.9966 22.4107 45.9966 21.804C45.9966 21.3093 46.1273 20.8613 46.3886 20.46C46.6499 20.0493 47.0513 19.7227 47.5926 19.48C48.1339 19.2373 48.8059 19.116 49.6086 19.116C50.1686 19.116 50.7146 19.1953 51.2466 19.354C51.7879 19.5033 52.2546 19.7133 52.6466 19.984L52.2966 20.81C51.8859 20.5393 51.4473 20.3387 50.9806 20.208C50.5139 20.068 50.0566 19.998 49.6086 19.998C48.7499 19.998 48.1013 20.166 47.6626 20.502C47.2333 20.8287 47.0186 21.2533 47.0186 21.776C47.0186 22.168 47.1353 22.4853 47.3686 22.728C47.6113 22.9613 47.9099 23.1433 48.2646 23.274C48.6286 23.3953 49.1139 23.5307 49.7206 23.68C50.4393 23.8573 51.0179 24.0347 51.4566 24.212C51.9046 24.38 52.2826 24.6413 52.5906 24.996C52.8986 25.3413 53.0526 25.8127 53.0526 26.41C53.0526 26.9047 52.9173 27.3573 52.6466 27.768C52.3853 28.1693 51.9793 28.4913 51.4286 28.734C50.8779 28.9673 50.2013 29.084 49.3986 29.084ZM63.2479 19.2V29H62.2539V27.348C61.6099 28.5053 60.5132 29.084 58.9639 29.084C57.7972 29.084 56.8825 28.734 56.2199 28.034C55.5572 27.334 55.2259 26.3353 55.2259 25.038V19.2H56.2619V25.01C56.2619 26.046 56.5139 26.83 57.0179 27.362C57.5312 27.894 58.2452 28.16 59.1599 28.16C60.1212 28.16 60.8679 27.88 61.3999 27.32C61.9412 26.7507 62.2119 25.9013 62.2119 24.772V19.2H63.2479ZM69.4768 24.394L67.4748 26.424V29H66.4388V19.2H67.4748V25.122L73.2288 19.2H74.4188L70.1768 23.638L74.7128 29H73.4808L69.4768 24.394ZM84.1932 19.2V29H83.1992V27.348C82.5552 28.5053 81.4585 29.084 79.9092 29.084C78.7425 29.084 77.8278 28.734 77.1652 28.034C76.5025 27.334 76.1712 26.3353 76.1712 25.038V19.2H77.2072V25.01C77.2072 26.046 77.4592 26.83 77.9632 27.362C78.4765 27.894 79.1905 28.16 80.1052 28.16C81.0665 28.16 81.8132 27.88 82.3452 27.32C82.8865 26.7507 83.1572 25.9013 83.1572 24.772V19.2H84.1932ZM94.0761 29L91.8361 25.85C91.5841 25.878 91.3228 25.892 91.0521 25.892H88.4201V29H87.3841V19.2H91.0521C92.3028 19.2 93.2828 19.4987 93.9921 20.096C94.7014 20.6933 95.0561 21.5147 95.0561 22.56C95.0561 23.3253 94.8601 23.974 94.4681 24.506C94.0854 25.0287 93.5348 25.4067 92.8161 25.64L95.2101 29H94.0761ZM91.0241 25.01C91.9948 25.01 92.7368 24.7953 93.2501 24.366C93.7634 23.9367 94.0201 23.3347 94.0201 22.56C94.0201 21.7667 93.7634 21.16 93.2501 20.74C92.7368 20.3107 91.9948 20.096 91.0241 20.096H88.4201V25.01H91.0241ZM105.439 19.2V29H104.445V27.348C103.801 28.5053 102.705 29.084 101.155 29.084C99.9886 29.084 99.0739 28.734 98.4113 28.034C97.7486 27.334 97.4173 26.3353 97.4173 25.038V19.2H98.4533V25.01C98.4533 26.046 98.7053 26.83 99.2093 27.362C99.7226 27.894 100.437 28.16 101.351 28.16C102.313 28.16 103.059 27.88 103.591 27.32C104.133 26.7507 104.403 25.9013 104.403 24.772V19.2H105.439Z" fill="#FF2222"/>
<path d="M13.5285 48.36V49H8.61852V48.49L11.5285 45.64C11.8952 45.28 12.1418 44.97 12.2685 44.71C12.4018 44.4433 12.4685 44.1767 12.4685 43.91C12.4685 43.4967 12.3252 43.1767 12.0385 42.95C11.7585 42.7167 11.3552 42.6 10.8285 42.6C10.0085 42.6 9.37185 42.86 8.91852 43.38L8.40852 42.94C8.68185 42.62 9.02852 42.3733 9.44852 42.2C9.87518 42.0267 10.3552 41.94 10.8885 41.94C11.6018 41.94 12.1652 42.11 12.5785 42.45C12.9985 42.7833 13.2085 43.2433 13.2085 43.83C13.2085 44.19 13.1285 44.5367 12.9685 44.87C12.8085 45.2033 12.5052 45.5867 12.0585 46.02L9.67852 48.36H13.5285ZM17.183 49.06C16.643 49.06 16.1597 48.9167 15.733 48.63C15.313 48.3433 14.983 47.9333 14.743 47.4C14.5097 46.86 14.393 46.2267 14.393 45.5C14.393 44.7733 14.5097 44.1433 14.743 43.61C14.983 43.07 15.313 42.6567 15.733 42.37C16.1597 42.0833 16.643 41.94 17.183 41.94C17.723 41.94 18.203 42.0833 18.623 42.37C19.0497 42.6567 19.383 43.07 19.623 43.61C19.863 44.1433 19.983 44.7733 19.983 45.5C19.983 46.2267 19.863 46.86 19.623 47.4C19.383 47.9333 19.0497 48.3433 18.623 48.63C18.203 48.9167 17.723 49.06 17.183 49.06ZM17.183 48.4C17.5897 48.4 17.9464 48.2867 18.253 48.06C18.5664 47.8333 18.8097 47.5033 18.983 47.07C19.1564 46.6367 19.243 46.1133 19.243 45.5C19.243 44.8867 19.1564 44.3633 18.983 43.93C18.8097 43.4967 18.5664 43.1667 18.253 42.94C17.9464 42.7133 17.5897 42.6 17.183 42.6C16.7764 42.6 16.4164 42.7133 16.103 42.94C15.7964 43.1667 15.5564 43.4967 15.383 43.93C15.2097 44.3633 15.123 44.8867 15.123 45.5C15.123 46.1133 15.2097 46.6367 15.383 47.07C15.5564 47.5033 15.7964 47.8333 16.103 48.06C16.4164 48.2867 16.7764 48.4 17.183 48.4ZM25.7746 48.36V49H20.8646V48.49L23.7746 45.64C24.1413 45.28 24.3879 44.97 24.5146 44.71C24.6479 44.4433 24.7146 44.1767 24.7146 43.91C24.7146 43.4967 24.5713 43.1767 24.2846 42.95C24.0046 42.7167 23.6013 42.6 23.0746 42.6C22.2546 42.6 21.6179 42.86 21.1646 43.38L20.6546 42.94C20.9279 42.62 21.2746 42.3733 21.6946 42.2C22.1213 42.0267 22.6013 41.94 23.1346 41.94C23.8479 41.94 24.4113 42.11 24.8246 42.45C25.2446 42.7833 25.4546 43.2433 25.4546 43.83C25.4546 44.19 25.3746 44.5367 25.2146 44.87C25.0546 45.2033 24.7513 45.5867 24.3046 46.02L21.9246 48.36H25.7746ZM28.6182 42V49H27.8982V42.64H26.2482V42H28.6182Z" fill="#002E64"/>
<defs>
<filter id="filter0_dd" x="0" y="0" width="119" height="47" filterUnits="userSpaceOnUse" color-interpolation-filters="sRGB">
<feFlood flood-opacity="0" result="BackgroundImageFix"/>
<feColorMatrix in="SourceAlpha" type="matrix" values="0 0 0 0 0 0 0 0 0 0 0 0 0 0 0 0 0 0 127 0"/>
<feOffset dy="-3"/>
<feGaussianBlur stdDeviation="3"/>
<feColorMatrix type="matrix" values="0 0 0 0 0 0 0 0 0 0 0 0 0 0 0 0 0 0 0.06 0"/>
<feBlend mode="normal" in2="BackgroundImageFix" result="effect1_dropShadow"/>
<feColorMatrix in="SourceAlpha" type="matrix" values="0 0 0 0 0 0 0 0 0 0 0 0 0 0 0 0 0 0 127 0"/>
<feOffset dy="3"/>
<feGaussianBlur stdDeviation="3"/>
<feColorMatrix type="matrix" values="0 0 0 0 0 0 0 0 0 0 0 0 0 0 0 0 0 0 0.06 0"/>
<feBlend mode="normal" in2="effect1_dropShadow" result="effect2_dropShadow"/>
<feBlend mode="normal" in="SourceGraphic" in2="effect2_dropShadow" result="shape"/>
</filter>
</defs>
</svg>
