<svg xmlns="http://www.w3.org/2000/svg" viewBox="0 0 430.07 430.07"><defs><style>.cls-1{fill:#9bd8f9;}.cls-2{fill:#079cff;}.cls-3{fill:#5cbeff;}</style></defs><title>establishing-paternity</title><g id="Слой_2" data-name="Слой 2"><g id="встановлення_батьківства" data-name="встановлення батьківства"><g id="_13_Dna_genetics_genomic_strand_virus" data-name="13, Dna, genetics, genomic, strand, virus"><g id="_Группа_" data-name="&lt;Группа&gt;"><g id="_Группа_2" data-name="&lt;Группа&gt;"><path id="_Контур_" data-name="&lt;Контур&gt;" class="cls-1" d="M54.34,196.29a5.4,5.4,0,0,1-3.82-9.22L187.07,50.52a5.4,5.4,0,0,1,7.64,7.63L58.15,194.71A5.38,5.38,0,0,1,54.34,196.29Z"/><path id="_Контур_2" data-name="&lt;Контур&gt;" class="cls-1" d="M92,216.67a5.4,5.4,0,0,1-3.82-9.21L207.46,88.21a5.4,5.4,0,0,1,7.63,7.63L95.84,215.09A5.34,5.34,0,0,1,92,216.67Z"/><path id="_Контур_3" data-name="&lt;Контур&gt;" class="cls-1" d="M141.23,225.56a5.4,5.4,0,0,1-3.82-9.22l78.93-78.93A5.4,5.4,0,0,1,224,145L145,224A5.38,5.38,0,0,1,141.23,225.56Z"/><path id="_Контур_4" data-name="&lt;Контур&gt;" class="cls-1" d="M215.66,335.68a5.2,5.2,0,0,1-3.67-8.87L326.81,212a5.2,5.2,0,0,1,7.35,7.35L219.34,334.16A5.22,5.22,0,0,1,215.66,335.68Z"/><path id="_Контур_5" data-name="&lt;Контур&gt;" class="cls-1" d="M207.11,288.31a5.2,5.2,0,0,1-3.68-8.87l76-76a5.2,5.2,0,0,1,7.36,7.35l-76,76A5.18,5.18,0,0,1,207.11,288.31Z"/><path id="_Контур_6" data-name="&lt;Контур&gt;" class="cls-1" d="M235.29,372a5.2,5.2,0,0,1-3.67-8.87L363.1,231.63a5.2,5.2,0,0,1,7.35,7.35L239,370.45A5.22,5.22,0,0,1,235.29,372Z"/><path id="_Контур_7" data-name="&lt;Контур&gt;" class="cls-2" d="M425.2,251.78a16.62,16.62,0,1,1-23.51,23.51L377.36,251a136.42,136.42,0,0,0-14.89-12.88,134,134,0,0,0-138-13.59q1.1-2.37,2.33-4.7a168.2,168.2,0,0,0,13.95-36.39,168.05,168.05,0,0,1,160.08,44.05Z"/><path id="_Контур_8" data-name="&lt;Контур&gt;" class="cls-2" d="M199.68,199.71c-.73,1.58-1.52,3.13-2.33,4.68a168,168,0,0,0-13.95,36.4,168.12,168.12,0,0,1-160.08-44L4.87,178.29a16.62,16.62,0,0,1,23.51-23.51l18.45,18.44a135.58,135.58,0,0,0,14.89,12.89,134.4,134.4,0,0,0,34.34,18.58,133.46,133.46,0,0,0,44.81,8.08A134.4,134.4,0,0,0,199.68,199.71Z"/><path id="_Контур_9" data-name="&lt;Контур&gt;" class="cls-3" d="M224.51,224.5a133.87,133.87,0,0,0,13.57,138A135.68,135.68,0,0,0,251,377.37l24.32,24.32a16.62,16.62,0,1,1-23.51,23.51l-24.32-24.32a167.66,167.66,0,0,1-30.11-196.49c.81-1.55,1.6-3.1,2.33-4.68a133.89,133.89,0,0,0-13.57-138,135.58,135.58,0,0,0-12.89-14.89L154.78,28.38A16.62,16.62,0,0,1,178.29,4.87l18.44,18.45a168.11,168.11,0,0,1,44.06,160.09,168.2,168.2,0,0,1-13.95,36.39Q225.61,222.13,224.51,224.5Z"/></g></g></g></g></g></svg>