<svg width="161" height="159" viewBox="0 0 161 159" fill="none" xmlns="http://www.w3.org/2000/svg">
<g filter="url(#filter0_d)">
<path d="M91.4666 70.2017H127.49C129.484 70.2017 131.079 72.056 131.079 74.3078V115.502C131.079 117.753 129.484 119.608 127.49 119.608H91.4666C89.4726 119.608 87.8775 117.753 87.8775 115.502V74.3078C87.8775 72.056 89.4726 70.2017 91.4666 70.2017Z" fill="#F28E2C"/>
<path d="M97.5812 86.229H120.711V87.686H97.5812V86.229Z" fill="#E2E1DE"/>
<path d="M101.037 88.7456H118.185V90.2026H101.037V88.7456Z" fill="#E2E1DE"/>
<path d="M100.506 80.4009H136.529C138.523 80.4009 140.118 82.2553 140.118 84.507V125.701C140.118 127.953 138.523 129.807 136.529 129.807H100.506C98.5118 129.807 96.9166 127.953 96.9166 125.701V84.507C96.9166 82.2553 98.5118 80.4009 100.506 80.4009Z" fill="#161784"/>
<path d="M106.62 96.4282H129.75V97.8852H106.62V96.4282Z" fill="#E2E1DE"/>
<path d="M109.944 98.9448H127.091V100.402H109.944V98.9448Z" fill="#E2E1DE"/>
<path d="M108.614 91.1299H144.638C146.632 91.1299 148.227 92.9843 148.227 95.236V136.43C148.227 138.682 146.632 140.536 144.638 140.536H108.614C106.62 140.536 105.025 138.682 105.025 136.43V95.236C105.025 92.9843 106.62 91.1299 108.614 91.1299Z" fill="#06725B"/>
<path d="M114.729 107.157H137.858V108.614H114.729V107.157Z" fill="#E2E1DE"/>
<path d="M118.185 109.674H135.333V111.131H118.185V109.674Z" fill="#E2E1DE"/>
<path d="M117.388 101.594H153.411C155.405 101.594 157 103.448 157 105.7V146.894C157 149.146 155.405 151 153.411 151H117.388C115.394 151 113.798 149.146 113.798 146.894V105.7C113.798 103.448 115.394 101.594 117.388 101.594Z" fill="#E21A34"/>
<path d="M123.502 117.621H146.632V119.078H123.502V117.621Z" fill="#E2E1DE"/>
<path d="M126.958 120.138H144.106V121.595H126.958V120.138Z" fill="#E2E1DE"/>
<path d="M36.0356 88.6132C38.4283 87.8185 40.4223 86.6264 42.1503 85.0369C45.4735 81.858 47.6004 77.4869 47.6004 72.586V58.2808H75.914V72.586C75.914 77.0895 77.6421 81.1957 80.5665 84.2422C82.4275 86.229 84.6872 87.686 87.3458 88.6132H36.0356Z" fill="#FEDFC5"/>
<path d="M75.914 65.5659V74.5729L69.4005 78.5466C64.6151 81.4607 58.7663 81.4607 53.9809 78.5466L47.4674 74.5729V65.5659H75.914Z" fill="#FECBAA"/>
<path d="M89.4726 22.7824V52.585C89.4726 57.0885 86.8141 61.1946 82.2945 63.5788L69.4005 70.3341C64.6151 72.8508 58.7663 72.8508 53.9809 70.3341L41.2198 63.5788C36.8332 61.1946 34.0417 57.0885 34.0417 52.585V22.7824C34.0417 14.5701 41.7515 7.94727 51.1894 7.94727H72.3249C81.7628 7.94727 89.4726 14.5701 89.4726 22.7824Z" fill="#FEDFC5"/>
<path d="M75.1164 0H66.0774C74.053 0 80.4336 6.62281 80.4336 14.8351V44.6377C80.4336 49.1412 78.1738 53.2474 74.4518 55.6316L63.6847 62.3868C63.02 62.7842 62.3554 63.0491 61.6907 63.4465C65.2798 64.9035 69.2676 64.5061 72.7237 62.3868L83.4909 55.6316C87.2129 53.2474 89.4727 49.1412 89.4727 44.6377V14.8351C89.4727 6.62281 83.0921 0 75.1164 0Z" fill="#FECBAA"/>
<path d="M89.4726 14.8351V28.6105L54.7784 18.9412C53.4492 18.5439 52.1199 18.6763 50.9235 19.2061L34.1746 26.7561V14.7026C34.0417 6.62281 41.7515 0 51.1894 0H72.3249C81.7628 0 89.4726 6.62281 89.4726 14.8351Z" fill="#C97F4C"/>
<path d="M75.1164 0H66.0773C74.053 0 80.4335 6.62281 80.4335 14.8351V25.6965L89.4726 28.743V14.8351C89.4726 6.62281 83.0921 0 75.1164 0Z" fill="#AA6344"/>
<path d="M4 151V122.257C4 108.614 12.7732 96.5606 25.6672 92.1895L36.0356 88.7457C38.4283 87.9509 40.4222 86.7588 42.1503 85.1694C47.7333 87.1562 54.2467 88.4808 61.6907 88.3483C69.0017 88.2158 75.3823 86.6264 80.6994 84.5071C82.5604 86.4939 84.8202 87.9509 87.4787 88.8781L97.8471 92.322C110.874 96.693 119.514 108.879 119.514 122.522V151H4Z" fill="#E9E9E9"/>
<path d="M61.159 88.3481L48.9297 131.131C48.6638 132.191 48.9297 133.383 49.7272 134.31L58.7663 144.377C60.0956 145.834 62.3554 145.834 63.6846 144.51L73.7872 134.443C74.7177 133.516 74.9835 132.324 74.5847 131.131L61.159 88.3481Z" fill="#2324A9"/>
</g>
<defs>
<filter id="filter0_d" x="0" y="0" width="161" height="159" filterUnits="userSpaceOnUse" color-interpolation-filters="sRGB">
<feFlood flood-opacity="0" result="BackgroundImageFix"/>
<feColorMatrix in="SourceAlpha" type="matrix" values="0 0 0 0 0 0 0 0 0 0 0 0 0 0 0 0 0 0 127 0"/>
<feOffset dy="4"/>
<feGaussianBlur stdDeviation="2"/>
<feColorMatrix type="matrix" values="0 0 0 0 0.992157 0 0 0 0 0.713726 0 0 0 0 0.34902 0 0 0 0.15 0"/>
<feBlend mode="normal" in2="BackgroundImageFix" result="effect1_dropShadow"/>
<feBlend mode="normal" in="SourceGraphic" in2="effect1_dropShadow" result="shape"/>
</filter>
</defs>
</svg>
