<svg width="36" height="20" viewBox="0 0 36 20" fill="none" xmlns="http://www.w3.org/2000/svg">
<path d="M28.2531 7.30004L28.7923 6.12614L30.8635 6.93593L30.5054 7.65818C31.8206 8.19737 32.696 8.58934 33.1158 8.83008C33.7744 9.2499 34.3454 9.85277 34.8269 10.6307C35.2467 11.4127 35.4557 12.314 35.4557 13.3327C35.4557 14.8965 34.8548 16.2754 33.655 17.4771C32.4533 18.7386 30.3522 19.5802 27.3498 20C27.1091 19.2817 26.8365 18.649 26.538 18.1098C28.458 17.8094 29.811 17.4473 30.591 17.0255C31.4943 16.6076 32.1528 16.0684 32.5766 15.4079C32.9945 14.805 33.2014 14.0887 33.2014 13.2451C33.2014 12.2861 32.9308 11.4445 32.3916 10.7203C31.733 10.0617 30.7999 9.54835 29.6021 9.18822C28.9395 10.4497 28.3108 11.4107 27.7099 12.0712C27.2284 12.7318 26.3291 13.8739 25.008 15.4954C25.1871 16.2774 25.3681 16.9061 25.5492 17.3876L23.476 18.1078L23.2949 17.117C22.4533 17.8353 21.7012 18.3446 21.0406 18.649C20.3224 18.9475 19.7195 19.0987 19.24 19.0987C18.6371 19.0987 18.0979 18.8281 17.6204 18.2889C17.1369 17.69 16.9001 16.9359 16.9001 16.0366C16.9001 14.8349 17.1707 13.7545 17.7099 12.7935C18.1894 11.8922 18.9097 11.0227 19.8707 10.1811C20.4119 9.70155 21.3132 9.13052 22.5746 8.46996C22.5746 7.93076 22.6343 6.88022 22.7537 5.31635C21.731 5.37604 20.9212 5.40589 20.3224 5.40589C19.5404 5.40589 18.9077 5.37604 18.4302 5.31635L18.3387 3.24513C19.7812 3.42618 21.3112 3.51373 22.9348 3.51373C22.9348 3.21727 23.084 2.04536 23.3864 0L25.7282 0.364107C25.4278 1.4425 25.2189 2.43534 25.0995 3.33466C25.581 3.27696 26.1799 3.18544 26.9021 3.06407C27.6224 2.9427 28.0422 2.88301 28.1636 2.88301C28.2849 2.88301 29.4529 2.58456 31.6773 1.9817L31.7688 4.05293C29.8448 4.53641 27.501 4.92638 24.7414 5.22881C24.618 6.54795 24.5583 7.38957 24.5583 7.74771C25.8775 7.44727 27.113 7.30004 28.2531 7.30004ZM22.9368 15.0458C22.8154 14.0887 22.6662 12.5547 22.4851 10.4497C21.345 11.2933 20.4139 12.1608 19.6936 13.0621C19.0908 13.9037 18.7943 14.803 18.7943 15.764C18.7943 16.2435 18.8818 16.6355 19.0649 16.9339C19.244 17.117 19.4529 17.2065 19.6936 17.2065C20.4159 17.2085 21.4982 16.4883 22.9368 15.0458ZM24.4708 9.54835C24.4708 10.5094 24.5285 11.7131 24.6498 13.1516C25.8516 11.351 26.7529 9.97015 27.3538 9.00915C26.2117 9.12853 25.2487 9.30959 24.4708 9.54835Z" fill="#EBAB08"/>
<path fill-rule="evenodd" clip-rule="evenodd" d="M12.2642 19.5779H15.9471L9.81098 1.77246H6.13012L0 19.5779H3.68086L4.7891 15.6364H11.1739L12.2642 19.5779ZM5.32232 12.8588L7.97055 5.33394L10.6446 12.8588H5.32232Z" fill="#EBAB08"/>
</svg>
