<svg width="16" height="17" viewBox="0 0 16 17" fill="none" xmlns="http://www.w3.org/2000/svg">
<path d="M9.62334 11.6184C9.62334 11.6184 10.1889 11.6661 10.4934 11.291L11.0872 10.544C11.3736 10.1736 12.0647 9.93737 12.7415 10.3144C13.2486 10.6037 13.741 10.9181 14.2168 11.2566C14.6659 11.5869 15.5856 12.3544 15.5885 12.3544C16.0267 12.7243 16.1278 13.2674 15.8295 13.8402C15.8295 13.8435 15.8271 13.8492 15.8271 13.8521C15.4986 14.4217 15.0815 14.9353 14.5914 15.3737C14.5857 15.3766 14.5857 15.3794 14.5805 15.3823C14.1547 15.738 13.7365 15.9402 13.3257 15.9889C13.2652 15.9995 13.2037 16.0033 13.1424 16.0004C12.9612 16.0021 12.781 15.9744 12.6088 15.9183L12.5954 15.8987C11.9625 15.7202 10.9058 15.2735 9.14605 14.3027C8.12771 13.7475 7.15821 13.1071 6.24795 12.3883C5.79171 12.0282 5.3565 11.6422 4.94448 11.2323L4.90057 11.1883L4.85666 11.1444L4.81274 11.1005C4.79795 11.0862 4.78363 11.0714 4.76883 11.0566C4.35889 10.6446 3.97292 10.2094 3.61284 9.75314C2.89414 8.84298 2.25372 7.87365 1.69843 6.85552C0.727627 5.09527 0.280884 4.03951 0.102378 3.40567L0.0828089 3.39231C0.0268546 3.22004 -0.0007103 3.03981 0.00119289 2.8587C-0.0021482 2.79738 0.00153476 2.73589 0.0121703 2.67542C0.0633994 2.26527 0.265929 1.84668 0.619759 1.41967C0.622623 1.41442 0.625487 1.41442 0.628351 1.40869C1.06665 0.918665 1.5803 0.501685 2.14995 0.173468C2.15281 0.173468 2.15854 0.170604 2.16188 0.170604C2.73463 -0.127702 3.27778 -0.0265165 3.6472 0.409248C3.65007 0.412112 4.41612 1.33185 4.74497 1.78098C5.08348 2.25719 5.39793 2.75005 5.68714 3.25771C6.0642 3.93403 5.82794 4.62657 5.45756 4.91199L4.7106 5.50574C4.33355 5.81025 4.38318 6.37584 4.38318 6.37584C4.38318 6.37584 5.48954 10.5631 9.62334 11.6184Z" fill="#EBAB08"/>
</svg>
