<svg width="32" height="32" viewBox="0 0 32 32" fill="none" xmlns="http://www.w3.org/2000/svg">
<path d="M4.42391 17.2223L9.95399 19.5929L12.0945 27.4992C12.2314 28.0055 12.7706 28.1927 13.1284 27.8567L16.211 24.9704C16.5341 24.6681 16.9943 24.653 17.332 24.9345L22.8918 29.5707C23.2746 29.8903 23.817 29.6493 23.913 29.1181L27.9858 6.6166C28.0906 6.03627 27.5942 5.55213 27.113 5.76585L4.41743 15.8217C3.85735 16.0698 3.86223 16.9805 4.42391 17.2223ZM11.7495 18.3309L22.5574 10.6856C22.7516 10.5486 22.9514 10.8502 22.7846 11.0279L13.865 20.5508C13.5515 20.8859 13.3493 21.3345 13.292 21.8214L12.9882 24.4076C12.9479 24.7529 12.5256 24.7871 12.4426 24.453L11.2741 19.737C11.1402 19.1991 11.3353 18.6246 11.7495 18.3309Z" fill="#0863EB"/>
</svg>
