<svg width="153" height="156" viewBox="0 0 153 156" fill="none" xmlns="http://www.w3.org/2000/svg">
<g filter="url(#filter0_d)">
<path d="M23.0867 13.7666H128.765C134.572 13.7666 139.31 18.365 139.31 24.0017V126.576C139.31 132.212 134.572 136.811 128.765 136.811H23.0867C17.2794 136.811 12.5418 132.212 12.5418 126.576V24.0017C12.5418 18.365 17.2794 13.7666 23.0867 13.7666Z" fill="#E9E9E9"/>
<path d="M107.675 24.0015H131.439V29.1191H107.675V24.0015Z" fill="#C4C4C4"/>
<path d="M112.947 36.8323H131.439V41.9499H112.947V36.8323Z" fill="#C4C4C4"/>
<path d="M112.947 49.6636H131.439V54.7812H112.947V49.6636Z" fill="#C4C4C4"/>
<path d="M112.947 62.4944H131.439V67.6119H112.947V62.4944Z" fill="#C4C4C4"/>
<path d="M112.947 75.3257H131.439V80.4432H112.947V75.3257Z" fill="#C4C4C4"/>
<path d="M115.622 88.1567H131.516V93.2743H115.622V88.1567Z" fill="#C4C4C4"/>
<path d="M20.4888 111.223H91.8578V116.34H20.4888V111.223Z" fill="#C4C4C4"/>
<path d="M20.4888 121.531H102.403V126.649H20.4888V121.531Z" fill="#C4C4C4"/>
<path d="M90.7739 80.6824L111.94 103.749H115.149C116.448 103.749 117.824 104.268 118.817 105.306L146.326 132.006C148.159 133.786 149 136.086 149 138.385C149 143.502 144.797 147.359 139.754 147.359C137.385 147.359 135.017 146.321 133.183 144.763L105.674 118.063C104.605 117.025 104.07 115.764 104.07 114.503V111.388L82.9035 88.3216" fill="#3F3F3F"/>
<path d="M148.923 138.385C148.923 136.085 147.854 133.786 146.249 132.006L118.741 105.306C117.671 104.267 116.372 103.748 115.073 103.748H111.863L103.917 111.462V114.577C103.917 115.838 104.451 117.173 105.521 118.137L133.03 144.837C136.697 148.397 142.581 148.397 146.249 144.837C147.854 142.983 148.923 140.684 148.923 138.385Z" fill="#333333"/>
<path d="M102.226 49.1129C102.226 76.2244 80.2085 98.2258 53.0774 98.2258C26.0174 98.1548 4 76.2244 4 49.1129C4 22.0014 26.0174 0 53.1484 0C80.2795 0 102.226 22.0014 102.226 49.1129Z" fill="#333333"/>
<path d="M97 49C97 73.3472 77.2855 93 53.0397 93C28.794 93 9 73.2676 9 49C9 24.7324 28.7145 5 52.9603 5C77.206 5 97 24.6528 97 49Z" fill="#2324A9"/>
<path d="M23.6451 41.4485C38.4691 57.0979 63.3031 58.1363 79.4261 43.7477C80.1902 43.0061 81.0307 42.1902 81.7948 41.4485C66.9709 25.7992 42.1369 24.7608 26.0139 39.1494C25.2498 39.891 24.4857 40.6327 23.6451 41.4485Z" fill="#E9E9E9"/>
<path d="M33.9355 63.1912H70.919V68.3087H33.9355V63.1912Z" fill="#E9EDF1"/>
<path d="M61.0551 41.3909C61.0551 45.6185 57.5401 49.1044 53.1082 49.1044C48.6763 49.1044 45.1613 45.6927 45.1613 41.3909C45.1613 37.0892 48.6763 33.6775 53.1082 33.6775C57.5401 33.6775 61.0551 37.0892 61.0551 41.3909Z" fill="#2324A9"/>
</g>
<defs>
<filter id="filter0_d" x="0" y="0" width="153" height="155.507" filterUnits="userSpaceOnUse" color-interpolation-filters="sRGB">
<feFlood flood-opacity="0" result="BackgroundImageFix"/>
<feColorMatrix in="SourceAlpha" type="matrix" values="0 0 0 0 0 0 0 0 0 0 0 0 0 0 0 0 0 0 127 0"/>
<feOffset dy="4"/>
<feGaussianBlur stdDeviation="2"/>
<feColorMatrix type="matrix" values="0 0 0 0 0.992157 0 0 0 0 0.713726 0 0 0 0 0.34902 0 0 0 0.15 0"/>
<feBlend mode="normal" in2="BackgroundImageFix" result="effect1_dropShadow"/>
<feBlend mode="normal" in="SourceGraphic" in2="effect1_dropShadow" result="shape"/>
</filter>
</defs>
</svg>
