<svg width="119" height="47" viewBox="0 0 119 47" fill="none" xmlns="http://www.w3.org/2000/svg">
<g filter="url(#filter0_dd)">
<rect x="6" y="9" width="107" height="29" rx="5" fill="white"/>
</g>
<rect x="23.0728" y="15" width="2.69337" height="11.5815" transform="rotate(44.1905 23.0728 15)" fill="#CF212A"/>
<rect x="25.3901" y="17.2528" width="2.69337" height="11.5815" transform="rotate(44.1905 25.3901 17.2528)" fill="#1282B4"/>
<rect x="27.708" y="19.5057" width="2.69337" height="11.5815" transform="rotate(44.1905 27.708 19.5057)" fill="#EBEAEA"/>
<rect x="30.0254" y="21.7587" width="2.69337" height="11.5815" transform="rotate(44.1905 30.0254 21.7587)" fill="black"/>
<path d="M44.7498 21.006C43.7885 20.446 42.7245 20.124 41.5578 20.04V29H40.5218V20.04C39.3738 20.1147 38.3052 20.4367 37.3158 21.006L36.9378 20.194C38.1512 19.4753 39.5138 19.116 41.0258 19.116C42.5658 19.116 43.9332 19.4753 45.1278 20.194L44.7498 21.006ZM49.3986 29.084C48.6706 29.084 47.9706 28.9673 47.2986 28.734C46.6359 28.5007 46.1226 28.1927 45.7586 27.81L46.1646 27.012C46.5193 27.3667 46.9906 27.656 47.5786 27.88C48.1666 28.0947 48.7733 28.202 49.3986 28.202C50.2759 28.202 50.9339 28.0433 51.3726 27.726C51.8113 27.3993 52.0306 26.9793 52.0306 26.466C52.0306 26.074 51.9093 25.7613 51.6666 25.528C51.4333 25.2947 51.1439 25.1173 50.7986 24.996C50.4533 24.8653 49.9726 24.7253 49.3566 24.576C48.6193 24.3893 48.0313 24.212 47.5926 24.044C47.1539 23.8667 46.7759 23.6007 46.4586 23.246C46.1506 22.8913 45.9966 22.4107 45.9966 21.804C45.9966 21.3093 46.1273 20.8613 46.3886 20.46C46.6499 20.0493 47.0513 19.7227 47.5926 19.48C48.1339 19.2373 48.8059 19.116 49.6086 19.116C50.1686 19.116 50.7146 19.1953 51.2466 19.354C51.7879 19.5033 52.2546 19.7133 52.6466 19.984L52.2966 20.81C51.8859 20.5393 51.4473 20.3387 50.9806 20.208C50.5139 20.068 50.0566 19.998 49.6086 19.998C48.7499 19.998 48.1013 20.166 47.6626 20.502C47.2333 20.8287 47.0186 21.2533 47.0186 21.776C47.0186 22.168 47.1353 22.4853 47.3686 22.728C47.6113 22.9613 47.9099 23.1433 48.2646 23.274C48.6286 23.3953 49.1139 23.5307 49.7206 23.68C50.4393 23.8573 51.0179 24.0347 51.4566 24.212C51.9046 24.38 52.2826 24.6413 52.5906 24.996C52.8986 25.3413 53.0526 25.8127 53.0526 26.41C53.0526 26.9047 52.9173 27.3573 52.6466 27.768C52.3853 28.1693 51.9793 28.4913 51.4286 28.734C50.8779 28.9673 50.2013 29.084 49.3986 29.084ZM63.2479 19.2V29H62.2539V27.348C61.6099 28.5053 60.5132 29.084 58.9639 29.084C57.7972 29.084 56.8825 28.734 56.2199 28.034C55.5572 27.334 55.2259 26.3353 55.2259 25.038V19.2H56.2619V25.01C56.2619 26.046 56.5139 26.83 57.0179 27.362C57.5312 27.894 58.2452 28.16 59.1599 28.16C60.1212 28.16 60.8679 27.88 61.3999 27.32C61.9412 26.7507 62.2119 25.9013 62.2119 24.772V19.2H63.2479ZM69.4768 24.394L67.4748 26.424V29H66.4388V19.2H67.4748V25.122L73.2288 19.2H74.4188L70.1768 23.638L74.7128 29H73.4808L69.4768 24.394ZM84.1932 19.2V29H83.1992V27.348C82.5552 28.5053 81.4585 29.084 79.9092 29.084C78.7425 29.084 77.8278 28.734 77.1652 28.034C76.5025 27.334 76.1712 26.3353 76.1712 25.038V19.2H77.2072V25.01C77.2072 26.046 77.4592 26.83 77.9632 27.362C78.4765 27.894 79.1905 28.16 80.1052 28.16C81.0665 28.16 81.8132 27.88 82.3452 27.32C82.8865 26.7507 83.1572 25.9013 83.1572 24.772V19.2H84.1932ZM94.0761 29L91.8361 25.85C91.5841 25.878 91.3228 25.892 91.0521 25.892H88.4201V29H87.3841V19.2H91.0521C92.3028 19.2 93.2828 19.4987 93.9921 20.096C94.7014 20.6933 95.0561 21.5147 95.0561 22.56C95.0561 23.3253 94.8601 23.974 94.4681 24.506C94.0854 25.0287 93.5348 25.4067 92.8161 25.64L95.2101 29H94.0761ZM91.0241 25.01C91.9948 25.01 92.7368 24.7953 93.2501 24.366C93.7634 23.9367 94.0201 23.3347 94.0201 22.56C94.0201 21.7667 93.7634 21.16 93.2501 20.74C92.7368 20.3107 91.9948 20.096 91.0241 20.096H88.4201V25.01H91.0241ZM105.439 19.2V29H104.445V27.348C103.801 28.5053 102.705 29.084 101.155 29.084C99.9886 29.084 99.0739 28.734 98.4113 28.034C97.7486 27.334 97.4173 26.3353 97.4173 25.038V19.2H98.4533V25.01C98.4533 26.046 98.7053 26.83 99.2093 27.362C99.7226 27.894 100.437 28.16 101.351 28.16C102.313 28.16 103.059 27.88 103.591 27.32C104.133 26.7507 104.403 25.9013 104.403 24.772V19.2H105.439Z" fill="#FF2222"/>
<defs>
<filter id="filter0_dd" x="0" y="0" width="119" height="47" filterUnits="userSpaceOnUse" color-interpolation-filters="sRGB">
<feFlood flood-opacity="0" result="BackgroundImageFix"/>
<feColorMatrix in="SourceAlpha" type="matrix" values="0 0 0 0 0 0 0 0 0 0 0 0 0 0 0 0 0 0 127 0"/>
<feOffset dy="-3"/>
<feGaussianBlur stdDeviation="3"/>
<feColorMatrix type="matrix" values="0 0 0 0 0 0 0 0 0 0 0 0 0 0 0 0 0 0 0.06 0"/>
<feBlend mode="normal" in2="BackgroundImageFix" result="effect1_dropShadow"/>
<feColorMatrix in="SourceAlpha" type="matrix" values="0 0 0 0 0 0 0 0 0 0 0 0 0 0 0 0 0 0 127 0"/>
<feOffset dy="3"/>
<feGaussianBlur stdDeviation="3"/>
<feColorMatrix type="matrix" values="0 0 0 0 0 0 0 0 0 0 0 0 0 0 0 0 0 0 0.06 0"/>
<feBlend mode="normal" in2="effect1_dropShadow" result="effect2_dropShadow"/>
<feBlend mode="normal" in="SourceGraphic" in2="effect2_dropShadow" result="shape"/>
</filter>
</defs>
</svg>
