<svg width="32" height="32" viewBox="0 0 32 32" fill="none" xmlns="http://www.w3.org/2000/svg">
<g clip-path="url(#clip0)">
<path d="M24.0414 6.75073C23.5097 6.26769 21.2149 4.82577 16.4266 4.80488C16.4266 4.80488 10.7569 4.43234 8.00442 6.92542C6.47212 8.43798 5.95603 10.6873 5.89869 13.4325C5.84135 16.1777 5.54894 21.4206 10.5697 22.8154C10.5697 22.8154 10.5503 26.7083 10.5476 27.0504C10.5476 27.2897 10.5856 27.4533 10.7223 27.4871C10.821 27.5111 10.968 27.4602 11.0937 27.3352C11.8961 26.529 14.4663 23.4283 14.4663 23.4283C17.9152 23.6535 20.6585 22.9726 20.9536 22.8762C21.6478 22.6536 25.4089 22.329 26.0472 17.1863C26.7091 11.8827 25.808 8.26329 24.0414 6.75073Z" fill="white"/>
<path d="M25.2909 5.46882C24.662 4.88856 22.1207 3.04372 16.4601 3.01865C16.4601 3.01865 9.78482 2.61611 6.53072 5.60097C4.7193 7.41277 4.08207 10.0638 4.01486 13.3506C3.94764 16.6373 3.86068 22.7969 9.79811 24.4671H9.80381L9.80001 27.0156C9.80001 27.0156 9.76204 28.0474 10.4414 28.2578C11.2632 28.513 11.7455 27.7288 12.5301 26.8835C12.9607 26.4194 13.5554 25.7377 14.0035 25.2167C18.0642 25.5585 21.1873 24.7773 21.542 24.6619C22.3619 24.3961 27.0013 23.8014 27.7559 17.6426C28.5347 11.2942 27.3792 7.27872 25.2909 5.46882ZM25.979 17.1872C25.3422 22.3298 21.5792 22.653 20.8854 22.8755C20.5903 22.9705 17.8474 23.6529 14.3981 23.4277C14.3981 23.4277 11.8279 26.5284 11.0251 27.3346C10.8998 27.4607 10.7524 27.5116 10.6541 27.4865C10.5158 27.4527 10.4779 27.289 10.4794 27.0498C10.4817 26.708 10.5014 22.8148 10.5014 22.8148C10.5014 22.8148 10.4984 22.8148 10.5014 22.8148C5.4788 21.4203 5.77159 16.1778 5.82856 13.4326C5.88552 10.6874 6.40122 8.43849 7.93315 6.92593C10.6856 4.43285 16.3557 4.80539 16.3557 4.80539C21.144 4.82628 23.4385 6.2682 23.9705 6.75124C25.7371 8.2638 26.6371 11.8832 25.979 17.1857V17.1872Z" fill="#5E08EB"/>
<path d="M18.7902 13.5265C18.7081 13.5265 18.6292 13.4949 18.5698 13.4384C18.5104 13.3818 18.4749 13.3046 18.4708 13.2227C18.4165 12.1362 17.9046 11.6042 16.8599 11.5479C16.7767 11.5413 16.6993 11.5024 16.6444 11.4396C16.5894 11.3768 16.5611 11.2949 16.5657 11.2115C16.5702 11.1282 16.6071 11.0498 16.6685 10.9933C16.7299 10.9367 16.811 10.9064 16.8945 10.9088C18.273 10.9848 19.0393 11.772 19.1099 13.1908C19.112 13.2328 19.1058 13.2747 19.0917 13.3143C19.0776 13.3539 19.0558 13.3904 19.0276 13.4215C18.9994 13.4527 18.9653 13.478 18.9273 13.496C18.8893 13.514 18.8481 13.5244 18.8061 13.5265H18.7902Z" fill="#5E08EB"/>
<path d="M20.4331 14.0772H20.4255C20.3406 14.0752 20.26 14.0396 20.2014 13.9782C20.1428 13.9169 20.111 13.8347 20.1129 13.7499C20.1376 12.6558 19.8251 11.7699 19.1575 11.0415C18.4899 10.3131 17.5804 9.91818 16.3678 9.82932C16.283 9.82312 16.2041 9.7835 16.1485 9.71915C16.093 9.65481 16.0652 9.57102 16.0714 9.48621C16.0776 9.40141 16.1172 9.32254 16.1816 9.26696C16.2459 9.21137 16.3297 9.18362 16.4145 9.18982C17.779 9.28969 18.8605 9.76704 19.6295 10.6082C20.3985 11.4493 20.7809 12.5134 20.7528 13.7632C20.7511 13.8469 20.7167 13.9267 20.657 13.9854C20.5972 14.0441 20.5168 14.077 20.4331 14.0772Z" fill="#5E08EB"/>
<path d="M22.1142 14.7347C22.0298 14.7346 21.9487 14.7012 21.8888 14.6417C21.8288 14.5821 21.7948 14.5014 21.7941 14.4169C21.7793 12.46 21.2157 10.9653 20.0712 9.84807C18.9403 8.74679 17.5116 8.18171 15.8244 8.16956C15.7823 8.16941 15.7407 8.16098 15.7019 8.14476C15.6632 8.12853 15.628 8.10483 15.5983 8.07499C15.5385 8.01474 15.5051 7.9332 15.5054 7.84829C15.5057 7.76339 15.5397 7.68208 15.5999 7.62226C15.6602 7.56244 15.7417 7.529 15.8266 7.5293H15.8293C17.6871 7.54297 19.2646 8.1688 20.5181 9.39009C21.7717 10.6114 22.418 12.3043 22.4348 14.4131C22.4354 14.4979 22.4023 14.5795 22.3427 14.64C22.2832 14.7004 22.2021 14.7348 22.1173 14.7355L22.1142 14.7347Z" fill="#5E08EB"/>
<path d="M16.9405 17.4946C16.9405 17.4946 17.3905 17.5326 17.6327 17.2341L18.1052 16.6398C18.333 16.3451 18.8829 16.1571 19.4214 16.4571C19.8249 16.6873 20.2167 16.9374 20.5952 17.2067C20.9525 17.4695 21.6843 18.0802 21.6866 18.0802C22.0352 18.3745 22.1157 18.8066 21.8784 19.2624C21.8784 19.265 21.8765 19.2696 21.8765 19.2718C21.6151 19.725 21.2832 20.1337 20.8933 20.4825C20.8887 20.4848 20.8887 20.4871 20.8846 20.4893C20.5458 20.7724 20.213 20.9333 19.8862 20.972C19.8381 20.9804 19.7892 20.9835 19.7404 20.9811C19.5962 20.9825 19.4529 20.9604 19.3158 20.9158L19.3052 20.9002C18.8016 20.7582 17.9609 20.4027 16.5607 19.6303C15.7505 19.1886 14.9791 18.6791 14.2548 18.1071C13.8918 17.8206 13.5456 17.5136 13.2177 17.1874L13.1828 17.1524L13.1479 17.1175L13.1129 17.0826C13.1012 17.0712 13.0898 17.0594 13.078 17.0476C12.7518 16.7198 12.4447 16.3735 12.1582 16.0105C11.5864 15.2864 11.0769 14.5151 10.635 13.705C9.86262 12.3045 9.50718 11.4645 9.36515 10.9602L9.34958 10.9496C9.30506 10.8125 9.28313 10.6691 9.28464 10.525C9.28198 10.4762 9.28491 10.4273 9.29337 10.3792C9.33413 10.0528 9.49528 9.71979 9.7768 9.38004C9.77908 9.37586 9.78136 9.37586 9.78364 9.37131C10.1324 8.98142 10.541 8.64965 10.9943 8.38851C10.9966 8.38851 11.0011 8.38623 11.0038 8.38623C11.4595 8.14888 11.8916 8.22939 12.1856 8.5761C12.1879 8.57838 12.7974 9.31017 13.059 9.66751C13.3283 10.0464 13.5785 10.4385 13.8086 10.8425C14.1086 11.3806 13.9207 11.9316 13.626 12.1587L13.0317 12.6311C12.7317 12.8734 12.7712 13.3234 12.7712 13.3234C12.7712 13.3234 13.6514 16.655 16.9405 17.4946Z" fill="#5E08EB"/>
</g>
<defs>
<clipPath id="clip0">
<rect width="24" height="25.3079" fill="white" transform="translate(4 3)"/>
</clipPath>
</defs>
</svg>
